if (_typeface_js && _typeface_js.loadFace) _typeface_js.loadFace({"glyphs":{"、":{"ha":1423,"x_min":81,"x_max":453,"o":"m 444 -20 l 372 -75 q 353 -72 359 -84 q 222 77 286 8 q 94 209 157 146 q 94 229 81 220 l 160 289 q 179 288 170 297 q 313 149 247 220 q 445 0 378 77 q 444 -20 453 -11 z "},"。":{"ha":1423,"x_min":85,"x_max":524,"o":"m 213 199 q 172 106 172 160 q 212 12 172 52 q 256 -16 231 -7 q 306 -26 281 -26 q 355 -16 331 -26 q 399 12 380 -7 q 437 106 437 52 q 399 199 438 160 q 306 239 359 239 q 213 199 252 239 m 152 -49 q 85 106 85 18 q 151 259 85 198 q 305 324 216 324 q 460 259 395 324 q 524 106 524 197 q 460 -49 524 15 q 305 -113 396 -113 q 152 -49 214 -113 z "},"ぁ":{"ha":1229,"x_min":228,"x_max":1171,"o":"m 548 127 q 520 255 532 193 q 502 378 509 317 q 389 294 437 345 q 328 175 340 244 q 324 148 324 160 q 355 77 324 102 q 475 80 403 45 q 548 127 517 102 m 764 449 q 744 448 753 448 q 724 446 735 448 q 659 435 692 442 q 591 416 625 427 q 627 210 604 317 q 707 330 673 267 q 764 449 741 392 m 1168 256 q 1149 139 1171 195 q 1089 35 1128 83 q 1008 -38 1054 -8 q 909 -88 962 -68 q 898 -89 903 -91 q 890 -80 892 -87 l 864 -14 q 872 5 860 -1 q 948 43 911 20 q 1012 98 985 66 q 1055 168 1039 129 q 1067 252 1070 206 q 1048 330 1065 296 q 1005 387 1032 363 q 942 426 978 411 q 865 446 906 441 q 829 363 849 407 q 783 274 808 319 q 726 185 758 229 q 655 102 694 141 q 671 54 662 77 q 688 8 680 31 l 699 -22 q 699 -34 701 -28 q 690 -42 697 -39 l 629 -64 q 610 -57 618 -69 l 598 -24 q 587 5 593 -9 q 576 35 582 20 q 549 16 563 24 q 519 0 534 8 q 401 -31 461 -31 q 297 3 342 -31 q 245 66 263 28 q 228 148 228 104 q 233 194 228 174 q 327 363 256 294 q 491 475 397 433 q 483 688 483 590 l 282 688 q 269 701 269 688 l 269 762 q 282 776 269 776 l 483 776 l 483 818 l 484 920 q 499 933 484 933 l 567 933 q 581 920 581 933 l 579 817 q 578 797 579 807 q 578 776 578 787 l 1050 776 q 1063 762 1063 776 l 1063 701 q 1050 688 1063 688 l 578 688 q 579 602 578 647 q 583 509 581 556 q 646 524 614 517 q 707 533 677 530 q 756 538 734 536 q 802 540 779 540 q 807 553 803 544 q 815 575 810 562 q 830 612 821 589 q 850 620 837 624 l 913 593 q 918 572 925 587 q 908 549 911 557 q 903 537 905 541 q 902 530 901 532 q 1003 498 956 521 q 1086 441 1050 476 q 1143 361 1122 407 q 1168 256 1165 315 z "},"あ":{"ha":1423,"x_min":153,"x_max":1290,"o":"m 551 164 q 515 320 530 243 q 490 479 500 397 q 490 488 490 483 q 488 498 490 492 q 345 391 407 456 q 263 232 282 326 q 259 203 259 217 q 279 129 259 164 q 342 84 300 94 q 438 95 385 76 q 551 164 491 114 m 815 578 q 703 567 762 576 q 587 538 644 557 q 589 509 589 524 q 593 479 590 494 q 610 363 601 422 q 633 247 620 304 q 736 406 692 320 q 815 578 780 492 m 1271 399 q 1271 237 1290 317 q 1206 88 1252 156 q 1104 -17 1164 24 q 974 -85 1044 -58 q 964 -87 968 -90 q 956 -79 959 -85 l 929 -11 q 937 8 925 1 q 1038 60 991 30 q 1118 137 1085 90 q 1170 252 1154 190 q 1171 377 1185 315 q 1132 462 1160 427 q 1069 519 1104 496 q 994 555 1034 543 q 921 571 955 567 q 814 345 876 456 q 662 140 753 235 q 691 48 675 94 q 722 -41 707 3 q 713 -60 728 -52 l 644 -85 q 625 -77 631 -92 q 600 -4 612 -42 q 578 69 589 34 q 444 -4 509 18 q 317 -12 380 -26 q 237 25 270 -3 q 184 90 203 53 q 159 168 164 126 q 161 251 153 210 q 205 366 175 313 q 277 463 235 419 q 370 540 319 506 q 480 598 422 574 q 473 727 476 659 q 471 856 471 795 l 218 856 q 205 869 205 856 l 205 939 q 218 952 205 952 l 471 952 l 471 997 l 472 1118 q 486 1133 472 1133 l 563 1133 q 576 1118 576 1133 l 575 996 l 575 952 l 1161 952 q 1175 939 1175 952 l 1175 869 q 1161 856 1175 856 l 575 856 q 576 745 575 804 q 579 633 576 685 q 715 662 647 652 q 849 671 783 671 q 868 722 860 699 q 880 757 876 745 q 899 766 884 770 l 968 743 q 977 726 981 739 q 966 694 971 709 q 954 662 960 678 q 1164 572 1081 640 q 1271 399 1248 505 z "},"ぃ":{"ha":1423,"x_min":248,"x_max":1204,"o":"m 254 743 l 256 780 q 271 793 259 793 l 349 793 q 359 789 355 793 q 362 777 363 784 l 359 736 q 355 595 355 671 q 363 437 355 518 q 391 276 372 357 q 446 123 411 195 q 467 90 454 107 q 498 64 479 72 q 533 71 517 56 q 557 102 549 87 q 591 196 581 145 q 612 297 601 247 q 628 308 614 312 l 703 290 q 713 274 718 288 q 698 197 705 237 q 677 120 690 157 q 644 49 665 83 q 593 -9 624 15 q 524 -38 559 -37 q 456 -24 488 -39 q 396 19 423 -9 q 353 80 369 47 q 291 246 313 159 q 258 421 269 334 q 248 591 248 509 q 254 743 248 674 m 1203 233 l 1204 197 q 1190 182 1204 182 l 1112 182 q 1099 195 1099 182 l 1099 232 q 1086 396 1099 317 q 1060 536 1074 475 q 1034 634 1046 597 q 1023 671 1023 671 l 1009 704 q 1020 722 1005 716 l 1090 747 q 1108 738 1104 751 l 1120 704 q 1133 661 1122 700 q 1159 556 1145 621 q 1186 408 1173 491 q 1203 233 1199 324 z "},"い":{"ha":1423,"x_min":153,"x_max":1335,"o":"m 156 920 l 157 959 q 172 972 160 972 l 256 972 q 271 958 274 972 q 263 753 264 857 q 272 546 262 648 q 307 344 282 444 q 380 152 332 244 q 420 97 395 121 q 467 71 445 73 q 508 81 490 66 q 540 123 526 96 q 564 182 553 149 q 581 249 574 216 q 593 312 589 282 q 602 361 598 342 q 620 372 608 376 l 703 353 q 713 336 718 350 q 696 260 705 302 q 674 173 688 217 q 642 88 661 129 q 596 18 623 47 q 534 -28 570 -12 q 450 -38 498 -45 q 393 -20 419 -34 q 344 15 366 -5 q 304 58 321 35 q 277 104 288 81 q 201 309 228 202 q 164 522 175 415 q 153 731 153 629 q 156 920 153 833 m 1100 886 l 1179 916 q 1198 907 1192 920 q 1333 254 1317 593 q 1331 243 1335 247 q 1320 239 1326 239 l 1234 239 q 1221 252 1221 239 q 1092 867 1204 568 q 1100 886 1086 882 z "},"ぅ":{"ha":1423,"x_min":338,"x_max":1095,"o":"m 353 601 l 387 617 q 528 669 452 647 q 680 700 604 692 q 829 698 757 708 q 956 651 901 688 q 1059 532 1024 608 q 1088 370 1095 456 q 975 119 1077 236 q 694 -73 872 1 l 658 -90 q 640 -81 646 -95 l 609 -14 q 617 5 602 0 l 650 19 q 889 179 803 84 q 983 378 975 274 q 965 488 987 438 q 898 567 943 537 q 833 595 868 586 q 761 607 798 605 q 688 605 724 609 q 620 594 652 601 q 505 560 559 582 q 399 513 452 538 q 388 512 393 510 q 380 519 382 514 l 346 581 q 353 601 338 595 m 530 905 l 553 971 q 571 981 557 985 q 756 917 665 949 q 937 841 848 884 q 945 832 944 838 q 943 821 945 826 l 909 757 q 888 751 902 745 q 718 826 806 795 q 540 886 629 857 q 530 905 526 890 z "},"う":{"ha":1423,"x_min":197,"x_max":1164,"o":"m 454 1066 l 472 1145 q 488 1156 476 1157 q 720 1100 606 1131 q 945 1024 834 1069 q 954 1004 960 1017 l 922 932 q 905 925 917 920 q 689 998 798 968 q 465 1050 581 1027 q 454 1066 450 1053 m 1157 446 q 1114 295 1152 369 q 1010 155 1077 221 q 851 31 944 88 q 640 -71 758 -26 l 600 -85 q 582 -77 587 -91 l 552 -1 q 560 18 545 12 l 598 34 q 828 151 742 90 q 961 271 914 213 q 1024 377 1008 328 q 1043 454 1040 426 q 1019 580 1050 521 q 928 673 987 639 q 794 713 872 704 q 631 713 716 722 q 457 681 545 704 q 293 625 369 658 l 254 609 q 236 616 241 602 l 203 686 q 210 705 197 701 l 248 722 q 430 783 331 757 q 628 819 529 810 q 820 816 727 827 q 983 764 913 804 q 1117 629 1070 715 q 1157 446 1164 544 z "},"ぇ":{"ha":1423,"x_min":264,"x_max":1199,"o":"m 1173 31 l 1195 -37 q 1184 -54 1199 -50 l 1152 -64 q 1088 -79 1127 -71 q 1006 -87 1050 -88 q 920 -68 963 -85 q 845 -3 878 -50 q 817 45 827 22 q 798 91 807 68 q 761 161 779 137 q 705 193 743 184 q 644 186 674 199 q 584 152 613 174 q 529 104 555 130 q 481 58 503 77 q 410 -7 445 24 q 338 -73 374 -39 q 328 -77 334 -77 q 317 -73 321 -77 l 270 -22 q 266 -12 264 -18 q 271 0 267 -5 q 543 245 435 148 q 718 404 651 343 q 838 514 793 473 l 326 514 q 309 528 309 514 l 309 591 q 324 605 309 605 l 954 605 q 966 597 963 605 l 993 529 q 989 514 996 521 q 864 406 916 450 q 779 332 812 361 q 713 277 739 298 q 715 276 715 275 q 718 275 716 277 q 785 258 757 273 q 832 223 812 244 q 865 177 852 202 q 887 127 878 152 q 905 89 895 109 q 926 52 914 69 q 950 26 936 37 q 987 13 964 16 q 1042 14 1009 9 q 1122 31 1074 18 l 1157 41 q 1173 31 1171 43 m 444 903 l 464 971 q 481 981 468 985 q 669 918 576 952 q 850 841 761 884 q 857 832 856 838 q 856 821 859 826 l 822 758 q 803 751 815 746 q 630 825 718 793 q 453 884 543 857 q 444 903 439 888 z "},"え":{"ha":1423,"x_min":151,"x_max":1295,"o":"m 1270 33 l 1291 -42 q 1282 -60 1295 -56 l 1245 -71 q 1146 -94 1198 -85 q 1045 -99 1095 -103 q 950 -72 996 -95 q 871 0 905 -49 q 836 58 850 28 q 811 115 822 88 q 765 203 788 172 q 693 245 742 235 q 623 244 656 254 q 560 215 590 235 q 503 170 530 195 q 454 125 476 145 l 229 -81 q 220 -86 225 -85 q 210 -81 214 -87 l 156 -23 q 152 -13 151 -19 q 157 -1 153 -7 q 507 311 369 187 q 727 509 646 435 q 875 640 822 594 l 220 640 q 205 654 205 640 l 205 722 q 218 736 205 736 l 991 736 q 1002 731 998 736 l 1046 665 q 1043 647 1053 656 l 688 338 q 764 324 730 340 q 827 281 799 308 q 877 220 856 254 q 911 156 898 187 q 933 107 922 132 q 960 60 944 83 q 1050 7 993 12 q 1213 31 1108 1 l 1253 42 q 1270 33 1265 45 m 397 1066 l 414 1145 q 430 1156 416 1158 q 663 1100 549 1131 q 887 1024 776 1069 q 895 1004 902 1017 l 864 932 q 846 925 859 920 q 631 998 741 968 q 408 1050 522 1027 q 397 1066 395 1053 z "},"ぉ":{"ha":1423,"x_min":283,"x_max":1211,"o":"m 522 148 l 522 311 q 505 300 514 305 q 488 290 496 296 q 415 214 442 256 q 382 130 388 172 q 380 111 380 119 q 384 84 380 96 q 395 62 388 72 q 415 47 404 52 q 435 42 426 42 q 491 60 472 41 q 522 148 522 88 m 1118 107 q 802 -54 1044 -54 l 768 -54 q 754 -41 754 -54 l 754 33 q 768 46 754 46 l 802 46 q 947 70 894 46 q 1024 146 1000 94 q 1035 205 1038 174 q 1017 266 1032 237 q 951 333 996 305 q 846 370 907 361 q 733 374 789 380 q 620 350 677 369 l 620 148 q 559 -9 620 47 q 430 -53 507 -57 q 370 -36 399 -50 q 321 3 342 -22 q 295 45 307 19 q 283 111 283 72 q 283 127 283 119 q 286 146 283 136 q 334 261 297 206 q 431 359 370 316 q 475 387 453 374 q 522 411 498 400 l 522 674 l 302 675 q 289 689 289 675 l 289 753 q 302 766 289 766 l 522 766 l 522 921 q 536 935 522 935 l 605 935 q 620 921 620 935 l 620 766 l 895 766 q 910 753 910 766 l 910 688 q 895 674 910 674 l 620 674 l 620 446 q 743 466 681 461 q 867 461 806 471 q 1013 408 951 448 q 1107 311 1074 369 q 1137 209 1134 263 q 1118 107 1141 155 m 1203 488 l 1139 453 q 1120 457 1128 448 q 1053 557 1088 507 q 982 655 1019 606 q 985 675 974 667 l 1046 718 q 1065 715 1058 727 q 1139 614 1104 666 q 1208 509 1175 563 q 1210 497 1211 503 q 1203 488 1208 491 z "},"お":{"ha":1423,"x_min":178,"x_max":1320,"o":"m 1031 822 l 1090 878 q 1109 878 1100 887 q 1213 766 1162 822 q 1310 650 1263 709 q 1309 631 1320 639 l 1242 581 q 1223 583 1230 571 q 1129 694 1177 640 q 1029 802 1081 749 q 1031 822 1020 814 m 481 165 l 481 377 q 454 361 467 369 q 426 345 441 354 q 330 251 368 302 q 285 148 293 199 q 283 132 283 138 q 283 119 283 126 q 304 56 283 80 q 333 33 317 39 q 359 26 349 27 q 437 50 407 24 q 469 98 456 68 q 481 165 481 127 m 1206 119 q 1131 18 1177 56 q 1027 -41 1084 -20 q 905 -70 970 -62 q 779 -77 841 -77 q 765 -64 765 -77 l 765 11 q 779 24 765 24 q 876 28 826 24 q 970 45 925 31 q 1051 85 1015 58 q 1109 160 1088 113 q 1124 237 1126 195 q 1100 315 1122 278 q 1015 400 1072 366 q 880 446 959 434 q 732 449 808 457 q 582 416 655 441 l 582 165 q 564 58 582 107 q 509 -23 545 9 q 354 -75 445 -80 q 282 -56 316 -72 q 224 -9 248 -39 q 193 41 208 9 q 178 121 178 73 q 182 163 178 140 q 239 300 194 233 q 359 420 285 368 q 418 455 387 439 q 481 484 450 471 l 481 818 l 199 818 q 186 831 186 818 l 186 902 q 199 916 186 916 l 481 916 l 481 1116 q 496 1131 481 1131 l 568 1131 q 582 1116 582 1131 l 582 916 l 932 916 q 945 902 945 916 l 945 831 q 932 818 945 818 l 582 818 l 582 518 q 740 547 659 540 q 898 541 821 555 q 1078 480 1001 525 q 1194 363 1154 435 q 1228 241 1225 305 q 1206 119 1232 176 z "},"か":{"ha":1423,"x_min":133,"x_max":1362,"o":"m 952 300 q 920 197 941 255 q 879 85 899 138 q 843 -5 859 33 q 826 -46 827 -42 l 811 -81 q 793 -90 806 -95 l 718 -60 q 711 -41 705 -56 l 727 -5 q 742 32 727 -4 q 777 119 757 68 q 817 226 798 170 q 848 326 837 282 q 857 377 852 342 q 857 453 861 412 q 833 534 852 494 q 773 605 815 575 q 666 644 730 636 q 537 651 602 651 q 454 422 495 530 q 382 231 414 313 q 330 100 350 149 q 309 50 309 52 l 294 12 q 277 5 289 0 l 201 37 q 194 56 187 41 l 212 91 q 231 138 212 92 q 280 259 250 183 q 349 437 311 335 q 427 651 388 538 l 148 650 q 133 663 133 650 l 133 738 q 148 751 133 751 l 464 751 q 518 920 492 834 q 567 1095 544 1006 l 576 1133 q 594 1142 581 1145 l 673 1120 q 682 1114 680 1119 q 682 1103 684 1109 l 673 1065 q 625 907 652 986 q 574 751 598 827 q 636 749 602 751 q 705 741 670 747 q 774 724 741 735 q 837 692 808 712 q 954 528 924 632 q 952 300 983 425 m 1350 419 l 1283 387 q 1264 393 1271 380 q 1112 669 1191 534 q 940 935 1032 804 q 944 956 932 947 l 1006 997 q 1027 993 1017 1006 q 1201 722 1120 860 q 1355 439 1282 583 q 1350 419 1362 426 z "},"が":{"ha":1423,"x_min":133,"x_max":1415,"o":"m 1298 423 l 1230 392 q 1213 397 1219 385 q 1131 533 1168 475 q 1060 644 1095 591 q 990 747 1025 696 q 910 863 955 799 q 907 874 906 868 q 914 883 907 880 l 977 925 q 996 921 987 932 q 1076 806 1042 857 q 1145 704 1111 755 q 1217 591 1179 652 q 1306 445 1255 530 q 1298 423 1314 430 m 1272 860 l 1221 827 q 1210 825 1215 823 q 1202 831 1204 826 q 1137 924 1173 876 q 1059 1024 1101 972 q 1062 1046 1050 1036 l 1114 1078 q 1131 1076 1123 1084 q 1276 880 1196 1006 q 1272 860 1284 869 m 1407 941 l 1355 910 q 1336 914 1343 903 q 1198 1104 1284 1004 q 1192 1118 1191 1111 q 1200 1127 1194 1124 l 1252 1158 q 1268 1156 1263 1164 q 1344 1060 1309 1108 q 1411 963 1379 1012 q 1413 951 1415 958 q 1407 941 1412 945 m 932 300 q 900 197 921 255 q 859 85 879 138 q 823 -5 838 33 q 806 -46 807 -42 l 791 -81 q 772 -90 785 -95 l 697 -60 q 690 -41 684 -56 l 705 -5 q 720 32 705 -4 q 755 119 735 68 q 796 226 776 170 q 826 326 817 282 q 835 377 830 342 q 836 453 840 412 q 813 534 831 494 q 753 605 795 575 q 656 644 709 636 q 537 651 602 651 q 454 422 495 530 q 382 231 414 313 q 330 100 350 149 q 309 50 309 52 l 294 12 q 277 5 289 0 l 201 37 q 194 56 187 41 l 212 91 q 231 138 212 92 q 280 259 250 183 q 349 437 311 335 q 427 651 388 538 l 148 650 q 133 663 133 650 l 133 738 q 148 751 133 751 l 464 751 q 518 920 492 834 q 567 1095 544 1006 l 576 1133 q 594 1142 581 1145 l 673 1120 q 682 1114 680 1119 q 682 1103 684 1109 l 673 1065 q 625 907 652 986 q 574 751 598 827 q 695 741 631 750 q 817 692 760 731 q 932 528 902 632 q 932 300 963 425 z "},"き":{"ha":1423,"x_min":205,"x_max":1214,"o":"m 863 14 l 863 -66 q 849 -80 863 -80 l 807 -80 q 649 -76 722 -80 q 518 -60 576 -72 q 414 -26 460 -47 q 339 33 369 -4 q 294 255 269 115 l 301 294 q 317 305 304 308 l 400 293 q 411 277 414 290 l 404 236 q 425 102 388 142 q 487 62 446 77 q 579 40 528 47 q 689 30 631 33 q 807 27 747 27 l 849 27 q 863 14 863 27 m 1214 568 l 1214 499 q 1200 484 1214 484 l 982 484 q 1007 385 994 434 q 1035 285 1020 335 l 1046 247 q 1036 229 1050 233 l 958 209 q 939 220 943 206 l 929 256 q 899 370 914 313 q 869 484 883 427 l 218 484 q 205 499 205 484 l 205 568 q 218 582 205 582 l 845 582 q 814 701 829 643 q 789 811 800 760 l 218 811 q 205 825 205 811 l 205 894 q 218 909 205 909 l 765 909 q 739 1027 749 982 q 728 1073 730 1072 l 719 1109 q 731 1126 716 1123 l 810 1143 q 826 1133 823 1146 l 834 1095 q 847 1042 836 1092 q 878 909 859 993 l 1161 909 q 1175 894 1175 909 l 1175 825 q 1161 811 1175 811 l 901 811 q 927 701 913 760 q 958 582 941 643 l 1200 582 q 1214 568 1214 582 z "},"ぎ":{"ha":1423,"x_min":205,"x_max":1415,"o":"m 863 14 l 863 -66 q 849 -80 863 -80 l 807 -80 q 649 -76 722 -80 q 518 -60 576 -72 q 414 -26 460 -47 q 339 33 369 -4 q 294 255 269 115 l 301 294 q 317 305 304 308 l 400 293 q 411 277 414 290 l 404 236 q 425 102 388 142 q 487 62 446 77 q 579 40 528 47 q 689 30 631 33 q 807 27 747 27 l 849 27 q 863 14 863 27 m 1200 568 l 1200 499 q 1185 484 1200 484 l 982 484 q 1007 385 994 434 q 1035 285 1020 335 l 1046 247 q 1036 229 1050 233 l 958 209 q 939 220 943 206 l 929 256 q 899 370 914 313 q 869 484 883 427 l 218 484 q 205 499 205 484 l 205 568 q 218 582 205 582 l 845 582 q 814 701 829 643 q 789 811 800 760 l 218 811 q 205 825 205 811 l 205 894 q 218 909 205 909 l 765 909 q 739 1027 749 982 q 728 1073 730 1072 l 719 1109 q 731 1126 716 1123 l 810 1143 q 826 1133 823 1146 l 834 1095 q 847 1042 836 1092 q 878 909 859 993 l 1105 909 q 1119 894 1119 909 l 1119 825 q 1105 811 1119 811 l 901 811 q 927 701 913 760 q 958 582 941 643 l 1185 582 q 1200 568 1200 582 m 1274 860 l 1222 826 q 1211 823 1217 822 q 1203 830 1206 825 q 1139 924 1175 876 q 1059 1023 1103 972 q 1063 1046 1050 1036 l 1115 1078 q 1133 1076 1124 1084 q 1200 992 1164 1042 q 1278 880 1236 943 q 1274 860 1286 869 m 1407 941 l 1355 910 q 1336 916 1343 902 q 1278 1006 1313 959 q 1198 1104 1242 1053 q 1194 1116 1192 1109 q 1202 1127 1195 1123 l 1253 1157 q 1270 1154 1264 1162 q 1344 1059 1309 1107 q 1411 963 1379 1012 q 1413 951 1415 958 q 1407 941 1412 945 z "},"く":{"ha":1423,"x_min":294,"x_max":1069,"o":"m 477 397 l 1058 -8 q 1062 -27 1069 -18 l 1015 -95 q 994 -98 1008 -104 l 412 308 q 330 398 359 346 q 297 510 300 450 q 323 621 294 567 q 403 715 351 675 l 940 1133 q 951 1135 945 1135 q 960 1130 958 1135 l 1010 1065 q 1009 1046 1023 1053 l 472 631 q 424 576 441 606 q 408 513 407 545 q 477 397 411 444 z "},"ぐ":{"ha":1423,"x_min":294,"x_max":1241,"o":"m 477 397 l 1058 -8 q 1062 -27 1069 -18 l 1015 -95 q 994 -98 1008 -104 l 412 308 q 328 399 358 347 q 296 510 297 450 q 321 621 294 567 q 401 715 349 675 l 943 1131 q 954 1134 948 1134 q 963 1127 960 1134 l 1016 1063 q 1017 1051 1020 1058 l 1015 1043 l 472 631 q 424 576 439 606 q 408 513 408 545 q 477 397 410 446 m 1096 568 l 1044 534 q 1024 538 1032 528 q 882 732 966 631 q 886 754 873 746 l 936 785 q 952 784 945 791 q 1021 701 985 750 q 1099 589 1058 652 q 1096 568 1107 579 m 1229 650 l 1177 618 q 1158 623 1165 612 q 1099 713 1133 666 q 1020 812 1065 761 q 1015 826 1013 819 q 1023 836 1016 833 l 1074 865 q 1090 863 1085 871 q 1166 767 1131 815 q 1233 671 1202 719 q 1229 650 1241 659 z "},"け":{"ha":1423,"x_min":172,"x_max":1335,"o":"m 293 39 l 296 -5 q 293 -16 297 -12 q 282 -20 289 -20 l 203 -20 q 189 -8 191 -20 l 186 33 q 184 75 186 34 q 179 188 182 117 q 174 355 176 259 q 172 562 172 450 q 175 795 172 674 q 186 1039 178 917 l 189 1082 q 203 1095 191 1095 l 278 1095 q 289 1090 285 1095 q 292 1080 293 1086 l 289 1034 q 279 793 281 913 q 277 562 277 673 q 279 357 277 452 q 285 191 282 262 q 290 81 288 121 q 293 39 293 41 m 1335 791 l 1335 720 q 1321 707 1335 707 l 1077 707 q 1070 512 1077 609 q 1044 319 1063 415 q 989 130 1024 224 q 899 -53 955 37 l 878 -85 q 859 -92 871 -99 l 791 -50 q 783 -42 785 -47 q 785 -31 781 -37 l 806 3 q 888 169 856 84 q 937 342 920 254 q 960 522 954 431 q 967 707 967 613 l 456 707 q 442 720 442 707 l 442 791 q 456 804 442 804 l 967 804 q 966 845 967 825 q 966 887 966 865 l 964 1086 q 978 1100 964 1100 l 1058 1100 q 1073 1086 1070 1100 l 1076 890 q 1076 846 1076 868 q 1077 804 1077 825 l 1321 804 q 1335 791 1335 804 z "},"げ":{"ha":1423,"x_min":171,"x_max":1417,"o":"m 292 38 l 294 -7 q 292 -18 296 -14 q 281 -22 288 -22 l 203 -22 q 187 -8 190 -22 l 186 31 q 183 74 186 33 q 178 186 180 115 q 173 354 175 258 q 171 562 171 450 q 174 795 171 673 q 186 1039 178 917 l 189 1080 q 203 1093 191 1093 l 277 1093 q 288 1089 283 1093 q 290 1078 292 1085 l 288 1032 q 277 791 279 911 q 275 562 275 671 q 278 357 275 452 q 283 191 281 262 q 289 80 286 121 q 292 38 292 39 m 1324 789 l 1324 719 q 1310 705 1324 705 l 1065 705 q 1059 511 1065 609 q 1036 317 1054 414 q 983 127 1017 221 q 888 -53 948 34 l 865 -88 q 848 -92 857 -98 l 779 -50 q 773 -31 766 -43 l 793 0 q 877 167 845 81 q 926 341 909 252 q 951 521 944 430 q 958 705 958 612 l 454 705 q 441 719 441 705 l 441 789 q 454 803 441 803 l 956 803 q 956 844 956 823 q 954 887 955 865 l 952 1085 q 967 1099 952 1099 l 1048 1099 q 1062 1085 1062 1099 l 1063 888 q 1065 846 1065 867 q 1065 803 1065 825 l 1310 803 q 1324 789 1324 803 m 1257 880 l 1203 861 q 1184 869 1191 857 q 1095 1086 1153 967 q 1094 1099 1090 1093 q 1104 1108 1097 1105 l 1161 1123 q 1176 1118 1169 1127 q 1265 898 1218 1038 q 1257 880 1270 886 m 1405 926 l 1348 907 q 1331 918 1336 903 q 1296 1017 1317 966 q 1245 1130 1275 1069 q 1244 1143 1241 1137 q 1253 1152 1246 1149 l 1309 1168 q 1325 1160 1318 1169 q 1373 1051 1350 1104 q 1415 944 1396 998 q 1415 933 1417 937 q 1405 926 1412 929 z "},"こ":{"ha":1423,"x_min":172,"x_max":1153,"o":"m 1142 60 l 1152 -15 q 1138 -33 1152 -30 l 1097 -35 q 780 -52 917 -47 q 541 -47 643 -56 q 369 -17 439 -39 q 254 46 298 5 q 193 134 213 84 q 176 245 172 184 l 179 286 q 193 300 182 300 l 275 298 q 290 283 290 298 l 288 237 q 330 121 283 163 q 460 63 374 80 q 651 44 545 46 q 871 50 757 42 q 1085 68 985 57 l 1126 72 q 1142 60 1142 75 m 1115 658 l 1095 602 q 1077 594 1088 590 l 998 623 q 990 642 986 629 l 1010 697 q 1038 779 1029 745 q 1027 833 1046 812 q 969 865 1004 856 q 895 875 935 875 l 269 875 q 254 888 254 875 l 254 966 q 269 979 254 979 l 895 979 q 1108 906 1039 979 q 1145 843 1137 876 q 1149 777 1153 810 q 1135 714 1146 745 q 1115 658 1124 684 z "},"ご":{"ha":1423,"x_min":165,"x_max":1415,"o":"m 1139 58 l 1149 -16 q 1137 -33 1149 -31 l 1095 -37 q 778 -59 916 -54 q 538 -54 640 -64 q 366 -20 437 -45 q 251 45 296 4 q 174 244 165 122 l 176 285 q 190 298 176 298 l 273 297 q 288 282 288 297 l 285 235 q 326 119 281 159 q 456 62 370 79 q 648 43 543 45 q 868 48 754 41 q 1082 66 982 56 l 1123 71 q 1139 58 1139 73 m 1099 655 l 1078 600 q 1070 592 1076 594 q 1059 593 1065 590 l 982 621 q 974 640 967 627 l 994 694 q 1021 776 1013 742 q 1009 831 1029 810 q 953 864 987 854 q 878 873 918 873 l 266 873 q 251 887 251 873 l 251 963 q 266 977 251 977 l 878 977 q 1092 905 1024 977 q 1127 842 1119 875 q 1133 776 1135 808 q 1119 712 1130 743 q 1099 655 1108 681 m 1274 860 l 1222 826 q 1211 823 1217 822 q 1203 830 1206 825 q 1139 924 1175 876 q 1061 1023 1104 972 q 1065 1046 1051 1036 l 1115 1077 q 1133 1076 1126 1082 q 1200 993 1164 1042 q 1278 880 1237 944 q 1274 860 1286 869 m 1407 941 l 1355 910 q 1336 916 1343 902 q 1278 1006 1313 959 q 1198 1104 1244 1053 q 1194 1116 1192 1109 q 1202 1127 1195 1123 l 1253 1157 q 1270 1154 1264 1162 q 1345 1059 1310 1107 q 1411 963 1379 1012 q 1413 951 1415 958 q 1407 941 1412 945 z "},"さ":{"ha":1423,"x_min":197,"x_max":1291,"o":"m 338 106 q 405 62 362 79 q 504 36 448 45 q 625 24 560 27 q 757 22 689 22 l 799 22 q 812 8 812 22 l 812 -69 q 799 -83 812 -83 l 757 -83 q 587 -78 665 -83 q 446 -60 509 -73 q 334 -22 382 -46 q 252 39 285 1 q 214 103 225 69 q 199 172 202 137 q 201 244 197 208 q 212 317 205 281 q 228 330 214 332 l 309 315 q 321 300 321 312 q 313 250 317 275 q 308 198 308 224 q 314 149 308 172 q 338 106 320 125 m 1291 829 l 1291 760 q 1278 746 1291 746 l 977 746 q 1018 550 996 655 q 1066 339 1040 445 l 1077 300 q 1066 283 1080 286 l 987 264 q 971 275 974 260 l 962 312 q 908 539 932 427 q 865 746 884 651 l 212 746 q 197 760 197 746 l 197 829 q 212 844 197 844 l 845 844 q 814 1004 825 944 q 803 1066 803 1065 l 798 1105 q 808 1122 795 1119 l 888 1135 q 906 1122 905 1135 l 911 1084 q 923 1017 911 1082 q 956 844 935 951 l 1278 844 q 1291 829 1291 844 z "},"ざ":{"ha":1423,"x_min":194,"x_max":1415,"o":"m 336 104 q 404 61 361 77 q 502 36 446 45 q 623 24 557 27 q 755 22 688 22 l 798 22 q 811 8 811 22 l 811 -69 q 798 -83 811 -83 l 755 -83 q 585 -78 663 -83 q 443 -60 506 -73 q 331 -24 380 -47 q 250 38 282 0 q 211 102 222 68 q 197 172 199 136 q 199 244 194 208 q 210 316 203 281 q 227 328 213 331 l 308 315 q 318 310 315 315 q 320 298 321 305 q 311 248 316 274 q 307 197 307 222 q 313 149 307 172 q 336 104 319 125 m 1290 827 l 1290 760 q 1276 746 1290 746 l 975 746 q 1016 549 994 655 q 1065 338 1038 444 l 1076 300 q 1065 283 1078 286 l 986 264 q 970 275 972 260 l 960 312 q 907 538 930 426 q 864 746 883 651 l 210 746 q 195 760 195 746 l 195 827 q 210 842 195 842 l 844 842 q 812 1003 823 943 q 802 1065 802 1063 l 796 1104 q 807 1120 793 1118 l 887 1134 q 899 1131 894 1134 q 905 1120 903 1127 l 910 1084 q 922 1015 910 1081 q 954 842 933 949 l 1276 842 q 1290 827 1290 842 m 1274 917 l 1222 883 q 1211 880 1217 879 q 1203 887 1206 882 q 1139 980 1175 932 q 1061 1080 1103 1028 q 1057 1093 1055 1086 q 1065 1101 1058 1099 l 1115 1134 q 1133 1131 1124 1139 q 1278 937 1196 1063 q 1274 917 1286 926 m 1407 997 l 1355 967 q 1336 972 1343 958 q 1198 1160 1289 1058 q 1192 1173 1191 1166 q 1200 1183 1194 1180 l 1253 1214 q 1270 1211 1264 1219 q 1345 1116 1310 1164 q 1411 1019 1379 1067 q 1413 1007 1415 1013 q 1407 997 1412 1001 z "},"し":{"ha":1423,"x_min":294,"x_max":1257,"o":"m 1171 363 l 1245 328 q 1252 308 1257 323 q 1145 149 1204 221 q 1000 23 1085 77 q 905 -26 955 -5 q 802 -59 854 -47 q 696 -71 750 -71 q 589 -60 642 -72 q 371 87 448 -27 q 294 380 294 201 l 294 1086 q 308 1100 294 1100 l 392 1100 q 406 1086 406 1100 l 406 380 q 459 153 406 240 q 614 42 513 65 q 794 46 705 20 q 958 122 883 72 q 1069 228 1024 167 q 1152 357 1115 289 q 1160 364 1154 362 q 1171 363 1165 366 z "},"じ":{"ha":1423,"x_min":294,"x_max":1255,"o":"m 308 1099 l 392 1099 q 406 1085 406 1099 l 406 380 q 459 153 406 240 q 614 42 513 65 q 794 46 705 20 q 958 122 883 72 q 1069 228 1024 167 q 1152 357 1115 289 q 1160 364 1154 362 q 1171 363 1165 366 l 1245 328 q 1251 308 1255 321 q 1144 149 1203 221 q 1000 23 1085 77 q 905 -26 955 -5 q 802 -59 854 -47 q 696 -71 750 -71 q 589 -60 642 -72 q 371 87 448 -27 q 294 380 294 201 l 294 1085 q 308 1099 294 1099 m 1029 772 l 978 739 q 958 743 966 732 q 893 836 929 788 q 814 936 857 884 q 818 960 804 951 l 869 990 q 886 987 880 996 q 955 905 918 954 q 1032 793 991 856 q 1029 772 1042 781 m 1161 854 l 1111 822 q 1092 827 1099 814 q 1032 918 1067 871 q 951 1017 997 966 q 947 1029 947 1023 q 956 1040 948 1036 l 1006 1069 q 1024 1066 1015 1076 q 1099 971 1063 1019 q 1165 875 1134 924 q 1161 854 1173 864 z "},"す":{"ha":1423,"x_min":92,"x_max":1340,"o":"m 833 456 q 827 529 837 495 q 796 586 817 563 q 753 617 777 606 q 700 631 728 628 q 632 622 661 635 q 585 587 604 609 q 555 535 566 564 q 543 477 545 506 q 545 419 540 449 q 566 364 551 389 q 607 321 581 339 q 673 301 633 304 q 741 311 712 298 q 790 347 770 324 q 820 398 810 369 q 833 456 830 427 m 1340 944 l 1340 875 q 1326 861 1340 861 l 935 861 l 935 591 q 931 375 935 469 q 907 203 928 281 q 841 58 886 125 q 715 -75 796 -8 l 685 -100 q 665 -98 673 -107 l 616 -38 q 617 -16 604 -26 l 647 7 q 759 123 718 62 q 817 252 800 183 q 749 212 791 229 q 661 198 708 195 q 562 225 606 202 q 489 286 518 248 q 446 375 460 324 q 435 486 431 426 q 462 592 439 544 q 520 673 484 640 q 604 723 556 707 q 705 734 651 739 q 774 713 742 730 q 831 670 807 696 l 827 861 l 106 861 q 92 875 92 861 l 92 944 q 106 959 92 959 l 827 959 l 827 1116 q 842 1131 827 1131 l 921 1131 q 935 1116 935 1131 l 935 959 l 1326 959 q 1340 944 1340 959 z "},"ず":{"ha":1423,"x_min":104,"x_max":1417,"o":"m 831 454 q 795 586 840 533 q 699 631 761 624 q 631 622 659 635 q 583 586 602 609 q 554 534 564 563 q 541 476 544 505 q 544 418 538 448 q 564 363 549 388 q 606 320 579 338 q 671 300 632 302 q 740 310 711 297 q 789 345 769 323 q 819 397 808 368 q 831 454 829 426 m 1326 882 l 1326 817 q 1313 803 1326 803 l 935 803 l 935 590 q 931 373 935 468 q 907 200 928 278 q 842 56 887 122 q 715 -76 798 -11 l 684 -102 q 663 -99 673 -111 l 614 -39 q 616 -18 604 -28 l 646 7 q 758 123 715 64 q 817 251 800 183 q 749 211 791 228 q 661 197 707 194 q 561 224 605 201 q 487 286 517 248 q 443 375 457 324 q 433 484 429 426 q 460 591 438 543 q 519 673 483 640 q 603 723 556 707 q 704 734 650 739 q 774 712 742 730 q 830 669 806 694 l 826 803 l 118 803 q 104 817 104 803 l 104 882 q 118 895 104 895 l 826 895 l 826 1115 q 841 1130 826 1130 l 921 1130 q 935 1115 935 1130 l 935 895 l 1313 895 q 1326 882 1326 895 m 1259 929 l 1204 910 q 1185 918 1192 906 q 1147 1022 1169 968 q 1096 1137 1124 1076 q 1095 1149 1093 1143 q 1104 1157 1097 1154 l 1161 1173 q 1176 1166 1169 1176 q 1221 1072 1199 1127 q 1267 947 1242 1017 q 1259 929 1271 935 m 1405 975 l 1350 956 q 1332 966 1336 949 q 1297 1065 1317 1013 q 1245 1177 1276 1118 q 1244 1191 1241 1184 q 1255 1200 1248 1198 l 1310 1217 q 1326 1208 1320 1218 q 1415 993 1375 1101 q 1415 982 1417 986 q 1405 975 1412 978 z "},"せ":{"ha":1423,"x_min":91,"x_max":1350,"o":"m 1042 435 l 959 435 q 944 449 944 435 l 944 715 l 488 715 l 488 324 q 502 200 488 260 q 564 99 515 140 q 618 65 589 79 q 681 45 648 52 q 747 35 713 38 q 811 31 780 31 q 959 35 887 28 q 1105 52 1031 41 q 1120 39 1120 52 l 1133 -35 q 1120 -50 1133 -50 q 961 -71 1046 -61 q 793 -77 876 -80 q 631 -53 709 -75 q 490 20 552 -31 q 431 88 453 52 q 397 164 408 125 q 382 244 385 203 q 378 324 378 285 l 378 715 l 104 715 q 91 730 91 715 l 91 799 q 104 812 91 812 l 378 812 l 378 1109 q 392 1123 378 1123 l 475 1123 q 488 1109 488 1123 l 488 812 l 944 812 l 944 1115 q 959 1130 944 1130 l 1042 1130 q 1055 1115 1055 1130 l 1055 812 l 1336 812 q 1350 799 1350 812 l 1350 730 q 1336 715 1350 715 l 1055 715 l 1055 449 q 1042 435 1055 435 z "},"ぜ":{"ha":1423,"x_min":91,"x_max":1417,"o":"m 1040 433 l 958 433 q 943 448 943 433 l 943 701 l 487 701 l 487 323 q 501 199 487 260 q 564 98 515 138 q 618 64 589 77 q 681 43 648 50 q 747 32 713 35 q 811 27 780 28 q 958 33 886 26 q 1104 52 1031 41 q 1120 39 1118 52 l 1133 -37 q 1120 -52 1133 -52 q 961 -72 1046 -62 q 792 -78 876 -81 q 629 -53 708 -75 q 488 20 551 -31 q 430 88 452 52 q 396 164 408 125 q 380 243 384 203 q 377 323 377 283 l 377 701 l 104 701 q 91 715 91 701 l 91 785 q 104 799 91 799 l 377 799 l 377 1109 q 391 1123 377 1123 l 473 1123 q 487 1109 487 1123 l 487 799 l 943 799 l 943 1115 q 958 1130 943 1130 l 1040 1130 q 1054 1115 1054 1130 l 1054 799 l 1335 799 q 1348 785 1348 799 l 1348 715 q 1335 701 1348 701 l 1054 701 l 1054 448 q 1040 433 1054 433 m 1259 880 l 1204 861 q 1185 869 1192 857 q 1146 973 1169 920 q 1096 1085 1123 1027 q 1104 1107 1089 1103 l 1161 1123 q 1176 1118 1168 1126 q 1267 898 1219 1042 q 1259 880 1271 886 m 1405 925 l 1350 907 q 1332 917 1336 903 q 1297 1017 1317 964 q 1245 1130 1276 1069 q 1244 1143 1241 1137 q 1255 1152 1246 1149 l 1310 1166 q 1325 1160 1320 1171 q 1374 1051 1352 1104 q 1415 943 1396 998 q 1415 932 1417 936 q 1405 925 1412 928 z "},"そ":{"ha":1423,"x_min":167,"x_max":1268,"o":"m 1010 536 q 874 481 932 515 q 780 404 817 446 q 727 317 743 362 q 715 231 711 273 q 755 124 720 168 q 842 52 791 80 q 955 11 894 24 q 1072 -4 1016 -3 q 1085 -18 1085 -4 l 1085 -92 q 1072 -106 1085 -106 q 916 -85 996 -104 q 772 -24 837 -65 q 663 77 707 16 q 612 222 618 138 q 648 389 605 307 q 792 533 690 472 l 787 533 l 182 509 q 167 524 167 509 l 168 595 q 180 609 168 606 l 452 621 q 527 677 490 648 q 601 735 564 705 l 576 761 q 507 833 544 795 q 434 913 471 872 q 362 994 397 954 q 297 1073 327 1035 q 300 1092 290 1085 l 361 1138 q 381 1135 373 1147 q 451 1051 414 1095 q 527 964 488 1008 q 605 876 566 920 q 681 795 644 833 q 897 968 789 880 q 1108 1147 1004 1055 q 1127 1147 1120 1157 l 1179 1090 q 1177 1069 1188 1080 q 899 842 1043 954 q 614 624 755 731 l 1253 652 q 1264 649 1260 654 q 1268 637 1268 644 l 1268 568 q 1252 555 1268 555 q 1183 553 1213 553 q 1125 553 1153 553 q 1070 548 1097 552 q 1010 536 1043 544 z "},"ぞ":{"ha":1423,"x_min":167,"x_max":1420,"o":"m 1009 536 q 873 481 930 515 q 780 404 817 446 q 727 317 743 362 q 715 231 711 273 q 755 124 720 168 q 842 52 791 80 q 954 11 894 24 q 1069 -4 1013 -3 q 1084 -18 1084 -4 l 1084 -92 q 1069 -106 1084 -106 q 914 -85 993 -104 q 770 -24 836 -65 q 662 77 705 16 q 612 222 618 138 q 648 389 605 307 q 792 533 690 472 l 785 533 l 182 509 q 167 524 167 509 l 167 594 q 180 609 167 606 l 450 621 q 527 677 490 648 q 600 735 564 705 l 575 761 q 507 833 543 795 q 434 913 471 872 q 362 994 397 954 q 297 1073 327 1035 q 294 1083 293 1077 q 300 1092 294 1089 l 361 1138 q 381 1135 373 1147 q 451 1051 414 1095 q 527 964 488 1008 q 605 876 566 920 q 680 795 644 833 q 896 968 789 880 q 1107 1147 1002 1055 q 1126 1147 1118 1158 l 1177 1090 q 1176 1069 1187 1080 q 899 842 1042 954 q 614 624 755 731 l 1252 652 q 1263 649 1259 654 q 1267 637 1267 644 l 1267 568 q 1251 555 1267 555 q 1181 553 1211 553 q 1124 553 1152 553 q 1069 548 1096 552 q 1009 536 1042 544 m 1283 724 l 1237 685 q 1217 686 1225 675 q 1054 861 1149 769 q 1055 884 1042 873 l 1103 921 q 1119 921 1111 926 q 1196 846 1154 890 q 1286 743 1238 802 q 1283 724 1294 731 m 1407 818 l 1358 783 q 1348 778 1354 777 q 1339 785 1341 779 q 1270 866 1309 823 q 1180 956 1232 909 q 1183 981 1169 970 l 1236 1017 q 1253 1016 1244 1023 q 1334 928 1297 972 q 1409 838 1371 884 q 1407 818 1420 827 z "},"た":{"ha":1423,"x_min":118,"x_max":1317,"o":"m 842 880 l 842 811 q 827 798 842 798 l 483 798 q 431 481 458 632 q 379 216 403 331 q 339 31 355 100 q 323 -39 323 -38 l 312 -76 q 296 -88 309 -91 l 217 -68 q 208 -50 202 -65 l 217 -12 q 233 56 217 -11 q 271 234 248 122 q 321 492 294 346 q 372 798 349 637 l 132 798 q 118 811 118 798 l 118 880 q 132 894 118 894 l 388 894 q 393 944 391 921 q 397 989 395 967 q 401 1035 399 1012 q 407 1086 404 1058 l 411 1124 q 426 1138 412 1138 l 507 1131 q 519 1115 522 1128 l 517 1077 q 512 1027 514 1050 q 508 984 510 1005 q 503 941 506 963 q 498 894 500 920 l 827 894 q 842 880 842 894 m 1301 41 l 1314 -31 q 1303 -47 1317 -45 q 1198 -64 1260 -54 q 1067 -77 1135 -73 q 930 -77 998 -81 q 807 -52 861 -72 q 719 9 753 -31 q 685 118 685 50 l 685 157 q 699 171 685 171 l 777 170 q 792 156 792 170 q 793 106 791 132 q 814 62 795 80 q 845 43 827 50 q 882 31 863 35 q 921 25 902 27 q 958 22 940 23 q 1122 26 1040 15 q 1284 52 1203 38 q 1301 41 1298 54 m 1306 477 q 1289 410 1303 442 q 1259 346 1274 377 q 1240 339 1252 334 l 1166 373 q 1158 382 1160 376 q 1160 393 1157 388 q 1175 424 1166 408 q 1190 456 1183 439 q 1192 488 1198 476 q 1173 505 1185 499 q 1143 511 1160 510 q 1109 513 1126 513 l 755 513 q 742 526 742 513 l 742 601 q 755 616 742 616 l 1109 616 q 1179 610 1143 616 q 1244 587 1215 604 q 1290 545 1272 571 q 1306 477 1308 518 z "},"だ":{"ha":1423,"x_min":130,"x_max":1331,"o":"m 856 887 l 856 817 q 842 803 856 803 l 498 803 q 446 486 473 637 q 393 218 418 335 q 353 32 369 102 q 336 -39 336 -38 l 327 -76 q 309 -88 324 -91 l 231 -68 q 221 -52 217 -65 l 231 -12 q 246 57 231 -11 q 286 237 262 125 q 336 497 309 350 q 388 803 363 644 l 144 803 q 130 817 130 803 l 130 887 q 144 902 130 902 l 400 902 q 406 951 404 929 q 410 993 408 972 q 415 1036 412 1013 q 420 1086 418 1058 l 425 1124 q 441 1138 426 1138 l 521 1131 q 533 1115 536 1128 l 529 1077 q 524 1029 526 1050 q 520 988 522 1008 q 516 948 518 968 q 511 902 514 928 l 842 902 q 856 887 856 902 m 1316 39 l 1328 -31 q 1317 -47 1331 -45 q 1211 -64 1274 -54 q 1078 -77 1147 -73 q 940 -77 1009 -81 q 817 -52 871 -72 q 729 9 762 -31 q 699 118 696 50 l 700 156 q 713 170 700 170 l 792 170 q 806 156 806 170 q 806 106 804 130 q 827 62 808 81 q 895 31 854 38 q 971 22 936 24 q 1136 26 1055 15 q 1298 50 1217 38 q 1316 39 1313 53 m 1320 476 q 1303 409 1317 441 q 1272 345 1289 377 q 1255 339 1268 334 l 1180 372 q 1173 393 1166 378 q 1189 424 1181 408 q 1203 456 1196 439 q 1204 487 1210 476 q 1186 504 1199 498 q 1156 511 1173 510 q 1123 513 1139 513 l 769 513 q 755 526 755 513 l 755 601 q 769 616 755 616 l 1123 616 q 1193 610 1157 616 q 1257 587 1229 604 q 1303 544 1286 571 q 1320 476 1321 517 m 1153 860 l 1101 826 q 1081 830 1089 819 q 1017 924 1053 875 q 939 1024 981 972 q 941 1046 929 1036 l 993 1078 q 1009 1076 1004 1084 q 1078 993 1042 1042 q 1156 880 1115 944 q 1153 860 1165 869 m 1284 941 l 1234 910 q 1215 916 1222 902 q 1076 1104 1166 1001 q 1070 1118 1069 1111 q 1078 1127 1072 1124 l 1131 1158 q 1139 1160 1134 1161 q 1147 1156 1145 1160 q 1223 1060 1188 1108 q 1289 963 1257 1012 q 1291 951 1293 958 q 1284 941 1290 945 z "},"ち":{"ha":1423,"x_min":165,"x_max":1310,"o":"m 1261 467 q 1301 363 1293 418 q 1299 253 1310 308 q 1257 149 1289 198 q 1177 62 1226 99 q 1065 -3 1124 23 q 944 -46 1006 -30 q 817 -70 882 -62 q 686 -80 751 -77 q 675 -77 680 -81 q 671 -65 671 -72 l 671 11 q 685 24 671 24 q 797 34 741 27 q 907 54 853 41 q 1013 90 962 68 q 1111 148 1065 113 q 1161 200 1139 170 q 1192 266 1183 231 q 1196 338 1200 301 q 1169 410 1191 376 q 1106 467 1146 446 q 1019 498 1066 488 q 923 508 972 509 q 829 500 873 507 q 652 445 731 484 q 495 335 574 406 q 481 332 488 328 l 396 368 q 388 382 385 373 q 398 442 391 399 q 416 547 406 486 q 441 682 427 608 q 472 834 456 755 l 179 834 q 165 849 165 834 l 165 920 q 179 933 165 933 l 491 933 q 501 986 496 962 q 510 1034 506 1010 q 518 1080 514 1057 q 529 1131 522 1103 q 545 1142 532 1145 l 623 1126 q 633 1120 629 1124 q 633 1108 636 1115 q 615 1031 623 1065 q 604 977 608 998 q 595 933 598 951 l 1162 933 q 1176 920 1176 933 l 1176 849 q 1162 834 1176 834 l 576 834 q 557 736 567 788 q 537 633 547 684 q 519 537 528 582 q 506 461 511 492 q 652 553 575 517 q 811 601 730 589 q 935 610 869 610 q 1061 596 1000 610 q 1175 551 1122 582 q 1261 467 1227 519 z "},"ぢ":{"ha":1423,"x_min":160,"x_max":1415,"o":"m 1260 467 q 1300 363 1291 418 q 1298 253 1309 308 q 1256 149 1287 198 q 1176 62 1225 99 q 1064 -5 1123 22 q 943 -47 1005 -31 q 815 -71 880 -64 q 685 -80 750 -79 q 674 -77 678 -81 q 670 -65 670 -72 l 670 11 q 684 24 670 24 q 795 33 739 27 q 907 54 852 39 q 1013 90 962 68 q 1111 148 1065 113 q 1160 199 1139 168 q 1191 264 1181 229 q 1196 337 1200 300 q 1169 408 1191 374 q 1105 467 1145 445 q 1019 498 1066 488 q 922 508 971 509 q 827 500 872 507 q 651 445 730 484 q 494 335 572 406 q 480 332 487 328 l 396 368 q 388 382 385 373 q 397 440 391 399 q 414 541 404 481 q 437 672 425 600 q 467 823 450 745 l 174 823 q 160 837 160 823 l 160 909 q 174 922 160 922 l 486 922 q 507 1027 498 981 q 528 1131 515 1074 q 544 1142 530 1145 l 623 1124 q 632 1107 637 1122 q 614 1029 621 1063 q 601 971 606 994 q 590 922 595 944 l 1092 922 q 1105 909 1105 922 l 1105 837 q 1092 823 1105 823 l 571 823 q 552 726 562 777 q 533 627 543 675 q 516 535 524 578 q 503 461 509 492 q 651 552 574 517 q 810 600 728 587 q 935 609 869 609 q 1061 595 1000 609 q 1174 550 1122 581 q 1260 467 1226 519 m 1272 860 l 1221 826 q 1210 823 1215 822 q 1202 830 1204 825 q 1137 924 1173 876 q 1059 1024 1101 972 q 1062 1046 1050 1036 l 1114 1078 q 1131 1076 1123 1084 q 1199 993 1162 1042 q 1276 880 1236 944 q 1272 860 1284 869 m 1407 941 l 1355 910 q 1336 914 1343 903 q 1276 1005 1310 958 q 1196 1104 1242 1053 q 1192 1116 1191 1109 q 1200 1127 1194 1123 l 1252 1157 q 1268 1154 1263 1162 q 1344 1059 1309 1107 q 1411 963 1379 1012 q 1413 951 1415 958 q 1407 941 1412 945 z "},"っ":{"ha":1423,"x_min":247,"x_max":1168,"o":"m 1168 410 q 1111 208 1168 300 q 963 60 1054 117 q 782 -17 878 8 q 589 -54 686 -42 q 574 -42 574 -54 l 566 33 q 578 47 563 47 q 738 76 658 58 q 887 133 818 94 q 1012 248 964 176 q 1059 410 1059 320 q 1027 528 1059 483 q 946 600 996 574 q 835 634 897 625 q 713 643 773 643 q 496 623 604 643 q 282 585 388 604 q 266 595 269 582 l 250 670 q 262 686 247 684 q 492 726 377 707 q 722 745 606 745 q 886 730 806 745 q 1029 677 966 715 q 1130 575 1092 640 q 1168 410 1168 510 z "},"つ":{"ha":1423,"x_min":119,"x_max":1268,"o":"m 133 846 l 278 872 q 395 892 328 882 q 536 911 461 903 q 691 920 612 918 q 847 912 770 921 q 994 880 924 903 q 1118 817 1063 857 q 1257 552 1241 726 q 1209 301 1268 419 q 1034 104 1150 183 q 837 9 948 46 q 590 -47 726 -28 l 548 -53 q 533 -41 533 -53 l 522 42 q 534 57 522 57 l 576 62 q 796 111 699 79 q 970 194 894 142 q 1108 349 1062 258 q 1145 543 1154 441 q 1115 653 1138 605 q 1048 734 1092 701 q 953 784 1005 766 q 844 810 901 802 q 732 818 788 818 q 624 815 675 818 q 387 786 503 808 q 156 745 271 764 q 138 754 142 742 l 122 829 q 133 846 119 842 z "},"づ":{"ha":1423,"x_min":118,"x_max":1415,"o":"m 132 844 l 277 871 q 393 891 327 880 q 535 909 460 902 q 690 918 610 917 q 846 910 769 920 q 992 878 922 901 q 1116 814 1062 854 q 1214 701 1180 766 q 1256 551 1248 635 q 1208 300 1267 418 q 1032 102 1150 182 q 836 7 947 43 q 589 -49 724 -30 l 547 -54 q 532 -42 532 -54 l 521 39 q 533 54 521 54 l 575 60 q 794 108 697 76 q 967 191 891 140 q 1106 347 1059 255 q 1143 540 1153 438 q 1114 651 1137 604 q 1047 732 1090 699 q 951 783 1004 765 q 842 808 898 800 q 730 817 787 817 q 621 812 673 817 q 386 783 502 804 q 155 741 270 761 q 137 751 141 738 l 121 826 q 132 844 118 840 m 1274 860 l 1222 826 q 1202 830 1210 819 q 1139 924 1175 876 q 1059 1023 1103 972 q 1063 1046 1050 1036 l 1115 1077 q 1133 1076 1126 1082 q 1200 993 1164 1042 q 1276 880 1236 944 q 1274 860 1286 869 m 1407 941 l 1355 910 q 1336 914 1343 903 q 1276 1005 1310 958 q 1198 1104 1242 1053 q 1192 1118 1191 1111 q 1200 1127 1194 1124 l 1252 1157 q 1268 1154 1263 1162 q 1344 1059 1309 1107 q 1411 963 1379 1012 q 1413 951 1415 958 q 1407 941 1412 945 z "},"て":{"ha":1423,"x_min":189,"x_max":1238,"o":"m 1238 998 l 1238 916 q 1230 903 1238 905 q 1152 874 1202 894 q 1043 824 1101 854 q 925 751 985 793 q 817 653 865 708 q 736 530 768 598 q 705 382 705 463 q 751 220 705 293 q 875 103 796 146 q 991 58 932 72 q 1115 35 1051 43 q 1126 30 1122 35 q 1127 18 1130 24 l 1112 -60 q 1097 -71 1109 -73 q 936 -37 1012 -60 q 788 33 860 -15 q 648 183 699 92 q 597 382 597 274 q 637 562 597 477 q 741 717 677 647 q 884 840 804 787 q 1044 922 964 892 q 814 906 943 914 q 549 892 704 899 q 205 879 395 884 q 189 894 189 879 l 189 968 q 203 982 189 982 l 1225 1012 q 1235 1009 1232 1013 q 1238 998 1238 1005 z "},"で":{"ha":1423,"x_min":187,"x_max":1378,"o":"m 1232 998 l 1232 916 q 1223 903 1232 905 q 1145 873 1195 894 q 1038 821 1096 853 q 920 746 979 789 q 812 648 861 703 q 733 526 764 593 q 703 382 703 460 q 749 220 703 293 q 873 103 795 146 q 990 58 930 72 q 1112 35 1050 43 q 1123 30 1119 35 q 1124 18 1127 24 l 1111 -60 q 1096 -71 1108 -73 q 934 -37 1010 -60 q 787 33 857 -15 q 646 184 697 94 q 595 382 595 274 q 635 564 595 479 q 739 720 675 650 q 880 842 802 789 q 1038 922 959 894 q 810 906 937 914 q 547 892 700 899 q 203 879 393 884 q 187 894 187 879 l 187 968 q 201 982 187 982 l 1218 1012 q 1228 1009 1225 1013 q 1232 998 1232 1005 m 1233 422 l 1183 389 q 1162 393 1172 381 q 1099 486 1134 438 q 1020 586 1063 534 q 1024 609 1010 600 l 1076 639 q 1092 637 1085 644 q 1160 555 1124 604 q 1237 444 1195 506 q 1233 422 1245 430 m 1367 506 l 1317 472 q 1297 477 1305 465 q 1157 665 1246 564 q 1160 689 1145 680 l 1213 719 q 1229 716 1221 724 q 1304 621 1268 669 q 1371 524 1340 572 q 1367 506 1378 513 z "},"と":{"ha":1423,"x_min":225,"x_max":1175,"o":"m 1019 35 l 1158 41 q 1172 27 1172 41 l 1175 -50 q 1161 -65 1175 -65 l 1027 -69 q 894 -75 966 -72 q 749 -75 822 -77 q 604 -62 675 -72 q 473 -27 533 -52 q 370 39 414 -3 q 308 142 327 80 q 295 270 289 209 q 328 385 301 331 q 397 486 354 438 q 495 578 441 534 q 456 650 481 602 q 397 759 430 697 q 325 894 363 821 q 247 1043 286 967 l 229 1077 q 237 1097 225 1090 l 311 1131 q 330 1124 323 1137 l 346 1089 q 415 948 380 1017 q 483 820 450 879 q 543 714 515 761 q 585 640 570 667 q 694 703 635 671 q 813 762 753 734 q 932 817 873 791 q 1039 863 990 842 l 1112 894 q 1130 887 1124 899 l 1162 815 q 1163 804 1165 810 q 1154 796 1161 799 q 1034 745 1097 772 q 906 690 970 719 q 781 632 842 662 q 666 570 719 602 q 561 498 614 538 q 468 407 507 457 q 411 298 429 357 q 412 172 393 239 q 460 102 425 129 q 545 59 495 75 q 656 37 595 43 q 781 30 718 31 q 905 31 844 28 q 1019 35 967 34 z "},"ど":{"ha":1423,"x_min":206,"x_max":1412,"o":"m 1002 34 l 1141 38 q 1156 24 1156 38 l 1158 -53 q 1145 -68 1158 -65 l 1009 -72 q 877 -77 948 -75 q 732 -77 806 -79 q 587 -64 658 -75 q 457 -28 517 -53 q 353 37 397 -4 q 292 141 309 77 q 279 268 273 208 q 311 382 285 328 q 380 484 338 437 q 479 575 423 532 q 439 646 465 600 q 379 755 412 693 q 307 891 346 818 q 231 1040 269 964 l 213 1076 q 220 1095 206 1088 l 292 1128 q 302 1129 297 1131 q 309 1123 307 1127 l 330 1086 q 404 947 368 1016 q 471 819 439 879 q 528 712 503 760 q 568 637 552 665 q 776 753 667 701 q 982 844 884 804 l 1055 875 q 1073 868 1067 880 l 1105 798 q 1097 777 1109 784 q 869 680 983 728 q 648 567 754 631 q 544 494 597 536 q 452 403 491 453 q 395 294 412 353 q 396 170 377 236 q 444 99 408 126 q 528 56 479 72 q 639 35 578 41 q 763 28 700 28 q 888 29 826 27 q 1002 34 951 31 m 1274 860 l 1222 826 q 1202 830 1210 819 q 1139 924 1175 876 q 1059 1023 1103 972 q 1063 1046 1050 1036 l 1115 1078 q 1133 1076 1124 1084 q 1200 993 1164 1042 q 1276 880 1236 944 q 1274 860 1286 869 m 1407 941 l 1355 910 q 1336 914 1343 903 q 1276 1005 1310 958 q 1198 1104 1242 1053 q 1194 1116 1192 1109 q 1202 1127 1195 1123 l 1253 1157 q 1270 1154 1264 1162 q 1339 1064 1309 1107 q 1404 972 1370 1021 q 1410 956 1408 967 q 1407 941 1412 945 z "},"な":{"ha":1423,"x_min":129,"x_max":1345,"o":"m 935 107 q 936 113 936 110 q 937 118 936 115 q 870 138 909 126 q 791 154 831 149 q 714 154 751 159 q 650 126 677 149 q 629 92 635 113 q 636 53 624 71 q 671 24 650 34 q 718 12 693 15 q 767 12 742 9 q 812 18 792 14 q 886 48 849 26 q 935 107 924 71 m 1048 176 q 1161 130 1105 153 q 1271 80 1217 107 q 1278 61 1284 73 l 1245 -4 q 1236 -12 1242 -9 q 1225 -11 1230 -14 q 1130 39 1177 12 q 1032 84 1082 65 q 953 -29 1012 15 q 821 -84 894 -73 q 764 -90 799 -88 q 691 -86 730 -92 q 615 -62 652 -80 q 552 -7 578 -43 q 524 65 526 27 q 536 136 522 103 q 580 197 551 170 q 647 236 609 224 q 800 248 722 260 q 952 212 878 236 q 960 344 959 273 q 962 476 962 415 l 962 589 l 962 629 q 975 643 962 643 l 1050 643 q 1063 629 1063 643 l 1063 593 l 1063 473 q 1060 328 1063 410 q 1048 176 1057 247 m 761 875 l 761 806 q 747 792 761 792 l 477 791 q 401 564 438 669 q 336 382 365 460 q 290 260 308 305 q 273 214 273 216 l 256 178 q 239 171 251 165 l 164 203 q 156 222 151 208 l 171 255 q 189 297 171 256 q 233 410 206 338 q 296 579 260 481 q 368 791 331 677 l 142 791 q 129 804 129 791 l 129 873 q 142 887 129 887 l 399 888 q 433 1010 418 949 q 465 1133 448 1072 q 483 1143 469 1146 l 562 1123 q 571 1105 576 1120 q 541 997 556 1050 q 510 888 525 944 l 747 888 q 761 875 761 888 m 1312 716 l 1339 693 q 1345 683 1344 689 q 1340 673 1345 677 l 1290 617 q 1271 616 1280 606 l 1241 640 q 1217 659 1241 640 q 1158 703 1194 677 q 1083 760 1123 730 q 1009 815 1043 791 l 979 837 q 975 857 967 846 l 1021 917 q 1040 920 1028 929 l 1072 898 q 1147 842 1105 872 q 1223 784 1188 811 q 1284 737 1259 757 q 1312 716 1309 718 z "},"に":{"ha":1423,"x_min":232,"x_max":1252,"o":"m 560 216 l 563 255 q 576 269 566 269 l 658 269 q 674 252 674 269 q 672 217 673 236 q 673 180 671 198 q 680 145 674 161 q 700 118 686 129 q 783 80 735 88 q 875 69 831 72 q 1042 68 959 64 q 1207 80 1124 73 q 1223 66 1221 81 l 1226 3 q 1214 -12 1229 -12 q 1096 -25 1165 -18 q 952 -34 1027 -33 q 805 -27 878 -35 q 676 8 732 -19 q 587 85 620 35 q 560 216 555 134 m 570 963 l 1043 963 q 1113 956 1077 963 q 1179 931 1149 948 q 1227 887 1208 914 q 1249 821 1246 860 q 1238 737 1252 777 q 1203 651 1223 697 q 1184 643 1198 639 l 1108 673 q 1099 681 1101 675 q 1101 693 1097 686 q 1119 725 1109 707 q 1135 763 1128 743 q 1142 800 1141 783 q 1135 831 1143 818 q 1094 860 1123 853 q 1043 867 1065 867 l 570 867 q 556 880 556 867 l 556 948 q 570 963 556 963 m 355 22 l 358 -20 q 355 -32 359 -27 q 345 -37 351 -37 l 264 -38 q 250 -24 252 -38 l 247 16 q 245 58 247 18 q 239 170 243 99 q 234 338 236 241 q 232 546 232 434 q 235 780 232 658 q 247 1024 239 902 l 250 1063 q 264 1077 251 1074 l 339 1080 q 354 1062 357 1080 l 351 1017 q 342 777 345 897 q 340 546 339 656 q 342 340 340 435 q 348 175 345 245 q 353 64 351 104 q 355 22 355 23 z "},"ぬ":{"ha":1423,"x_min":113,"x_max":1409,"o":"m 487 206 q 414 391 446 296 q 357 568 382 486 q 353 565 354 566 q 349 562 351 564 q 288 476 313 521 q 248 387 263 431 q 224 299 232 342 q 217 221 217 256 q 221 170 217 194 q 264 84 232 104 q 363 81 312 57 q 487 206 426 114 m 1105 115 q 1064 126 1086 121 q 1023 136 1042 132 q 905 145 954 151 q 829 117 856 140 q 807 76 806 98 q 829 43 807 57 q 894 26 856 27 q 970 37 932 26 q 1044 67 1009 47 q 1103 111 1080 87 q 1104 113 1104 113 q 1105 115 1104 114 m 697 751 q 562 710 628 739 q 439 637 496 681 q 487 472 460 563 q 548 298 514 381 q 592 399 571 345 q 632 512 613 453 q 667 631 651 571 q 697 751 684 692 m 1366 111 l 1394 99 q 1401 77 1409 91 l 1367 15 q 1347 8 1360 3 q 1276 45 1310 28 q 1200 79 1241 62 q 1114 -9 1162 24 q 1000 -62 1065 -43 q 884 -77 943 -80 q 773 -43 825 -75 q 723 5 742 -24 q 701 71 704 35 q 715 137 699 106 q 762 193 731 168 q 851 233 802 224 q 952 239 901 243 q 1055 223 1004 236 q 1149 197 1105 210 q 1173 283 1164 236 q 1181 381 1181 330 q 1164 510 1181 445 q 1103 632 1146 575 q 985 727 1057 693 q 822 764 913 761 l 807 764 q 741 520 780 643 q 650 291 701 397 q 539 104 600 184 q 410 -9 479 24 q 309 -32 359 -34 q 212 -3 259 -30 q 151 58 174 19 q 118 153 127 98 q 114 185 115 168 q 113 221 113 202 q 120 311 113 263 q 146 410 127 359 q 195 514 164 461 q 270 617 225 567 q 296 645 282 632 q 324 673 309 658 q 298 772 309 726 q 281 853 288 818 q 266 929 273 894 l 259 966 q 271 982 259 979 l 342 993 q 358 981 355 993 l 363 945 q 376 882 365 940 q 410 736 388 825 q 559 812 480 783 q 720 853 639 842 q 738 956 731 905 q 750 1055 745 1008 l 754 1092 q 769 1104 757 1107 l 845 1099 q 857 1084 860 1096 l 854 1046 q 844 955 852 1002 q 827 859 836 907 q 1035 812 943 854 q 1188 692 1127 770 q 1263 541 1241 623 q 1286 380 1286 460 q 1276 264 1286 320 q 1248 161 1265 209 q 1306 136 1280 146 q 1366 111 1332 126 z "},"ね":{"ha":1423,"x_min":79,"x_max":1438,"o":"m 1130 125 q 1048 149 1089 138 q 963 161 1006 159 q 929 160 949 161 q 889 154 909 159 q 854 139 869 149 q 834 113 838 129 q 835 82 830 95 q 850 60 840 69 q 873 45 860 52 q 902 35 887 39 q 968 28 932 27 q 1036 39 1004 28 q 1092 66 1067 49 q 1124 110 1116 84 q 1126 117 1126 113 q 1130 125 1127 122 m 1405 115 l 1424 106 q 1430 85 1438 99 l 1392 22 q 1373 16 1385 9 q 1225 92 1303 57 q 1221 76 1222 81 q 1165 -5 1203 28 q 1078 -56 1127 -38 q 975 -76 1029 -73 q 872 -64 921 -79 q 753 12 791 -41 q 734 133 716 64 q 802 222 749 193 q 887 252 842 245 q 977 254 932 258 q 1068 239 1023 250 q 1154 216 1114 228 q 1171 330 1165 269 q 1176 453 1176 392 q 1159 614 1176 540 q 1100 728 1142 689 q 1080 743 1093 734 q 1047 758 1067 751 q 998 769 1027 765 q 930 769 968 773 q 850 752 897 765 q 745 709 803 739 q 616 627 686 678 q 465 495 545 575 l 465 -61 q 452 -75 465 -75 l 377 -75 q 362 -61 362 -75 l 362 387 q 264 260 311 326 q 174 130 218 195 q 155 126 165 119 l 91 168 q 85 189 79 176 q 218 367 151 281 q 362 534 285 453 l 362 812 l 119 812 q 106 826 106 812 l 106 891 q 119 906 106 906 l 362 906 l 362 1115 q 377 1130 362 1130 l 452 1130 q 465 1115 465 1130 l 465 906 l 526 906 q 540 891 540 906 l 540 826 q 526 812 540 812 l 465 812 l 465 625 q 721 806 606 751 q 920 871 836 861 q 1063 861 997 879 q 1172 802 1128 842 q 1223 734 1202 773 q 1257 650 1244 696 q 1275 555 1270 605 q 1280 453 1280 505 q 1272 311 1280 381 q 1252 183 1263 240 q 1329 152 1291 168 q 1405 115 1367 136 z "},"の":{"ha":1423,"x_min":91,"x_max":1335,"o":"m 298 857 q 455 966 369 924 q 634 1026 541 1009 q 823 1033 727 1043 q 1006 985 918 1023 q 1249 791 1164 917 q 1331 499 1335 666 q 1298 322 1328 407 q 1215 165 1268 237 q 1090 38 1162 94 q 933 -50 1019 -18 l 898 -64 q 878 -56 882 -68 l 850 18 q 857 37 845 31 l 894 50 q 1025 122 966 76 q 1126 227 1084 168 q 1194 356 1169 286 q 1221 502 1218 426 l 1221 514 q 1154 740 1221 640 q 964 891 1088 840 q 873 920 920 910 q 777 932 826 929 q 774 795 776 865 q 765 654 772 726 q 745 512 758 583 q 709 370 731 441 q 680 286 700 340 q 623 176 659 231 q 532 80 587 122 q 400 34 477 38 q 265 58 321 30 q 172 134 209 87 q 117 242 136 182 q 95 362 99 302 q 102 496 91 429 q 140 627 114 563 q 207 750 167 692 q 298 857 247 808 m 203 369 q 206 338 203 359 q 216 290 209 316 q 237 237 224 264 q 271 188 250 210 q 321 152 292 165 q 393 141 351 138 q 513 208 461 145 q 605 403 564 271 q 657 665 647 530 q 669 925 667 799 q 511 878 587 913 q 373 787 434 844 q 248 606 292 709 q 203 399 203 503 q 203 385 203 392 q 203 369 202 377 z "},"は":{"ha":1423,"x_min":186,"x_max":1313,"o":"m 307 15 l 309 -30 q 307 -41 311 -37 q 296 -45 302 -45 l 218 -45 q 205 -33 208 -45 l 201 7 q 194 154 197 68 q 189 337 191 240 q 186 535 187 434 q 186 729 186 636 q 189 899 187 822 q 194 1025 190 977 l 197 1065 q 212 1078 199 1078 l 289 1077 q 300 1072 296 1076 q 302 1061 304 1067 l 300 1017 q 296 894 297 970 q 294 726 294 818 q 294 534 293 635 q 296 338 294 434 q 300 159 297 243 q 307 15 302 75 m 932 130 q 863 152 901 141 q 785 167 825 163 q 708 166 746 171 q 640 142 670 161 q 616 113 620 132 q 612 92 613 103 q 616 68 612 80 q 631 46 620 57 q 665 27 643 35 q 742 16 701 15 q 820 31 783 18 q 887 70 857 45 q 932 130 917 95 m 1303 49 l 1261 -16 q 1242 -20 1255 -27 q 1137 39 1192 8 q 1029 94 1081 71 q 963 -3 1006 38 q 865 -65 920 -43 q 749 -88 810 -87 q 629 -69 688 -90 q 525 11 556 -43 q 510 134 494 65 q 583 232 525 198 q 672 263 624 256 q 770 266 720 270 q 868 250 819 262 q 959 225 917 239 q 977 421 972 304 q 982 678 982 538 l 982 762 l 547 762 q 533 776 533 762 l 533 848 q 547 861 533 861 l 982 861 l 979 1104 q 993 1118 979 1118 l 1069 1118 q 1084 1104 1084 1118 l 1085 861 l 1287 861 q 1301 848 1301 861 l 1301 776 q 1287 762 1301 762 l 1085 762 q 1086 718 1086 742 q 1086 675 1086 694 q 1081 397 1086 522 q 1058 187 1076 273 q 1180 132 1119 163 q 1298 68 1241 102 q 1303 49 1313 61 z "},"ば":{"ha":1423,"x_min":183,"x_max":1428,"o":"m 305 15 l 308 -31 q 305 -42 309 -38 q 294 -46 301 -46 l 217 -46 q 203 -34 206 -46 l 199 5 q 192 153 195 66 q 186 336 189 239 q 184 534 184 433 q 184 728 183 635 q 186 898 184 821 q 193 1024 189 975 l 195 1063 q 210 1077 198 1077 l 289 1076 q 302 1059 304 1073 l 298 1016 q 292 892 294 968 q 290 725 290 817 q 290 533 289 633 q 294 337 292 433 q 298 157 296 241 q 305 15 301 73 m 930 129 q 861 151 899 140 q 784 165 823 161 q 707 165 745 170 q 639 142 670 161 q 614 111 618 132 q 615 68 609 92 q 665 27 621 43 q 741 16 701 15 q 819 31 781 18 q 886 69 856 45 q 930 129 916 94 m 1301 47 l 1260 -19 q 1240 -23 1252 -31 q 1135 38 1191 7 q 1028 92 1080 69 q 962 -4 1005 37 q 863 -66 918 -45 q 747 -90 808 -88 q 628 -71 686 -91 q 523 9 555 -45 q 509 133 491 64 q 582 231 525 198 q 671 262 623 255 q 769 266 719 270 q 867 250 819 262 q 958 224 916 237 q 975 420 971 302 q 979 677 979 537 l 979 761 l 547 761 q 533 774 533 761 l 533 848 q 547 861 533 861 l 979 861 l 978 1104 q 989 1118 978 1118 l 1067 1118 q 1082 1104 1082 1118 l 1084 861 l 1286 861 q 1299 848 1299 861 l 1299 774 q 1286 761 1299 761 l 1084 761 q 1085 717 1085 741 q 1085 674 1085 693 q 1080 396 1085 521 q 1057 186 1074 271 q 1179 131 1118 161 q 1297 66 1240 100 q 1301 47 1312 58 m 1267 936 l 1213 917 q 1195 925 1199 913 q 1156 1029 1177 975 q 1105 1143 1134 1082 q 1105 1156 1103 1150 q 1114 1164 1107 1161 l 1171 1180 q 1185 1173 1177 1184 q 1276 954 1229 1097 q 1267 936 1280 940 m 1413 982 l 1358 964 q 1339 974 1343 959 q 1255 1184 1314 1066 q 1254 1198 1251 1191 q 1264 1207 1257 1204 l 1318 1223 q 1335 1217 1328 1225 q 1383 1107 1360 1161 q 1424 1000 1405 1054 q 1413 982 1428 986 z "},"ぱ":{"ha":1423,"x_min":183,"x_max":1420,"o":"m 305 15 l 308 -31 q 305 -42 309 -38 q 294 -46 301 -46 l 217 -46 q 203 -34 206 -46 l 199 5 q 192 153 195 66 q 186 336 189 239 q 184 534 184 433 q 184 728 183 635 q 186 898 184 821 q 193 1024 189 975 l 195 1063 q 210 1077 198 1077 l 289 1076 q 302 1059 304 1073 l 298 1016 q 292 892 294 968 q 290 725 290 817 q 290 534 289 633 q 294 338 292 434 q 298 159 296 243 q 305 15 301 75 m 930 129 q 861 151 899 140 q 784 165 823 161 q 707 165 745 170 q 639 142 669 161 q 614 111 618 132 q 615 68 609 92 q 665 27 621 43 q 741 16 701 15 q 819 31 781 18 q 886 69 856 45 q 930 129 916 94 m 1301 47 l 1260 -19 q 1240 -23 1252 -31 q 1135 38 1191 7 q 1028 92 1080 69 q 962 -4 1005 37 q 863 -66 918 -45 q 747 -90 808 -88 q 628 -71 686 -91 q 524 10 555 -45 q 509 133 492 65 q 582 231 524 197 q 671 262 623 255 q 769 266 719 270 q 867 250 819 262 q 958 224 916 237 q 972 420 971 302 q 972 677 972 537 l 972 761 l 547 761 q 533 774 533 761 l 533 848 q 547 861 533 861 l 972 861 l 971 1104 q 985 1118 971 1118 l 1062 1118 q 1077 1104 1077 1118 l 1077 861 l 1286 861 q 1299 848 1299 861 l 1299 774 q 1286 761 1299 761 l 1077 761 q 1078 717 1078 741 q 1078 674 1078 693 q 1076 396 1078 521 q 1057 186 1074 271 q 1179 131 1118 161 q 1297 66 1240 100 q 1301 47 1312 58 m 1355 1074 q 1330 1135 1355 1109 q 1267 1161 1305 1161 q 1206 1135 1232 1161 q 1181 1074 1181 1109 q 1206 1012 1181 1038 q 1268 986 1232 986 q 1331 1012 1306 986 q 1355 1074 1355 1038 m 1420 1074 q 1408 1016 1420 1043 q 1375 968 1396 989 q 1326 936 1354 948 q 1268 924 1298 924 q 1211 935 1238 924 q 1164 967 1184 947 q 1131 1015 1143 987 q 1119 1074 1119 1043 q 1131 1133 1119 1105 q 1164 1180 1143 1160 q 1212 1212 1184 1200 q 1271 1223 1240 1223 q 1328 1212 1301 1223 q 1375 1180 1355 1200 q 1408 1133 1396 1160 q 1420 1074 1420 1105 z "},"ひ":{"ha":1423,"x_min":84,"x_max":1408,"o":"m 99 1005 l 503 1005 q 514 998 511 1005 l 551 926 q 548 913 556 918 q 420 697 469 815 q 355 460 372 579 q 349 367 350 416 q 357 269 347 317 q 388 177 366 221 q 449 100 410 133 q 532 54 486 71 q 627 34 578 37 q 724 43 675 31 q 814 81 773 54 q 983 438 955 175 q 984 671 996 551 q 940 910 972 791 q 947 925 937 918 l 1023 964 q 1038 962 1029 970 q 1202 815 1112 880 q 1394 709 1293 750 q 1402 690 1408 705 l 1371 618 q 1363 611 1369 613 q 1352 612 1358 609 q 1203 692 1272 646 q 1067 796 1134 739 q 1092 612 1082 703 q 1090 426 1101 521 q 873 -4 1055 115 q 752 -57 818 -41 q 620 -70 686 -73 q 490 -43 553 -66 q 378 20 427 -20 q 311 96 338 54 q 269 182 285 137 q 246 274 252 227 q 240 366 240 321 q 292 650 240 513 q 425 907 343 787 q 346 906 392 907 q 245 904 307 905 q 100 901 184 903 q 89 904 94 899 q 84 916 84 909 l 84 991 q 99 1005 84 1005 z "},"び":{"ha":1423,"x_min":84,"x_max":1427,"o":"m 99 1004 l 503 1004 q 514 997 511 1004 l 548 926 q 547 913 555 920 q 420 696 469 815 q 355 458 372 578 q 348 366 349 415 q 357 269 347 317 q 388 176 366 220 q 449 99 410 132 q 532 52 486 68 q 627 33 578 35 q 724 43 675 31 q 814 80 773 54 q 982 437 954 171 q 983 669 994 549 q 940 907 972 788 q 947 922 937 916 l 1021 962 q 1038 959 1031 968 q 1202 812 1111 878 q 1394 707 1293 747 q 1402 688 1408 703 l 1371 617 q 1363 610 1369 612 q 1352 610 1358 608 q 1203 690 1272 644 q 1067 793 1134 736 q 1092 610 1082 701 q 1090 425 1101 519 q 873 -7 1055 113 q 752 -60 818 -43 q 620 -73 686 -76 q 491 -46 553 -69 q 378 19 429 -23 q 311 94 338 53 q 268 180 283 136 q 246 272 252 225 q 240 363 240 319 q 292 648 240 510 q 425 905 343 785 q 346 903 392 905 q 245 901 307 902 q 100 898 184 901 q 89 901 94 897 q 84 913 84 906 l 84 990 q 99 1004 84 1004 m 1282 902 l 1232 869 q 1211 873 1221 861 q 1067 1065 1153 966 q 1073 1089 1058 1081 l 1123 1119 q 1141 1116 1133 1127 q 1208 1034 1172 1084 q 1284 922 1244 985 q 1282 902 1293 913 m 1415 983 l 1363 952 q 1343 958 1350 943 q 1206 1146 1295 1042 q 1201 1160 1200 1153 q 1208 1169 1202 1166 l 1261 1200 q 1278 1198 1271 1204 q 1352 1102 1317 1150 q 1420 1004 1388 1054 q 1415 983 1427 991 z "},"ぴ":{"ha":1423,"x_min":84,"x_max":1420,"o":"m 99 1004 l 503 1004 q 514 997 511 1004 l 548 926 q 547 913 555 920 q 420 697 469 815 q 354 458 370 579 q 348 366 349 415 q 356 268 347 316 q 387 176 365 220 q 449 99 410 132 q 532 53 486 69 q 627 34 578 37 q 724 43 675 31 q 814 80 773 54 q 982 437 954 171 q 983 669 994 549 q 940 907 972 788 q 947 922 937 916 l 1021 962 q 1038 959 1031 968 q 1202 813 1111 878 q 1394 708 1293 749 q 1402 689 1408 704 l 1371 617 q 1363 610 1369 612 q 1352 610 1358 608 q 1203 691 1272 644 q 1066 795 1134 738 q 1092 610 1082 701 q 1090 425 1101 519 q 873 -7 1055 113 q 752 -60 818 -43 q 620 -73 686 -76 q 491 -46 553 -69 q 378 19 429 -23 q 311 95 338 53 q 268 182 283 137 q 246 273 252 227 q 240 365 240 320 q 292 648 240 511 q 425 906 343 785 q 346 905 392 906 q 245 903 307 903 q 100 899 184 902 q 89 903 94 898 q 84 914 84 907 l 84 990 q 99 1004 84 1004 m 1355 1017 q 1331 1079 1355 1054 q 1267 1104 1306 1104 q 1207 1079 1232 1104 q 1183 1017 1183 1054 q 1208 956 1183 981 q 1268 930 1233 930 q 1331 956 1308 930 q 1355 1017 1355 981 m 1420 1017 q 1408 959 1420 986 q 1375 911 1396 932 q 1326 879 1354 891 q 1268 867 1298 867 q 1211 879 1238 867 q 1164 911 1184 891 q 1131 959 1143 932 q 1119 1017 1119 986 q 1131 1076 1119 1048 q 1164 1123 1143 1103 q 1213 1155 1185 1143 q 1271 1166 1240 1166 q 1328 1154 1301 1166 q 1375 1122 1355 1142 q 1408 1074 1396 1101 q 1420 1017 1420 1047 z "},"ふ":{"ha":1423,"x_min":81,"x_max":1354,"o":"m 370 1039 l 403 1101 q 420 1108 408 1114 q 661 1033 536 1055 q 914 1027 787 1010 q 930 1012 928 1027 l 935 941 q 925 929 935 932 q 858 901 894 918 q 789 859 822 884 q 728 800 755 834 q 685 722 700 766 q 675 654 671 685 q 696 593 680 623 q 740 534 712 564 q 802 468 768 505 l 867 399 q 926 311 905 358 q 953 216 948 263 q 946 125 958 170 q 907 47 935 81 q 802 -35 863 -8 q 674 -65 741 -61 q 539 -54 608 -69 q 411 -12 471 -39 q 404 5 399 -7 l 433 68 q 452 76 441 83 q 545 43 495 56 q 646 30 595 30 q 741 47 696 30 q 821 107 787 65 q 850 189 850 144 q 835 262 850 224 q 784 336 819 300 l 719 400 q 667 454 693 426 q 618 515 640 483 q 583 585 597 548 q 570 665 570 621 q 585 749 570 709 q 625 821 600 788 q 684 883 651 854 q 753 936 716 911 q 561 960 655 943 q 378 1019 467 978 q 370 1027 372 1021 q 370 1039 368 1032 m 241 525 l 324 513 q 335 496 338 510 l 328 457 q 321 420 327 454 q 300 334 315 387 q 262 214 286 281 q 205 77 239 146 l 186 42 q 168 37 180 28 l 95 68 q 88 88 81 72 l 104 122 q 156 249 134 186 q 192 362 178 312 q 212 444 206 412 q 218 475 218 475 l 225 514 q 241 525 228 528 m 1341 117 l 1351 79 q 1340 61 1354 65 l 1264 41 q 1246 50 1251 38 l 1234 91 q 1188 221 1214 155 q 1135 346 1165 278 q 1066 476 1104 414 l 1047 509 q 1044 519 1043 514 q 1051 528 1046 525 l 1120 570 q 1132 572 1126 572 q 1141 566 1138 571 l 1161 532 q 1236 392 1203 464 q 1293 260 1270 320 q 1328 161 1316 201 q 1341 117 1340 121 z "},"ぶ":{"ha":1423,"x_min":81,"x_max":1396,"o":"m 370 1038 l 401 1100 q 419 1107 407 1112 q 661 1033 534 1055 q 914 1027 787 1010 q 930 1012 928 1027 l 935 941 q 925 929 935 932 q 859 901 894 918 q 789 859 823 884 q 728 799 755 833 q 685 720 700 765 q 675 652 673 684 q 694 592 678 621 q 736 532 709 563 q 799 467 764 502 l 867 397 q 928 310 906 357 q 954 216 949 263 q 947 125 959 170 q 907 47 935 81 q 802 -35 863 -8 q 674 -65 741 -61 q 539 -54 608 -69 q 411 -12 471 -39 q 404 5 399 -7 l 431 66 q 450 75 439 81 q 544 41 494 54 q 644 29 594 28 q 740 47 694 30 q 819 107 785 65 q 850 189 850 145 q 834 260 850 222 q 783 335 818 298 l 719 399 q 667 454 693 425 q 618 515 640 483 q 583 585 597 548 q 568 665 568 621 q 584 749 568 709 q 625 821 600 788 q 683 883 650 854 q 753 936 716 911 q 562 961 655 943 q 378 1020 468 979 q 370 1038 365 1024 m 241 524 l 323 511 q 334 495 336 509 l 328 457 q 320 417 327 452 q 299 330 313 382 q 262 211 285 277 q 205 77 239 145 l 186 42 q 168 37 180 28 l 95 68 q 85 88 81 72 l 103 122 q 156 250 134 187 q 192 362 178 312 q 212 443 206 412 q 218 475 218 473 l 225 513 q 241 524 228 526 m 1341 115 l 1351 77 q 1340 61 1354 64 l 1263 41 q 1245 52 1248 38 l 1234 88 q 1223 127 1234 90 q 1190 222 1211 165 q 1137 347 1168 279 q 1066 475 1107 415 l 1044 509 q 1050 529 1038 521 l 1120 570 q 1139 566 1131 575 l 1161 530 q 1236 392 1203 464 q 1293 260 1270 320 q 1328 159 1316 199 q 1341 115 1340 119 m 1255 860 l 1203 826 q 1181 830 1192 819 q 1119 924 1154 875 q 1040 1023 1084 972 q 1044 1046 1031 1036 l 1095 1077 q 1111 1076 1104 1082 q 1180 993 1143 1042 q 1257 880 1217 944 q 1255 860 1267 869 m 1388 941 l 1336 910 q 1317 914 1324 903 q 1257 1005 1291 958 q 1177 1104 1222 1053 q 1180 1127 1165 1119 l 1232 1157 q 1249 1154 1241 1162 q 1324 1059 1289 1107 q 1392 963 1359 1012 q 1394 951 1396 958 q 1388 941 1393 945 z "},"ぷ":{"ha":1423,"x_min":81,"x_max":1354,"o":"m 370 1039 l 403 1101 q 420 1108 408 1114 q 661 1033 536 1055 q 914 1027 787 1010 q 930 1012 928 1027 l 935 941 q 925 929 935 932 q 858 901 894 918 q 789 859 822 884 q 728 800 755 834 q 685 722 700 766 q 675 654 671 685 q 696 593 680 623 q 740 534 712 564 q 802 468 768 505 l 867 399 q 926 311 905 358 q 953 216 948 263 q 946 125 958 170 q 907 47 935 81 q 802 -35 863 -8 q 674 -65 741 -61 q 539 -54 608 -69 q 411 -12 471 -39 q 404 5 399 -7 l 433 68 q 452 76 441 83 q 545 43 495 56 q 646 30 595 30 q 741 47 696 30 q 821 107 787 65 q 850 189 850 144 q 835 262 850 224 q 784 336 819 300 l 719 400 q 667 454 693 426 q 618 515 640 483 q 583 585 597 548 q 570 665 570 621 q 585 749 570 709 q 625 821 600 788 q 684 883 651 854 q 753 936 716 911 q 561 960 655 943 q 378 1019 467 978 q 370 1027 372 1021 q 370 1039 368 1032 m 241 525 l 324 513 q 335 496 338 510 l 328 457 q 321 420 327 454 q 300 334 315 387 q 262 214 286 281 q 205 77 239 146 l 186 42 q 168 37 180 28 l 95 68 q 88 88 81 72 l 104 122 q 156 249 134 186 q 192 362 178 312 q 212 444 206 412 q 218 475 218 475 l 225 514 q 241 525 228 528 m 1341 117 l 1351 79 q 1340 61 1354 65 l 1264 41 q 1246 50 1251 38 l 1234 91 q 1188 221 1214 155 q 1135 346 1165 278 q 1066 476 1104 414 l 1047 509 q 1044 519 1043 514 q 1051 528 1046 525 l 1120 570 q 1132 572 1126 572 q 1141 566 1138 571 l 1161 532 q 1236 392 1203 464 q 1293 260 1270 320 q 1328 161 1316 201 q 1341 117 1340 121 m 1238 873 q 1213 936 1238 910 q 1150 962 1188 962 q 1089 936 1115 962 q 1063 873 1063 910 q 1089 811 1063 836 q 1152 787 1115 787 q 1213 811 1188 787 q 1238 873 1238 836 m 1301 873 q 1289 815 1301 842 q 1256 768 1276 788 q 1208 736 1236 747 q 1152 724 1181 724 q 1093 736 1120 724 q 1046 768 1066 747 q 1013 815 1025 788 q 1001 873 1001 842 q 1013 932 1001 905 q 1046 981 1025 960 q 1094 1013 1066 1001 q 1153 1024 1122 1024 q 1210 1012 1183 1024 q 1257 979 1237 1000 q 1289 932 1278 959 q 1301 873 1301 905 z "},"へ":{"ha":1423,"x_min":79,"x_max":1370,"o":"m 738 784 l 1359 117 q 1358 96 1370 106 l 1299 43 q 1280 43 1290 34 l 655 713 q 612 748 635 736 q 566 760 589 760 q 476 712 515 760 l 168 346 q 149 343 161 335 l 84 395 q 79 405 79 399 q 84 416 80 411 l 392 779 q 472 842 427 821 q 564 864 517 863 q 655 844 610 865 q 738 784 700 823 z "},"べ":{"ha":1423,"x_min":75,"x_max":1370,"o":"m 738 783 l 1359 115 q 1358 95 1370 104 l 1299 42 q 1290 37 1295 38 q 1280 42 1284 37 l 655 712 q 566 758 613 761 q 476 709 517 758 l 168 343 q 149 342 161 335 l 84 392 q 84 414 75 401 l 392 776 q 472 840 427 819 q 564 863 517 861 q 655 843 610 864 q 738 783 700 822 m 1185 736 l 1137 703 q 1115 707 1124 694 q 1052 801 1088 753 q 972 901 1016 849 q 977 922 964 914 l 1028 952 q 1036 955 1031 955 q 1043 951 1040 955 q 1113 869 1077 917 q 1191 755 1149 821 q 1185 736 1199 743 m 1320 818 l 1268 787 q 1249 791 1256 777 q 1189 882 1223 834 q 1109 981 1154 929 q 1112 1004 1097 996 l 1164 1034 q 1180 1031 1175 1039 q 1324 838 1260 939 q 1320 818 1332 827 z "},"ぺ":{"ha":1423,"x_min":79,"x_max":1370,"o":"m 738 784 l 1359 115 q 1358 95 1370 104 l 1299 42 q 1290 37 1295 38 q 1280 42 1284 37 l 655 713 q 566 758 613 761 q 476 711 515 758 l 168 345 q 149 342 161 334 l 84 393 q 79 404 79 397 q 84 415 80 410 l 392 777 q 472 840 427 819 q 564 863 517 861 q 655 844 610 864 q 738 784 700 823 m 1225 849 q 1198 910 1225 886 q 1137 935 1172 935 q 1075 910 1100 935 q 1050 849 1050 886 q 1076 786 1050 811 q 1138 761 1101 761 q 1199 786 1173 761 q 1225 849 1225 811 m 1287 849 q 1275 791 1287 818 q 1242 743 1263 764 q 1195 711 1222 723 q 1138 699 1168 699 q 1080 710 1107 699 q 1032 742 1053 722 q 1000 790 1012 762 q 987 849 987 818 q 1000 906 987 879 q 1032 954 1012 933 q 1080 986 1053 974 q 1141 998 1108 998 q 1197 986 1171 998 q 1244 954 1223 974 q 1276 906 1264 933 q 1287 849 1287 879 z "},"ほ":{"ha":1423,"x_min":95,"x_max":1213,"o":"m 217 20 l 220 -22 q 217 -33 221 -28 q 206 -38 213 -38 l 130 -38 q 117 -24 119 -38 l 114 12 q 106 159 110 73 q 99 340 102 244 q 96 538 96 437 q 95 731 95 639 q 98 900 95 823 q 106 1025 100 977 l 110 1063 q 123 1077 113 1077 l 198 1077 q 210 1072 205 1077 q 213 1061 214 1067 l 210 1017 q 205 894 208 970 q 203 728 203 818 q 203 538 202 637 q 205 343 203 438 q 210 164 208 248 q 217 20 213 80 m 841 130 q 772 151 808 141 q 697 165 735 161 q 623 165 659 170 q 556 141 587 160 q 532 111 536 130 q 532 67 526 91 q 582 27 538 43 q 659 16 618 15 q 736 33 699 18 q 800 71 777 47 q 841 130 823 94 m 1208 50 l 1168 -14 q 1150 -18 1161 -26 q 1046 43 1099 14 q 939 96 994 73 q 931 77 935 85 q 924 60 928 68 q 876 -4 906 23 q 808 -49 845 -31 q 730 -75 770 -66 q 651 -84 689 -84 q 570 -75 610 -84 q 496 -43 529 -65 q 444 11 464 -22 q 423 91 423 43 q 442 170 423 137 q 492 224 461 203 q 564 255 524 245 q 644 264 604 264 q 758 251 701 264 q 871 221 815 237 q 893 401 888 309 q 899 582 898 492 l 496 582 q 481 595 481 582 l 481 665 q 496 680 481 680 l 901 680 l 901 928 l 496 928 q 481 941 481 928 l 481 1010 q 496 1025 481 1025 l 1198 1025 q 1211 1010 1211 1025 l 1211 941 q 1198 928 1211 928 l 1001 928 l 1001 680 l 1198 680 q 1211 665 1211 680 l 1211 595 q 1198 582 1211 582 l 1000 582 q 995 382 998 484 q 970 184 991 281 q 1204 69 1090 137 q 1211 61 1210 66 q 1208 50 1213 56 z "},"ぼ":{"ha":1423,"x_min":95,"x_max":1430,"o":"m 214 19 l 217 -23 q 214 -35 218 -30 q 203 -39 210 -39 l 127 -39 q 114 -26 117 -39 l 111 11 q 104 157 107 72 q 98 339 100 243 q 96 536 96 435 q 96 730 95 637 q 99 899 96 822 q 104 1024 102 977 l 107 1062 q 121 1076 110 1076 l 197 1076 q 208 1071 203 1076 q 212 1059 213 1066 l 209 1016 q 204 892 206 968 q 201 726 202 817 q 201 536 201 636 q 203 342 201 437 q 208 163 205 247 q 214 19 210 79 m 837 129 q 769 150 806 140 q 695 164 732 160 q 621 163 658 168 q 555 140 585 159 q 529 110 533 127 q 526 87 526 99 q 531 65 526 76 q 547 44 536 54 q 579 26 557 34 q 658 16 617 14 q 734 31 699 18 q 798 69 774 46 q 837 129 821 92 m 1206 49 l 1166 -14 q 1147 -19 1160 -26 q 1044 42 1097 12 q 936 95 990 72 q 930 75 933 85 q 922 58 926 65 q 852 -22 897 9 q 754 -70 807 -54 q 646 -85 701 -85 q 543 -68 590 -84 q 441 10 472 -43 q 427 132 411 64 q 499 227 444 195 q 587 257 540 251 q 683 259 635 263 q 779 243 731 255 q 868 218 826 232 q 888 372 882 283 q 895 581 894 461 l 494 581 q 479 594 479 581 l 479 663 q 494 678 479 678 l 898 678 l 898 769 l 898 926 l 494 926 q 479 940 479 926 l 479 1009 q 494 1024 479 1024 l 1120 1024 q 1134 1016 1131 1024 l 1157 948 q 1156 933 1160 940 q 1142 926 1152 926 q 1074 928 1114 928 q 1000 926 1035 929 l 1000 769 q 1000 723 1000 746 q 998 678 1000 700 l 1195 678 q 1208 663 1208 678 l 1208 594 q 1195 581 1208 581 l 998 581 q 989 353 996 449 q 968 183 983 256 q 1086 130 1025 160 q 1202 68 1147 100 q 1208 60 1207 65 q 1206 49 1210 54 m 1268 936 l 1214 917 q 1196 925 1200 913 q 1105 1143 1161 1025 q 1115 1164 1097 1158 l 1171 1180 q 1185 1173 1177 1184 q 1278 954 1232 1090 q 1268 936 1282 940 m 1415 982 l 1358 963 q 1340 974 1345 959 q 1255 1184 1316 1069 q 1254 1198 1251 1191 q 1264 1207 1257 1204 l 1320 1223 q 1336 1217 1329 1225 q 1426 1000 1388 1104 q 1415 982 1430 986 z "},"ぽ":{"ha":1423,"x_min":95,"x_max":1420,"o":"m 214 19 l 217 -23 q 214 -35 218 -30 q 203 -39 210 -39 l 127 -39 q 114 -26 117 -39 l 111 11 q 104 157 107 72 q 98 339 100 243 q 96 536 96 435 q 96 730 95 637 q 99 899 96 822 q 104 1024 102 977 l 107 1062 q 121 1076 110 1076 l 197 1076 q 208 1071 203 1076 q 212 1059 213 1066 l 209 1016 q 204 892 206 968 q 201 726 202 817 q 201 536 201 636 q 203 342 201 437 q 208 163 205 247 q 214 19 210 79 m 837 129 q 769 150 806 140 q 695 164 732 160 q 621 163 658 168 q 555 140 585 159 q 529 110 533 127 q 526 87 526 99 q 531 65 526 76 q 547 44 536 54 q 579 26 557 34 q 657 16 616 14 q 734 31 699 18 q 798 69 774 46 q 837 129 821 92 m 1354 1077 q 1329 1139 1354 1114 q 1267 1164 1305 1164 q 1206 1139 1232 1164 q 1181 1077 1181 1114 q 1206 1015 1181 1040 q 1267 989 1232 989 q 1330 1015 1306 989 q 1354 1077 1354 1040 m 1420 1077 q 1408 1019 1420 1046 q 1374 971 1396 991 q 1324 939 1352 951 q 1267 926 1297 926 q 1198 944 1230 926 l 1198 940 q 1183 926 1198 926 l 1000 926 q 1000 802 1000 864 q 998 678 1000 739 l 1195 678 q 1208 663 1208 678 l 1208 594 q 1195 581 1208 581 l 998 581 q 994 381 997 483 q 968 183 990 279 q 1087 131 1029 160 q 1202 68 1145 102 q 1208 60 1207 65 q 1206 49 1210 54 l 1166 -14 q 1147 -19 1160 -26 q 1044 42 1096 12 q 936 95 993 72 q 930 75 933 84 q 922 58 926 66 q 873 -5 903 22 q 806 -50 842 -33 q 728 -77 769 -68 q 648 -85 686 -85 q 568 -76 609 -85 q 495 -45 528 -66 q 442 9 463 -24 q 422 88 422 42 q 441 168 422 134 q 491 222 460 201 q 562 254 522 244 q 643 263 602 263 q 757 250 700 263 q 868 218 814 236 q 890 399 886 308 q 895 581 894 491 l 494 581 q 479 594 479 581 l 479 663 q 494 678 479 678 l 898 678 l 898 926 l 494 926 q 479 940 479 926 l 479 1009 q 494 1024 479 1024 l 1130 1024 q 1118 1077 1118 1048 q 1130 1135 1118 1108 q 1163 1183 1142 1162 q 1211 1215 1184 1203 q 1270 1226 1238 1226 q 1326 1214 1299 1226 q 1375 1181 1354 1202 q 1408 1134 1396 1161 q 1420 1077 1420 1107 z "},"ま":{"ha":1423,"x_min":184,"x_max":1249,"o":"m 690 197 q 614 210 654 205 q 536 215 575 216 q 459 205 496 214 q 389 175 422 195 q 355 140 366 160 q 345 100 345 121 q 364 55 345 72 q 406 31 384 38 q 499 22 450 16 q 589 49 548 28 q 659 109 636 72 q 690 197 681 145 m 1249 910 l 1249 838 q 1234 825 1249 825 l 819 825 l 819 680 l 819 620 l 1165 620 q 1179 605 1179 620 l 1179 536 q 1165 522 1179 522 l 818 522 q 814 382 817 450 q 808 266 812 315 q 998 182 909 232 q 1171 71 1086 133 q 1175 52 1183 62 l 1126 -11 q 1107 -14 1118 -22 q 957 87 1034 39 q 793 167 880 136 q 741 37 779 92 q 632 -52 704 -18 q 503 -85 572 -79 q 370 -71 434 -91 q 272 -5 309 -52 q 235 100 235 41 q 259 191 235 149 q 330 263 283 233 q 417 300 370 289 q 512 314 464 312 q 609 310 560 316 q 703 294 658 304 q 709 399 705 338 q 713 522 712 461 l 269 522 q 254 536 254 522 l 254 605 q 269 620 254 620 l 713 620 l 713 685 l 713 825 l 198 825 q 184 838 184 825 l 184 910 q 198 924 184 924 l 713 924 l 713 1112 q 728 1126 713 1126 l 804 1126 q 818 1112 818 1126 l 819 924 l 1234 924 q 1249 910 1249 924 z "},"み":{"ha":1423,"x_min":132,"x_max":1350,"o":"m 564 486 q 467 470 517 483 q 375 433 418 457 q 300 372 332 408 q 254 288 267 336 q 250 256 250 271 q 275 203 250 222 q 378 197 319 170 q 445 244 415 214 q 497 312 475 274 q 536 394 519 350 q 564 486 552 438 m 1298 484 l 1336 475 q 1347 458 1350 472 l 1329 391 q 1313 380 1326 376 l 1272 389 q 1212 404 1255 393 q 1108 425 1169 414 q 1067 220 1089 309 q 1024 70 1044 132 q 989 -25 1004 8 q 972 -62 974 -58 l 956 -99 q 937 -106 949 -111 l 864 -75 q 856 -56 850 -71 l 872 -20 q 886 12 872 -19 q 918 103 899 43 q 959 249 937 163 q 1000 446 981 335 q 842 469 925 458 q 673 484 758 479 q 639 366 659 423 q 589 258 618 308 q 519 169 559 209 q 426 103 479 129 q 310 79 369 76 q 206 118 251 83 q 146 205 161 153 q 148 315 132 258 q 214 436 168 385 q 321 519 260 487 q 450 567 381 552 q 582 582 518 582 l 585 582 q 594 677 590 625 q 600 781 598 728 q 602 880 601 833 q 602 962 602 928 l 157 962 q 142 975 142 962 l 142 1047 q 157 1061 142 1061 l 697 1061 q 711 1046 711 1061 l 711 985 q 710 898 711 948 q 707 793 709 848 q 701 682 705 738 q 692 578 697 627 q 857 564 774 574 q 1015 540 940 553 q 1029 715 1024 618 q 1035 905 1035 811 l 1035 943 q 1048 958 1035 958 l 1131 958 q 1145 943 1145 958 l 1145 905 q 1139 705 1145 806 q 1122 522 1133 604 q 1234 500 1187 510 q 1298 484 1280 490 z "},"む":{"ha":1423,"x_min":127,"x_max":1343,"o":"m 326 210 q 374 222 355 209 q 402 256 392 235 q 417 301 412 277 q 425 349 422 326 q 425 393 427 370 q 412 434 422 415 q 385 465 403 453 q 340 477 368 477 q 290 458 313 479 q 245 347 250 422 q 246 313 245 335 q 255 268 247 290 q 279 229 263 245 q 326 210 296 212 m 1222 385 l 1232 349 q 1255 173 1260 244 q 1225 56 1249 102 q 1166 -14 1202 9 q 1100 -49 1131 -38 q 1019 -68 1069 -60 q 911 -82 970 -77 q 787 -87 852 -87 q 663 -79 723 -87 q 551 -57 602 -72 q 467 -16 499 -42 q 415 50 427 14 q 400 129 403 85 q 323 107 370 106 q 185 177 235 111 q 141 351 136 243 q 164 456 144 408 q 220 533 184 503 q 345 579 274 581 q 401 566 378 578 q 442 533 425 553 q 458 802 454 677 l 141 802 q 127 815 127 802 l 127 882 q 141 895 127 895 l 461 895 q 463 984 461 939 q 461 1077 464 1029 l 460 1103 q 473 1116 460 1116 l 556 1118 q 570 1104 570 1118 l 570 1078 q 570 986 570 1031 q 570 895 571 941 l 883 895 q 898 882 898 895 l 898 815 q 883 802 898 802 l 566 802 q 552 589 562 696 q 526 380 543 483 q 511 287 519 332 q 499 194 503 241 q 500 122 495 161 q 534 61 506 83 q 640 24 568 35 q 791 14 711 14 q 947 22 872 14 q 1062 45 1021 30 q 1141 136 1127 66 q 1126 320 1156 206 l 1116 357 q 1117 368 1115 363 q 1126 374 1119 373 l 1204 396 q 1222 385 1218 399 m 1051 932 l 1108 977 q 1127 974 1120 985 q 1240 818 1188 898 q 1336 652 1291 738 q 1331 633 1343 640 l 1268 601 q 1257 600 1263 598 q 1249 609 1252 602 q 1156 764 1206 688 q 1050 913 1107 841 q 1051 932 1040 924 z "},"め":{"ha":1423,"x_min":125,"x_max":1317,"o":"m 556 222 q 536 273 551 233 q 500 372 521 312 q 455 509 480 433 q 404 671 430 586 q 331 585 363 632 q 276 487 298 538 q 242 380 254 435 q 232 271 231 326 q 248 197 233 232 q 285 140 262 161 q 357 115 316 113 q 556 222 464 119 m 819 804 q 697 803 758 811 q 583 776 636 795 q 537 758 560 768 q 494 735 514 747 q 530 606 511 669 q 566 487 549 543 q 598 385 583 431 q 624 309 613 339 q 739 544 689 415 q 819 804 788 673 m 1317 406 q 1312 334 1317 370 q 1295 264 1306 298 q 1173 66 1260 149 q 959 -65 1086 -18 l 921 -79 q 903 -71 910 -83 l 878 -1 q 886 16 871 11 l 922 31 q 1035 88 987 56 q 1115 155 1082 121 q 1166 226 1147 190 q 1196 293 1185 262 q 1213 406 1213 347 q 1193 530 1213 469 q 1135 640 1173 590 q 1040 730 1095 693 q 925 785 986 766 q 828 493 888 633 q 690 235 768 353 q 361 12 549 20 q 214 65 278 11 q 151 154 174 100 q 126 269 129 208 q 142 413 125 342 q 191 549 159 484 q 270 670 224 613 q 374 772 316 727 q 345 889 359 830 q 320 1005 331 948 l 312 1042 q 324 1058 309 1055 l 399 1073 q 415 1061 412 1076 l 422 1025 q 443 928 431 978 q 467 830 454 878 q 507 849 487 841 q 548 865 526 857 q 690 898 614 888 q 842 899 765 907 q 856 987 849 943 q 867 1078 863 1032 l 869 1108 q 883 1120 872 1120 l 960 1120 q 975 1104 975 1120 l 971 1069 q 960 973 964 1021 q 945 879 955 925 q 1096 815 1027 856 q 1219 701 1165 774 q 1292 562 1267 639 q 1317 406 1317 486 z "},"も":{"ha":1423,"x_min":163,"x_max":1251,"o":"m 1156 444 l 1236 444 q 1251 429 1251 444 q 1229 239 1249 331 q 1143 68 1208 148 q 994 -49 1082 -5 q 808 -92 906 -92 q 627 -48 712 -92 q 488 75 543 -4 q 429 226 441 146 q 416 388 416 305 l 176 388 q 163 401 163 388 l 163 472 q 176 486 163 486 l 416 486 l 416 761 l 176 761 q 163 774 163 761 l 163 845 q 176 859 163 859 l 416 859 l 416 1101 q 430 1115 416 1115 l 510 1114 q 524 1100 524 1114 l 522 859 l 875 859 q 888 845 888 859 l 888 774 q 875 761 888 761 l 522 761 l 522 486 l 875 486 q 888 472 888 486 l 888 401 q 875 388 888 388 l 522 388 q 530 264 522 326 q 571 148 537 203 q 672 48 609 84 q 808 12 735 12 q 956 50 887 12 q 1072 151 1025 87 q 1128 284 1116 213 q 1142 429 1141 355 q 1156 444 1142 444 z "},"ゃ":{"ha":1423,"x_min":201,"x_max":1225,"o":"m 1221 419 q 1126 246 1213 309 q 898 183 1040 183 l 864 183 q 850 197 850 183 l 850 264 q 864 278 850 278 l 898 278 q 972 285 935 278 q 1042 309 1010 292 q 1097 357 1074 327 q 1123 433 1119 387 q 1108 511 1127 480 q 1057 561 1089 543 q 982 587 1024 579 q 898 595 940 594 l 898 441 q 883 426 898 429 l 814 423 q 799 438 799 420 l 799 593 q 789 592 793 593 q 777 591 784 591 q 655 578 716 585 q 532 566 594 572 q 553 345 543 449 q 571 162 563 240 q 584 37 579 84 q 589 -11 589 -9 l 593 -46 q 581 -61 593 -60 l 509 -68 q 494 -56 494 -71 l 488 -20 q 484 26 488 -19 q 471 151 479 72 q 452 333 463 229 q 431 553 442 437 q 330 538 380 545 q 231 524 281 530 q 214 534 217 521 l 203 595 q 204 607 201 602 q 214 613 208 612 l 248 618 q 332 631 288 625 q 423 643 376 636 q 415 747 419 694 q 407 852 411 800 l 404 887 q 416 903 401 901 l 488 907 q 505 894 502 909 l 507 859 q 524 655 515 758 q 666 671 597 665 q 799 681 735 678 l 799 899 q 812 913 799 913 l 883 913 q 898 899 898 913 l 898 686 q 1047 663 979 688 q 1160 593 1115 637 q 1210 513 1195 557 q 1221 419 1225 469 z "},"や":{"ha":1423,"x_min":75,"x_max":1336,"o":"m 1259 707 q 1318 612 1299 665 q 1331 498 1336 559 q 1217 288 1320 362 q 936 213 1114 213 l 898 213 q 883 227 883 213 l 883 297 q 898 311 883 311 q 983 313 939 311 q 1068 328 1027 316 q 1145 361 1109 339 q 1202 422 1180 382 q 1225 541 1233 479 q 1169 647 1217 604 q 1057 709 1122 690 q 928 724 993 727 l 928 521 q 914 507 928 507 l 834 507 q 821 521 821 507 l 821 718 q 652 703 741 712 q 472 684 563 694 q 498 408 486 538 q 520 180 510 278 q 536 23 530 81 q 543 -37 543 -35 l 547 -76 q 534 -92 548 -90 l 454 -99 q 439 -85 439 -99 l 435 -47 q 429 12 435 -46 q 413 168 423 71 q 389 395 403 266 q 362 670 376 525 q 249 652 304 661 q 144 637 194 644 l 106 632 q 90 643 92 629 l 77 711 q 90 728 75 726 l 127 734 q 236 749 179 741 q 354 766 293 758 q 345 899 347 833 q 332 1032 342 966 l 327 1069 q 340 1086 327 1084 l 422 1092 q 438 1080 435 1095 l 441 1040 q 450 909 445 974 q 463 779 456 844 q 648 800 556 791 q 821 814 739 808 l 821 1078 q 834 1092 821 1092 l 914 1092 q 928 1078 928 1092 l 928 818 q 930 819 929 818 q 932 819 930 819 q 1118 793 1034 822 q 1259 707 1203 764 z "},"ゅ":{"ha":1423,"x_min":258,"x_max":1191,"o":"m 1055 282 q 1083 347 1074 312 q 1091 419 1092 382 q 1079 492 1090 456 q 1046 556 1067 528 q 948 633 1006 608 q 827 663 890 658 q 825 378 830 507 q 815 156 821 250 q 953 193 888 163 q 1055 282 1017 222 m 1137 235 q 994 112 1082 153 q 808 65 906 71 q 802 -10 804 16 q 799 -38 799 -37 l 795 -72 q 779 -84 792 -84 l 715 -76 q 703 -61 703 -76 l 708 -24 q 709 -1 708 -15 q 712 26 711 9 q 716 66 713 43 q 627 84 670 72 q 545 114 585 96 l 517 126 q 510 148 503 133 l 538 203 q 559 210 545 216 l 589 194 q 653 170 618 179 q 724 157 688 161 q 734 378 730 250 q 736 663 739 507 l 731 663 q 728 662 728 662 q 591 621 655 654 q 477 536 526 587 q 397 421 429 486 q 358 283 366 357 l 354 247 l 354 239 q 340 225 354 225 l 273 225 q 258 239 258 225 l 258 760 q 273 773 258 773 l 339 773 q 354 758 354 773 l 346 488 q 410 585 372 540 q 496 665 449 631 q 600 723 544 700 q 718 753 655 746 q 727 753 723 753 q 735 754 731 754 q 732 821 734 788 q 730 888 731 854 l 728 925 q 741 939 726 939 l 804 941 q 819 928 819 944 l 821 892 q 824 823 823 857 q 826 754 825 789 q 989 713 909 747 q 1123 606 1069 680 q 1171 518 1154 566 q 1189 422 1187 471 q 1178 325 1191 373 q 1137 235 1165 277 z "},"ゆ":{"ha":1423,"x_min":132,"x_max":1279,"o":"m 818 1120 l 819 1082 q 823 991 822 1036 q 826 903 825 947 q 930 888 878 899 q 1031 856 982 878 q 1123 802 1080 834 q 1200 724 1166 770 q 1256 616 1237 674 q 1277 500 1275 559 q 1263 382 1279 441 q 1214 273 1248 324 q 1038 121 1147 171 q 804 65 928 71 q 795 -31 799 3 q 792 -66 792 -65 l 788 -106 q 772 -118 785 -118 l 694 -109 q 682 -94 682 -109 l 688 -54 q 690 -22 688 -53 q 699 68 693 9 q 589 90 643 75 q 487 126 536 106 l 454 140 q 446 149 448 142 q 448 161 444 155 l 480 224 q 500 231 487 236 l 533 214 q 616 184 571 195 q 705 167 661 172 q 718 444 712 281 q 722 803 724 608 l 716 803 q 713 802 713 802 q 538 749 620 791 q 394 645 457 708 q 291 501 331 582 q 243 330 251 420 l 239 283 l 239 278 q 225 264 239 264 l 146 264 q 132 278 132 264 l 132 913 q 146 926 132 926 l 225 926 q 239 913 239 926 l 239 587 q 428 798 308 715 q 703 901 548 882 q 711 902 707 902 q 720 902 716 902 q 718 989 719 945 q 713 1077 716 1032 l 712 1119 q 715 1131 711 1126 q 727 1135 720 1135 l 803 1135 q 818 1120 815 1135 m 1126 328 q 1162 410 1150 366 q 1173 497 1175 453 q 1157 584 1172 541 q 1115 663 1142 627 q 986 765 1063 732 q 827 804 909 798 q 825 444 830 608 q 811 164 819 279 q 991 211 907 171 q 1126 328 1076 251 z "},"ょ":{"ha":1423,"x_min":254,"x_max":1095,"o":"m 620 151 q 514 163 567 163 q 465 159 492 163 q 412 144 437 155 q 371 116 388 134 q 354 71 354 98 q 363 39 354 52 q 386 20 372 27 q 417 9 400 12 q 449 5 434 5 q 494 12 471 5 q 539 28 518 18 q 578 56 560 39 q 604 94 595 73 q 614 121 610 107 q 620 151 617 134 m 1095 674 l 1095 602 q 1081 589 1095 589 l 742 589 l 742 473 q 740 342 742 408 q 731 212 738 277 q 903 139 821 180 q 1059 42 985 98 q 1065 33 1065 39 q 1062 22 1066 26 l 1020 -34 q 1000 -37 1015 -43 q 863 52 935 11 q 715 121 792 92 q 708 90 712 106 q 697 60 704 75 q 656 -5 682 23 q 597 -54 631 -34 q 526 -83 564 -73 q 449 -94 487 -94 q 378 -83 412 -94 q 315 -52 343 -72 q 271 -1 288 -31 q 254 71 254 30 q 278 154 254 119 q 340 210 302 189 q 422 241 377 231 q 509 251 468 251 q 570 248 540 251 q 632 237 601 244 q 639 355 637 296 q 640 472 640 414 q 636 692 640 583 q 627 913 632 802 q 640 928 627 925 l 712 932 q 728 918 726 932 q 733 802 731 860 q 738 688 735 745 l 1081 688 q 1095 674 1095 688 z "},"よ":{"ha":1423,"x_min":221,"x_max":1236,"o":"m 674 199 q 518 217 593 218 q 387 184 444 216 q 345 146 359 170 q 330 98 330 122 q 336 62 330 83 q 373 26 343 42 q 449 7 406 8 q 536 22 492 5 q 610 65 579 38 q 654 125 640 92 q 674 199 666 156 m 1236 836 l 1236 765 q 1222 751 1236 751 l 806 751 q 806 669 806 711 q 807 593 807 628 q 804 414 807 495 q 793 271 800 334 q 1006 180 905 235 q 1202 57 1108 126 q 1204 38 1211 50 l 1156 -24 q 1137 -27 1149 -37 q 964 84 1053 34 q 777 170 876 134 q 766 121 772 142 q 754 81 761 99 q 685 -12 732 28 q 572 -76 637 -53 q 439 -97 506 -99 q 321 -66 373 -95 q 248 2 274 -41 q 221 98 221 45 q 252 199 221 153 q 334 274 282 244 q 500 319 408 316 q 688 298 591 321 q 696 431 693 358 q 699 594 699 505 q 693 823 699 699 q 684 1093 688 947 l 682 1137 q 685 1147 681 1143 q 696 1152 689 1152 l 774 1152 q 791 1139 788 1152 l 792 1100 q 798 970 795 1031 q 803 850 802 909 l 1222 850 q 1236 836 1236 850 z "},"ら":{"ha":1423,"x_min":243,"x_max":1180,"o":"m 316 859 l 323 899 q 328 909 323 906 q 339 910 332 911 l 419 895 q 430 879 434 892 l 423 842 q 405 732 414 788 q 389 624 396 677 q 374 523 381 571 q 362 437 368 475 q 563 540 454 505 q 788 576 671 575 q 883 570 834 576 q 977 549 932 564 q 1062 509 1023 534 q 1130 442 1101 483 q 1171 342 1161 395 q 1169 236 1180 289 q 1126 136 1158 183 q 1044 53 1095 88 q 924 -13 987 12 q 800 -53 861 -38 q 685 -73 739 -68 q 593 -80 631 -79 l 548 -81 q 537 -79 541 -83 q 533 -68 533 -75 l 533 5 q 547 19 533 19 l 587 20 q 670 28 623 22 q 770 47 718 34 q 878 81 823 60 q 981 137 932 103 q 1030 186 1009 157 q 1060 248 1051 214 q 1065 316 1069 281 q 1039 384 1061 351 q 975 440 1015 420 q 889 468 935 460 q 796 475 844 476 q 709 469 749 475 q 520 416 608 456 q 354 311 433 376 q 342 309 350 307 l 251 349 q 243 362 243 353 q 253 430 245 381 q 271 546 260 479 q 293 694 281 613 q 316 859 305 774 m 350 1084 l 365 1156 q 382 1166 369 1168 q 903 1023 652 1115 q 911 1002 916 1016 l 883 933 q 865 925 878 920 q 617 1006 742 971 q 361 1066 492 1040 q 350 1084 347 1070 z "},"り":{"ha":1423,"x_min":266,"x_max":1142,"o":"m 282 1100 l 363 1100 q 378 1086 378 1100 l 378 639 q 377 585 378 612 q 378 530 376 557 q 382 492 378 514 q 403 458 387 469 q 428 452 414 452 q 457 458 442 453 q 486 469 472 463 q 513 483 500 476 q 532 477 525 490 l 564 410 q 557 392 570 397 q 490 364 525 377 q 422 349 456 351 q 357 359 388 347 q 301 407 326 372 q 277 460 283 431 q 268 520 270 490 q 267 581 266 551 q 269 639 269 610 l 269 1086 q 282 1100 269 1100 m 1142 1101 l 1142 899 q 1139 603 1142 749 q 1109 328 1135 457 q 1023 92 1082 198 q 850 -88 963 -15 l 815 -110 q 796 -106 804 -117 l 750 -41 q 754 -20 742 -30 l 787 1 q 928 159 878 65 q 1000 368 978 252 q 1027 617 1023 483 q 1031 898 1031 751 l 1031 1101 q 1044 1115 1031 1115 l 1127 1115 q 1142 1101 1142 1115 z "},"る":{"ha":1423,"x_min":199,"x_max":1210,"o":"m 788 31 q 742 82 768 56 q 686 130 716 109 q 626 163 656 151 q 566 172 595 176 q 491 123 502 165 q 518 72 484 92 q 565 52 536 61 q 630 36 594 42 q 707 28 666 30 q 788 31 747 27 m 1210 321 q 1164 143 1210 217 q 1046 22 1119 69 q 884 -47 974 -24 q 703 -69 793 -69 q 604 -62 659 -69 q 500 -36 549 -56 q 418 20 452 -16 q 384 113 384 56 q 401 181 384 151 q 445 233 418 212 q 506 264 472 254 q 575 275 540 275 q 668 256 623 275 q 754 204 713 236 q 829 134 795 172 q 890 58 864 95 q 1044 153 986 90 q 1103 321 1103 216 q 1072 442 1103 395 q 993 517 1042 490 q 882 555 944 544 q 757 566 819 566 q 671 559 713 566 q 586 540 628 552 q 496 500 536 525 q 420 446 456 476 q 353 380 385 415 q 285 309 320 346 q 266 309 275 300 l 210 359 q 210 381 199 370 l 807 970 l 343 970 q 330 983 330 970 l 330 1053 q 343 1066 330 1066 l 921 1066 q 928 1063 925 1066 l 978 1016 q 978 996 987 1005 l 581 625 q 792 656 685 656 q 949 638 873 656 q 1082 579 1024 620 q 1175 475 1139 538 q 1210 321 1210 411 z "},"れ":{"ha":1423,"x_min":64,"x_max":1359,"o":"m 1322 61 l 1356 -12 q 1357 -23 1359 -18 q 1350 -31 1355 -28 l 1314 -49 q 1277 -65 1298 -57 q 1232 -78 1256 -73 q 1181 -80 1207 -83 q 1127 -62 1154 -77 q 1086 -27 1101 -49 q 1062 18 1070 -5 q 1051 64 1054 41 q 1048 104 1048 87 l 1048 772 q 1032 799 1048 789 q 1004 803 1020 806 q 972 789 987 800 q 741 618 868 719 q 458 377 613 518 l 458 -62 q 445 -76 458 -76 l 366 -76 q 353 -62 353 -76 l 353 278 q 270 196 312 239 q 182 111 228 153 l 152 83 q 132 83 140 75 l 75 140 q 75 160 64 151 l 103 187 q 231 310 168 254 q 353 419 294 366 l 353 812 l 110 812 q 96 826 96 812 l 96 895 q 110 910 96 910 l 353 910 l 353 1109 q 366 1123 353 1123 l 445 1123 q 458 1109 458 1123 l 458 910 l 519 910 q 533 895 533 910 l 533 826 q 519 812 533 812 l 458 812 l 458 514 q 704 724 591 633 q 910 878 817 815 q 998 911 952 906 q 1084 894 1044 916 q 1139 844 1119 876 q 1160 772 1160 811 l 1160 111 q 1161 91 1160 103 q 1165 66 1162 79 q 1172 45 1168 54 q 1181 33 1176 35 q 1215 30 1195 24 q 1267 50 1236 35 l 1305 68 q 1322 61 1314 73 z "},"ろ":{"ha":1423,"x_min":203,"x_max":1207,"o":"m 1031 604 q 1127 526 1088 571 q 1187 427 1166 480 q 1207 314 1207 373 q 1185 195 1207 255 q 1115 80 1161 127 q 1009 2 1069 33 q 881 -44 949 -28 q 742 -62 812 -60 q 604 -56 671 -65 q 477 -30 536 -47 l 442 -18 q 431 0 429 -14 l 454 71 q 471 79 457 84 l 509 69 q 668 45 579 50 q 840 55 757 39 q 991 113 924 71 q 1086 231 1058 155 q 1087 393 1118 316 q 975 517 1057 469 q 853 562 922 548 q 713 570 784 575 q 576 544 642 566 q 461 481 510 522 q 372 397 414 442 q 288 309 330 353 q 269 309 278 300 l 213 361 q 213 382 203 370 q 509 673 357 528 q 804 966 661 819 l 349 966 q 334 979 334 966 l 334 1050 q 347 1063 334 1063 l 922 1063 q 930 1059 928 1063 l 979 1008 q 979 989 989 998 l 604 640 q 708 664 654 656 q 817 668 762 671 q 926 649 872 665 q 1031 604 981 633 z "},"わ":{"ha":1423,"x_min":73,"x_max":1316,"o":"m 1291 250 q 1219 115 1267 172 q 1109 19 1171 58 q 980 -44 1048 -20 q 846 -77 911 -68 l 808 -83 q 793 -71 793 -83 l 783 3 q 795 18 783 18 l 831 23 q 940 50 884 31 q 1045 99 996 68 q 1134 175 1095 130 q 1192 281 1173 220 q 1206 402 1211 342 q 1175 515 1200 463 q 1106 610 1150 568 q 1004 674 1062 651 q 855 702 928 703 q 715 678 783 701 q 583 612 647 655 q 460 514 518 568 l 460 -61 q 446 -75 460 -75 l 370 -75 q 357 -61 357 -75 l 357 403 q 267 290 309 347 q 189 178 225 233 l 168 146 q 149 141 160 134 l 84 183 q 80 205 73 191 l 102 235 q 145 296 119 260 q 203 373 171 332 q 273 458 235 414 q 357 545 312 502 l 357 811 l 114 811 q 100 825 100 811 l 100 892 q 114 907 100 907 l 357 907 l 357 1116 q 370 1131 357 1131 l 446 1131 q 460 1116 460 1131 l 460 907 l 521 907 q 534 892 534 907 l 534 825 q 521 811 534 811 l 460 811 l 460 640 q 588 726 521 688 q 728 784 655 764 q 880 802 802 804 q 1042 768 959 800 q 1177 683 1119 738 q 1269 558 1236 628 q 1309 408 1302 488 q 1291 250 1316 328 z "},"を":{"ha":1423,"x_min":222,"x_max":1192,"o":"m 1192 966 l 1192 895 q 1177 882 1192 882 l 602 882 q 551 743 578 812 q 498 606 525 673 q 590 623 540 617 q 688 613 640 628 q 771 565 738 597 q 826 494 804 533 q 999 525 920 514 q 1122 538 1078 536 l 1160 541 q 1175 529 1175 544 l 1181 456 q 1169 441 1184 444 q 1015 427 1090 434 q 863 404 940 419 q 881 304 878 350 q 884 240 884 259 l 884 205 q 871 190 884 190 l 795 190 q 780 205 780 190 l 780 240 q 776 307 780 270 q 762 380 772 343 q 627 327 694 359 q 517 244 560 294 q 487 164 483 206 q 519 101 491 126 q 591 60 547 76 q 691 37 635 45 q 806 28 747 30 q 924 27 865 26 q 1034 31 983 28 l 1096 34 q 1109 19 1109 34 l 1114 -54 q 1111 -64 1115 -61 q 1100 -68 1107 -68 l 1036 -71 q 908 -75 978 -73 q 768 -71 838 -76 q 630 -54 697 -66 q 510 -14 563 -41 q 423 54 457 12 q 384 156 389 95 q 437 309 376 240 q 561 401 484 363 q 726 467 637 439 q 695 505 712 488 q 655 529 678 522 q 597 536 628 538 q 536 527 566 534 q 480 509 506 519 q 439 490 454 498 q 425 491 431 484 l 365 540 q 361 555 358 544 q 380 600 366 568 q 413 676 395 632 q 452 773 431 720 q 494 882 473 826 l 236 882 q 222 895 222 882 l 222 966 q 236 979 222 979 l 529 979 q 548 1034 538 1008 q 564 1088 557 1061 l 572 1122 q 578 1131 574 1128 q 590 1133 583 1134 l 662 1114 q 671 1107 669 1112 q 673 1096 674 1103 q 656 1038 665 1066 q 637 979 647 1009 l 1177 979 q 1192 966 1192 979 z "},"ん":{"ha":1423,"x_min":184,"x_max":1314,"o":"m 1238 160 l 1303 118 q 1308 98 1314 110 q 1253 29 1282 61 q 1183 -24 1223 -3 q 1091 -58 1139 -49 q 994 -61 1043 -68 q 939 -46 970 -57 q 876 -10 907 -35 q 814 58 844 15 q 766 165 785 100 q 701 297 743 250 q 605 347 659 345 q 536 333 568 349 q 475 292 503 317 q 425 235 448 266 q 387 178 403 205 q 333 67 354 125 q 290 -49 312 9 q 274 -57 285 -61 l 199 -35 q 190 -16 184 -31 q 297 278 241 133 q 411 568 353 423 q 523 840 467 705 q 642 1108 579 975 q 659 1115 647 1120 l 731 1085 q 738 1065 743 1078 q 583 720 656 894 q 439 368 509 545 q 522 425 480 406 q 612 444 564 445 q 768 376 701 439 q 868 194 834 313 q 888 142 876 168 q 917 96 899 117 q 957 60 935 75 q 1009 41 979 45 q 1075 43 1044 35 q 1131 68 1105 52 q 1179 107 1157 84 q 1219 156 1200 130 q 1238 160 1227 167 z "},"ゔ":{"ha":1423,"x_min":194,"x_max":1428,"o":"m 452 1066 l 469 1143 q 486 1154 473 1156 q 718 1100 604 1131 q 943 1024 833 1069 q 951 1004 955 1017 l 920 932 q 902 925 914 920 q 686 998 795 968 q 463 1050 578 1027 q 452 1066 448 1053 m 1153 446 q 1110 295 1147 369 q 1007 155 1073 221 q 848 31 941 88 q 637 -71 755 -26 l 597 -85 q 579 -77 585 -91 l 548 -1 q 557 18 543 12 l 595 34 q 826 151 739 90 q 960 271 913 213 q 1022 376 1006 328 q 1040 454 1038 425 q 1015 580 1044 521 q 925 673 985 639 q 791 713 869 704 q 628 713 713 722 q 454 681 543 704 q 290 625 366 658 l 251 609 q 233 616 239 602 l 199 686 q 208 705 194 701 l 245 722 q 427 783 328 757 q 625 819 526 810 q 817 816 724 827 q 981 764 910 804 q 1114 629 1067 715 q 1153 446 1160 544 m 1282 860 l 1230 826 q 1210 830 1218 819 q 1145 924 1181 875 q 1066 1023 1109 972 q 1072 1046 1057 1038 l 1122 1078 q 1139 1076 1133 1084 q 1207 993 1171 1042 q 1284 880 1244 944 q 1282 860 1294 869 m 1413 941 l 1363 910 q 1343 916 1351 903 q 1285 1006 1320 959 q 1204 1104 1251 1053 q 1199 1118 1198 1111 q 1207 1127 1200 1124 l 1260 1158 q 1276 1156 1271 1164 q 1352 1060 1317 1108 q 1419 963 1386 1012 q 1413 941 1428 951 z "},"゛":{"ha":1423,"x_min":35,"x_max":396,"o":"m 251 901 l 201 867 q 180 871 190 859 q 117 963 152 916 q 39 1061 83 1010 q 36 1074 35 1067 q 43 1085 37 1081 l 94 1115 q 110 1112 103 1122 q 177 1030 141 1078 q 254 920 213 982 q 258 909 258 916 q 251 901 258 903 m 384 981 l 334 949 q 322 947 328 945 q 313 954 316 948 q 175 1143 263 1040 q 171 1156 170 1149 q 179 1166 172 1162 l 229 1195 q 245 1192 239 1199 q 321 1097 286 1145 q 388 1001 357 1048 q 384 981 396 990 z "},"゜":{"ha":1423,"x_min":9,"x_max":309,"o":"m 247 1065 q 222 1127 247 1101 q 159 1153 197 1153 q 98 1127 123 1153 q 72 1065 72 1101 q 98 1004 72 1029 q 160 979 123 979 q 222 1004 197 979 q 247 1065 247 1029 m 309 1065 q 297 1006 309 1034 q 264 959 285 979 q 217 927 244 939 q 160 916 190 916 q 102 927 129 916 q 54 959 75 939 q 22 1006 34 979 q 9 1065 9 1034 q 22 1123 9 1096 q 54 1171 34 1150 q 102 1202 75 1191 q 163 1214 130 1214 q 219 1202 193 1214 q 266 1171 245 1191 q 298 1123 286 1150 q 309 1065 309 1096 z "},"ァ":{"ha":1423,"x_min":285,"x_max":1206,"o":"m 298 852 l 1149 852 q 1156 849 1153 852 l 1198 800 q 1200 784 1206 795 q 1056 572 1139 669 q 859 400 972 476 q 841 401 850 395 l 795 453 q 798 475 783 465 q 950 606 883 534 q 1069 757 1017 677 l 300 757 q 285 770 285 757 l 285 837 q 298 852 285 852 m 739 681 l 739 647 q 732 475 739 563 q 705 302 726 388 q 646 137 685 217 q 543 -11 608 57 l 519 -37 q 500 -37 511 -45 l 448 8 q 446 30 435 19 l 468 53 q 557 182 524 111 q 610 328 591 252 q 634 485 628 404 q 640 647 640 566 l 640 681 q 654 694 640 694 l 726 694 q 739 681 739 694 z "},"ア":{"ha":1423,"x_min":144,"x_max":1310,"o":"m 157 1020 l 1237 1020 q 1244 1017 1241 1020 l 1302 974 q 1306 956 1310 967 q 1109 683 1221 811 q 863 457 997 555 q 844 458 853 452 l 788 518 q 791 540 779 530 q 916 643 864 595 q 1008 735 967 690 q 1083 825 1048 780 q 1154 921 1118 871 l 159 921 q 144 935 144 921 l 144 1005 q 157 1020 144 1020 m 713 821 l 713 783 q 705 569 713 678 q 669 353 696 460 q 595 145 643 245 q 468 -42 547 45 l 442 -71 q 422 -71 434 -80 l 363 -18 q 362 3 353 -9 l 389 31 q 500 194 460 106 q 564 379 541 282 q 593 578 586 476 q 601 783 601 681 l 601 821 q 616 834 601 834 l 700 834 q 713 821 713 834 z "},"ィ":{"ha":1423,"x_min":224,"x_max":1119,"o":"m 1059 941 l 1109 891 q 1109 872 1119 882 l 1084 846 q 1064 828 1084 846 q 1008 779 1044 810 q 920 705 971 747 q 806 613 869 663 l 806 -54 q 792 -68 806 -68 l 715 -68 q 701 -54 701 -68 l 701 533 q 518 404 616 469 q 317 273 420 338 l 288 252 q 269 258 275 245 l 231 317 q 236 338 224 331 l 269 357 q 557 549 422 450 q 793 730 692 648 q 953 863 894 811 q 1015 917 1012 916 l 1040 941 q 1059 941 1050 951 z "},"イ":{"ha":1423,"x_min":160,"x_max":1230,"o":"m 1165 1120 l 1221 1065 q 1221 1044 1230 1054 q 1132 964 1176 1001 q 1044 890 1088 926 q 955 817 1001 853 q 860 743 909 781 l 860 -72 q 846 -85 860 -85 l 765 -85 q 751 -72 751 -85 l 751 656 q 492 477 624 563 q 225 311 361 392 q 206 315 213 304 l 164 384 q 161 395 160 389 q 168 403 163 400 q 661 724 427 555 q 1115 1095 895 894 l 1146 1122 q 1165 1120 1156 1130 z "},"ゥ":{"ha":1423,"x_min":294,"x_max":1143,"o":"m 764 806 l 1124 806 q 1141 788 1143 806 q 1024 363 1101 570 q 834 -35 947 156 q 815 -41 827 -47 l 750 -3 q 745 16 738 4 q 908 350 840 178 q 1017 707 977 522 l 400 707 l 400 439 q 387 425 400 425 l 308 425 q 294 439 294 425 l 294 792 q 308 806 294 806 l 658 806 l 658 970 q 673 983 658 983 l 750 983 q 764 970 764 983 l 764 806 z "},"ウ":{"ha":1423,"x_min":206,"x_max":1252,"o":"m 766 913 l 1234 913 q 1249 895 1252 913 q 1126 393 1211 632 q 914 -79 1042 155 q 894 -85 907 -92 l 821 -49 q 815 -30 808 -42 q 1003 379 926 174 q 1122 811 1080 585 l 316 811 l 316 475 q 302 460 316 460 l 220 460 q 206 473 206 460 l 206 899 q 220 913 206 913 l 654 913 l 654 1119 q 669 1134 654 1134 l 753 1134 q 766 1119 766 1134 l 766 913 z "},"ェ":{"ha":1423,"x_min":206,"x_max":1207,"o":"m 1207 98 l 1207 19 q 1194 5 1207 5 l 220 5 q 206 19 206 5 l 206 98 q 220 111 206 111 l 651 111 l 651 654 l 406 655 q 392 670 392 655 l 392 746 q 406 760 392 760 l 1057 760 q 1072 746 1072 760 l 1072 669 q 1057 654 1072 654 l 761 654 l 761 111 l 1194 111 q 1207 98 1207 111 z "},"エ":{"ha":1423,"x_min":103,"x_max":1324,"o":"m 1324 129 l 1324 53 q 1310 39 1324 39 l 117 39 q 103 53 103 39 l 103 129 q 117 142 103 142 l 656 142 l 656 834 l 285 834 q 271 849 271 834 l 271 924 q 285 937 271 937 l 1143 937 q 1157 924 1157 937 l 1157 848 q 1143 833 1157 833 l 769 834 l 769 142 l 1310 142 q 1324 129 1324 142 z "},"ォ":{"ha":1423,"x_min":286,"x_max":1150,"o":"m 1150 716 l 1150 648 q 1137 635 1150 635 l 901 635 l 901 -41 q 886 -54 901 -54 l 811 -54 q 798 -41 798 -54 l 798 519 q 724 428 765 477 q 631 326 682 378 q 519 222 581 274 q 388 121 458 170 l 357 100 q 338 104 347 92 l 290 161 q 288 172 286 165 q 294 182 289 179 l 324 201 q 489 327 415 262 q 620 451 563 392 q 715 558 677 510 q 774 635 754 606 l 312 635 q 298 648 298 635 l 298 716 q 312 731 298 731 l 798 731 l 798 930 q 811 944 798 944 l 886 944 q 901 930 901 944 l 901 731 l 1137 731 q 1150 716 1150 731 z "},"オ":{"ha":1423,"x_min":202,"x_max":1263,"o":"m 1263 876 l 1263 803 q 1249 789 1263 789 l 951 789 l 951 -43 q 937 -57 951 -57 l 853 -57 q 838 -43 838 -57 l 838 659 q 751 552 803 612 q 633 426 700 492 q 484 290 566 359 q 305 156 401 221 l 271 132 q 251 136 259 125 l 208 201 q 204 212 202 206 q 210 221 206 217 l 243 243 q 456 404 361 321 q 622 561 551 487 q 741 695 693 635 q 812 789 789 755 l 231 789 q 217 803 217 789 l 217 876 q 231 890 217 890 l 838 890 l 838 1145 q 853 1158 838 1158 l 937 1158 q 951 1145 951 1158 l 951 890 l 1249 890 q 1263 876 1263 890 z "},"カ":{"ha":1423,"x_min":176,"x_max":1225,"o":"m 667 831 l 1210 831 q 1221 827 1217 831 q 1223 817 1225 823 q 1047 -81 1188 355 q 1031 -91 1043 -95 l 951 -66 q 940 -49 936 -62 q 1041 336 1001 144 q 1103 728 1081 529 l 643 728 q 541 332 597 524 q 407 -53 486 141 q 389 -60 401 -66 l 315 -33 q 305 -12 300 -27 q 433 353 380 171 q 536 728 486 534 l 190 728 q 176 742 176 728 l 176 818 q 190 831 176 831 l 562 831 q 585 982 572 913 q 610 1131 597 1051 q 625 1143 610 1143 l 705 1131 q 715 1126 712 1131 q 716 1115 718 1122 q 705 1042 711 1077 q 694 974 700 1008 q 682 905 688 940 q 667 831 675 871 z "},"ガ":{"ha":1423,"x_min":174,"x_max":1409,"o":"m 666 830 l 1207 830 q 1218 826 1214 830 q 1221 815 1222 822 q 1044 -81 1187 357 q 1027 -92 1040 -96 l 947 -66 q 937 -49 933 -62 q 1040 335 1000 141 q 1100 728 1080 529 l 640 728 q 539 332 595 524 q 404 -54 483 141 q 387 -61 399 -68 l 311 -34 q 302 -14 298 -27 q 431 352 377 171 q 530 728 484 533 l 187 728 q 174 742 174 728 l 174 817 q 187 830 174 830 l 553 830 q 568 908 562 871 q 582 981 575 945 q 595 1053 589 1017 q 608 1130 601 1089 q 624 1142 609 1142 l 704 1130 q 713 1125 711 1130 q 715 1114 716 1120 q 692 973 704 1038 q 666 830 681 909 m 1268 917 l 1217 883 q 1206 880 1211 879 q 1198 887 1200 882 q 1134 981 1169 933 q 1055 1081 1099 1029 q 1059 1103 1047 1093 l 1109 1134 q 1127 1133 1120 1139 q 1195 1050 1158 1099 q 1272 937 1232 1001 q 1268 917 1280 926 m 1401 998 l 1350 967 q 1331 972 1337 959 q 1192 1160 1284 1058 q 1196 1183 1179 1173 l 1248 1214 q 1264 1211 1259 1219 q 1339 1116 1305 1164 q 1405 1020 1374 1067 q 1408 1008 1409 1015 q 1401 998 1407 1002 z "},"キ":{"ha":1423,"x_min":157,"x_max":1268,"o":"m 1268 425 l 1268 351 q 1255 338 1268 338 l 880 338 q 920 147 899 241 q 963 -45 940 53 q 951 -61 966 -58 l 869 -79 q 853 -68 856 -83 q 808 134 830 34 q 766 338 787 235 l 171 338 q 157 351 157 338 l 157 425 q 171 439 157 439 l 746 439 q 716 604 731 524 q 690 754 701 684 l 213 754 q 198 768 198 754 l 198 842 q 213 856 198 856 l 673 856 q 652 981 662 920 q 632 1107 642 1043 q 644 1122 632 1122 l 728 1135 q 745 1123 742 1138 q 764 989 754 1055 q 787 856 774 922 l 1211 856 q 1225 842 1225 856 l 1225 768 q 1211 754 1225 754 l 804 754 q 829 604 815 684 q 859 439 844 524 l 1255 439 q 1268 425 1268 439 z "},"ギ":{"ha":1423,"x_min":156,"x_max":1415,"o":"m 1267 425 l 1267 350 q 1253 336 1267 336 l 879 336 q 918 146 898 240 q 962 -45 939 52 q 949 -61 964 -58 l 868 -79 q 852 -68 854 -83 q 806 134 829 34 q 765 336 784 233 l 170 336 q 156 350 156 336 l 156 425 q 170 439 156 439 l 745 439 q 715 603 730 524 q 689 753 700 682 l 212 753 q 197 766 197 753 l 197 841 q 212 854 197 854 l 671 854 q 631 1107 648 981 q 642 1122 628 1122 l 726 1135 q 741 1122 741 1135 q 762 988 751 1054 q 784 854 773 922 l 1210 854 q 1223 841 1223 854 l 1223 766 q 1210 753 1223 753 l 803 753 q 828 602 814 682 q 859 439 842 521 l 1253 439 q 1267 425 1267 439 m 1272 917 l 1221 883 q 1210 880 1215 879 q 1202 887 1204 882 q 1138 981 1173 933 q 1059 1081 1103 1029 q 1063 1103 1051 1093 l 1114 1134 q 1131 1133 1124 1139 q 1199 1050 1162 1099 q 1276 937 1236 1001 q 1272 917 1284 926 m 1407 997 l 1355 967 q 1344 964 1350 963 q 1336 971 1339 966 q 1276 1063 1310 1015 q 1198 1160 1241 1111 q 1192 1173 1191 1166 q 1200 1183 1194 1180 l 1252 1214 q 1268 1211 1263 1219 q 1344 1116 1309 1164 q 1411 1019 1379 1067 q 1413 1007 1415 1013 q 1407 997 1412 1001 z "},"ク":{"ha":1423,"x_min":159,"x_max":1297,"o":"m 1233 891 l 1286 857 q 1291 842 1297 852 q 1187 588 1248 712 q 1052 346 1126 464 q 894 117 978 228 q 720 -99 810 5 q 701 -100 713 -107 l 636 -47 q 635 -26 625 -38 q 788 162 712 64 q 932 365 864 260 q 1059 578 1000 469 q 1162 796 1118 686 l 486 796 q 374 635 434 719 q 252 479 313 551 q 243 475 250 475 q 232 477 237 475 l 170 530 q 168 552 159 540 q 388 835 288 688 q 567 1145 488 982 q 585 1152 572 1157 l 659 1116 q 668 1109 666 1114 q 667 1099 670 1104 q 611 994 640 1042 q 551 892 582 945 l 1227 892 q 1233 891 1232 892 z "},"グ":{"ha":1423,"x_min":184,"x_max":1415,"o":"m 1188 879 l 1240 846 q 1246 839 1245 844 q 1246 830 1248 834 q 1141 578 1202 700 q 1008 340 1081 456 q 851 115 935 224 q 677 -99 768 5 q 656 -100 669 -107 l 593 -47 q 591 -26 582 -38 q 745 161 670 64 q 887 359 819 258 q 1013 568 955 461 q 1116 785 1072 674 l 510 785 q 399 629 458 708 q 278 479 340 551 q 256 477 270 471 l 195 530 q 194 552 184 540 q 593 1145 435 825 q 612 1152 600 1157 l 686 1115 q 693 1097 701 1109 q 635 987 666 1042 q 574 880 605 933 l 1181 880 q 1188 879 1185 880 m 1274 922 l 1222 888 q 1211 886 1217 884 q 1203 892 1206 887 q 1059 1086 1147 985 q 1063 1108 1050 1101 l 1115 1139 q 1133 1138 1126 1145 q 1200 1055 1164 1104 q 1278 943 1237 1006 q 1274 922 1286 932 m 1407 1004 l 1355 972 q 1336 978 1343 964 q 1278 1068 1313 1021 q 1198 1166 1244 1115 q 1202 1191 1187 1180 l 1253 1219 q 1270 1217 1264 1225 q 1345 1122 1310 1171 q 1411 1025 1379 1074 q 1413 1014 1415 1020 q 1407 1004 1412 1008 z "},"ケ":{"ha":1423,"x_min":119,"x_max":1321,"o":"m 1321 867 l 1321 799 q 1308 785 1321 785 l 1015 785 q 871 334 967 545 q 640 -83 776 122 q 623 -88 633 -95 l 552 -43 q 547 -22 540 -35 q 629 106 591 43 q 701 235 667 170 q 766 368 735 300 q 823 511 796 435 q 867 646 846 575 q 902 785 887 718 l 425 785 q 324 623 377 704 q 210 465 271 541 q 190 464 201 456 l 126 513 q 120 522 121 515 q 123 532 119 528 q 321 805 229 663 q 469 1103 412 947 l 483 1141 q 502 1149 490 1153 l 578 1120 q 586 1103 590 1116 q 538 990 564 1046 q 484 880 513 935 l 1308 880 q 1321 867 1321 880 z "},"ゲ":{"ha":1423,"x_min":114,"x_max":1415,"o":"m 1318 856 l 1318 788 q 1305 773 1318 773 l 997 773 q 939 543 974 654 q 856 327 903 433 q 751 119 808 221 q 625 -84 693 18 q 606 -90 617 -95 l 536 -45 q 532 -23 524 -35 q 614 106 575 43 q 687 234 652 170 q 752 366 722 298 q 810 510 783 434 q 884 773 857 639 l 422 773 q 322 616 374 693 q 210 465 270 538 q 190 463 202 453 l 125 513 q 123 532 114 521 q 320 804 228 662 q 468 1101 412 945 l 481 1141 q 500 1149 488 1153 l 578 1120 q 586 1101 591 1116 q 536 984 563 1044 q 481 869 510 924 l 1305 869 q 1318 856 1318 869 m 1274 925 l 1222 891 q 1202 895 1210 884 q 1139 990 1175 943 q 1059 1089 1103 1038 q 1063 1111 1050 1104 l 1115 1142 q 1133 1141 1126 1147 q 1200 1058 1164 1107 q 1276 945 1236 1009 q 1274 925 1284 936 m 1407 1006 l 1355 975 q 1336 979 1343 968 q 1276 1070 1310 1023 q 1198 1168 1241 1118 q 1200 1192 1183 1183 l 1251 1222 q 1267 1219 1260 1229 q 1343 1124 1308 1172 q 1411 1028 1379 1076 q 1413 1017 1415 1023 q 1407 1006 1412 1010 z "},"コ":{"ha":1423,"x_min":263,"x_max":1229,"o":"m 1229 945 l 1229 37 q 1215 22 1229 22 l 289 22 q 275 37 275 22 l 275 110 q 289 123 275 123 l 1115 123 l 1115 861 l 277 861 q 263 875 263 861 l 263 945 q 277 960 263 960 l 1215 960 q 1229 945 1229 960 z "},"ゴ":{"ha":1423,"x_min":267,"x_max":1417,"o":"m 1150 929 l 1150 34 q 1137 19 1150 19 l 292 19 q 278 34 278 19 l 278 107 q 292 121 278 121 l 1036 121 l 1036 845 l 281 845 q 267 859 267 845 l 267 929 q 281 943 267 943 l 1137 943 q 1150 929 1150 943 m 1259 939 l 1203 918 q 1184 926 1191 914 q 1095 1143 1153 1024 q 1093 1156 1090 1150 q 1103 1165 1096 1162 l 1161 1181 q 1176 1175 1168 1185 q 1221 1080 1199 1135 q 1267 956 1242 1025 q 1259 939 1271 944 m 1405 983 l 1348 964 q 1331 975 1336 960 q 1245 1188 1305 1067 q 1244 1201 1241 1195 q 1255 1210 1246 1207 l 1310 1225 q 1325 1218 1320 1229 q 1373 1109 1351 1162 q 1415 1001 1396 1057 q 1415 990 1417 994 q 1405 983 1412 986 z "},"サ":{"ha":1423,"x_min":92,"x_max":1328,"o":"m 1328 800 l 1328 727 q 1314 712 1328 712 l 1051 712 q 1028 490 1044 602 q 981 270 1012 377 q 916 88 954 176 q 830 -85 878 0 q 822 -94 827 -92 q 811 -94 817 -96 l 738 -56 q 732 -37 724 -49 q 812 128 776 45 q 873 301 848 212 q 918 505 902 400 q 940 712 933 609 l 472 712 l 472 308 q 458 294 472 294 l 374 294 q 361 308 361 294 l 361 712 l 106 712 q 92 727 92 712 l 92 800 q 106 814 92 814 l 361 814 l 361 1119 q 374 1134 361 1134 l 458 1134 q 472 1119 472 1134 l 472 814 l 944 814 q 945 916 945 865 q 945 1016 945 966 l 945 1120 q 960 1135 945 1135 l 1043 1135 q 1057 1120 1057 1135 l 1057 1016 q 1057 916 1057 966 q 1055 814 1057 865 l 1314 814 q 1328 800 1328 814 z "},"ザ":{"ha":1423,"x_min":91,"x_max":1420,"o":"m 1326 799 l 1326 727 q 1313 712 1326 712 l 1050 712 q 1027 488 1043 601 q 979 270 1010 376 q 914 88 952 176 q 829 -85 876 0 q 810 -94 822 -99 l 736 -56 q 731 -37 723 -49 q 810 127 774 45 q 872 300 846 210 q 917 505 902 401 q 939 712 932 609 l 471 712 l 471 308 q 457 294 471 294 l 374 294 q 361 308 361 294 l 361 712 l 104 712 q 91 727 91 712 l 91 799 q 104 812 91 812 l 361 812 l 361 1119 q 374 1134 361 1134 l 457 1134 q 471 1119 471 1134 l 471 812 l 943 812 q 944 914 944 864 q 944 1015 944 964 l 944 1119 q 959 1134 944 1134 l 1042 1134 q 1055 1119 1055 1134 l 1055 1015 q 1055 914 1055 964 q 1054 812 1055 864 l 1313 812 q 1326 799 1326 812 m 1259 894 l 1204 875 q 1185 883 1192 871 q 1096 1101 1152 985 q 1095 1114 1093 1108 q 1104 1122 1097 1119 l 1161 1139 q 1176 1133 1169 1142 q 1221 1038 1199 1093 q 1267 911 1244 982 q 1259 894 1272 899 m 1405 940 l 1350 921 q 1332 930 1336 917 q 1297 1030 1317 978 q 1245 1143 1276 1082 q 1244 1156 1241 1150 q 1255 1165 1248 1162 l 1310 1181 q 1326 1175 1320 1183 q 1373 1065 1351 1119 q 1415 959 1396 1012 q 1405 940 1420 945 z "},"シ":{"ha":1423,"x_min":164,"x_max":1314,"o":"m 210 690 l 583 576 q 593 559 597 572 l 567 480 q 551 472 563 469 l 178 587 q 168 605 164 591 l 193 682 q 210 690 198 694 m 1227 913 l 1303 876 q 1309 857 1314 869 q 934 324 1154 556 q 411 -61 713 92 q 392 -54 399 -66 l 354 18 q 359 38 347 31 q 838 389 629 176 q 1191 869 1046 601 l 1210 906 q 1227 913 1215 918 m 720 868 l 690 804 q 673 798 685 792 q 472 877 572 841 q 270 947 372 913 q 262 966 255 952 l 285 1031 q 301 1039 290 1043 q 508 967 406 1004 q 712 887 610 930 q 720 868 727 882 z "},"ジ":{"ha":1423,"x_min":151,"x_max":1419,"o":"m 195 690 l 570 576 q 579 559 583 572 l 553 480 q 536 472 549 469 l 164 587 q 155 605 151 591 l 179 682 q 195 690 184 694 m 1195 849 l 1270 812 q 1275 793 1282 806 q 1107 519 1198 643 q 910 292 1017 396 q 676 102 803 189 q 397 -61 549 16 q 378 -54 384 -66 l 340 18 q 346 38 334 31 q 597 185 480 107 q 814 357 713 263 q 1000 561 914 450 q 1157 806 1085 671 l 1176 842 q 1195 849 1181 854 m 707 868 l 677 804 q 658 798 670 792 q 458 877 559 841 q 255 947 358 913 q 247 966 241 951 l 271 1031 q 288 1039 277 1043 q 494 967 392 1004 q 699 887 597 930 q 707 868 712 883 m 1272 917 l 1221 883 q 1200 887 1208 876 q 1134 987 1169 939 q 1059 1081 1099 1035 q 1063 1104 1050 1095 l 1115 1134 q 1123 1136 1118 1137 q 1131 1133 1128 1135 q 1208 1038 1175 1088 q 1276 937 1242 989 q 1272 917 1284 926 m 1407 998 l 1355 967 q 1336 971 1343 960 q 1270 1069 1305 1023 q 1198 1161 1236 1116 q 1193 1175 1192 1168 q 1200 1184 1194 1181 l 1252 1214 q 1268 1211 1263 1219 q 1342 1118 1308 1166 q 1411 1020 1377 1069 q 1407 998 1419 1008 z "},"ス":{"ha":1423,"x_min":187,"x_max":1305,"o":"m 1268 43 l 1294 14 q 1293 -7 1305 3 l 1232 -60 q 1213 -58 1222 -68 q 985 178 1101 65 q 742 397 869 292 q 514 157 632 271 q 271 -64 396 42 q 251 -62 260 -72 l 197 -1 q 198 19 187 11 q 618 426 423 206 q 963 892 812 646 l 252 892 q 237 907 237 892 l 237 982 q 251 996 237 996 l 1063 996 q 1069 994 1067 996 l 1118 963 q 1122 944 1127 958 q 979 705 1058 822 q 810 477 899 589 q 983 328 901 403 q 1127 190 1065 252 q 1227 87 1190 127 q 1268 43 1265 47 z "},"ズ":{"ha":1423,"x_min":187,"x_max":1419,"o":"m 1267 41 l 1294 11 q 1293 -9 1305 0 l 1230 -62 q 1211 -61 1221 -71 q 985 176 1100 62 q 742 395 869 289 q 513 155 632 270 q 271 -65 395 39 q 250 -64 259 -73 l 197 -3 q 198 18 187 9 q 616 424 422 203 q 963 891 811 644 l 252 891 q 237 906 237 891 l 237 979 q 251 993 237 993 l 1062 993 q 1067 991 1066 993 l 1116 960 q 1120 941 1126 955 q 977 703 1057 818 q 808 475 898 587 q 981 325 899 400 q 1126 187 1063 250 q 1225 85 1188 125 q 1267 41 1263 45 m 1274 916 l 1222 883 q 1211 880 1217 879 q 1203 887 1206 882 q 1136 987 1172 939 q 1061 1080 1100 1035 q 1063 1103 1050 1093 l 1115 1134 q 1133 1131 1124 1139 q 1210 1037 1176 1086 q 1278 936 1244 987 q 1274 916 1286 925 m 1407 998 l 1355 967 q 1344 964 1350 963 q 1336 971 1339 966 q 1272 1069 1306 1023 q 1198 1160 1237 1116 q 1202 1183 1184 1173 l 1253 1214 q 1270 1211 1263 1218 q 1344 1118 1309 1165 q 1411 1019 1379 1070 q 1407 998 1419 1006 z "},"セ":{"ha":1423,"x_min":119,"x_max":1280,"o":"m 1217 836 l 1270 803 q 1275 788 1280 798 q 1178 572 1233 682 q 1062 363 1123 461 q 1044 359 1055 353 l 977 400 q 970 408 971 403 q 972 419 968 414 q 1061 574 1020 495 q 1138 734 1103 654 l 507 669 l 507 255 q 547 119 507 165 q 685 54 587 73 q 780 47 718 47 q 911 48 842 46 q 1044 54 979 50 q 1145 61 1108 58 l 1184 64 q 1200 52 1198 65 l 1206 -30 q 1192 -45 1208 -42 l 1152 -46 q 1110 -49 1142 -46 q 1034 -54 1078 -52 q 937 -58 990 -56 q 833 -62 884 -61 q 737 -60 783 -62 q 662 -52 692 -57 q 572 -26 618 -43 q 486 26 525 -8 q 421 115 446 60 q 396 255 396 171 l 396 656 q 312 648 355 654 q 231 640 275 644 q 142 631 186 635 q 127 643 130 628 l 121 712 q 133 728 119 726 l 396 754 l 396 1108 q 410 1122 396 1122 l 494 1122 q 507 1108 507 1122 l 507 766 l 1210 837 q 1217 836 1215 837 z "},"ゼ":{"ha":1423,"x_min":118,"x_max":1419,"o":"m 1217 834 l 1268 802 q 1274 787 1279 796 q 1177 570 1232 681 q 1061 362 1122 460 q 1043 358 1054 351 l 975 399 q 968 407 970 401 q 971 418 967 412 q 1059 572 1019 494 q 1137 732 1100 651 q 1038 723 1105 730 q 884 707 971 716 q 699 687 798 697 q 506 667 600 677 l 506 255 q 547 119 506 164 q 684 54 587 73 q 779 47 716 47 q 909 48 841 46 q 1042 54 978 50 q 1142 61 1105 58 l 1183 64 q 1199 50 1196 65 l 1204 -30 q 1192 -45 1207 -42 l 1150 -47 q 1109 -51 1141 -49 q 1033 -56 1077 -53 q 936 -60 989 -58 q 832 -62 883 -62 q 736 -60 781 -62 q 661 -52 690 -58 q 570 -26 617 -43 q 484 24 524 -9 q 420 114 445 58 q 395 255 395 170 l 395 655 q 311 647 354 652 q 229 638 274 643 q 141 629 184 633 q 126 642 129 627 l 118 712 q 130 728 118 726 l 395 754 l 395 1107 q 408 1120 395 1120 l 491 1120 q 506 1107 506 1120 l 506 765 l 1210 837 q 1217 834 1214 837 m 1272 916 l 1222 883 q 1202 887 1211 875 q 1135 985 1171 937 q 1059 1080 1099 1034 q 1063 1103 1050 1093 l 1115 1134 q 1133 1131 1124 1139 q 1208 1037 1175 1086 q 1276 936 1242 987 q 1272 916 1284 925 m 1407 997 l 1355 967 q 1344 964 1350 963 q 1336 971 1339 966 q 1271 1069 1306 1023 q 1198 1160 1236 1116 q 1192 1173 1191 1166 q 1200 1183 1194 1180 l 1252 1214 q 1268 1211 1263 1219 q 1343 1118 1308 1165 q 1411 1019 1378 1070 q 1407 997 1419 1006 z "},"ソ":{"ha":1423,"x_min":122,"x_max":1299,"o":"m 132 935 l 194 986 q 213 985 205 994 q 356 817 289 903 q 486 640 423 731 q 481 620 494 629 l 412 576 q 395 581 401 570 q 269 751 334 669 q 130 914 203 833 q 132 935 122 925 m 1176 990 l 1191 1031 q 1208 1039 1194 1044 l 1287 1012 q 1297 1005 1294 1009 q 1297 994 1299 1001 q 1173 701 1242 841 q 1020 432 1104 562 q 836 182 936 302 q 618 -54 735 61 q 598 -54 609 -64 l 537 4 q 537 24 526 14 q 671 163 609 95 q 789 303 734 232 q 897 451 845 374 q 997 614 948 528 q 1095 798 1048 704 q 1176 990 1142 892 z "},"ゾ":{"ha":1423,"x_min":119,"x_max":1417,"o":"m 480 632 l 411 589 q 393 593 400 582 q 267 763 332 681 q 129 925 202 845 q 130 945 119 937 l 193 998 q 213 997 202 1008 q 356 829 289 916 q 484 652 423 743 q 480 632 492 642 m 1130 875 l 1210 849 q 1218 830 1223 845 q 1099 562 1158 680 q 968 343 1040 445 q 806 144 897 241 q 594 -66 715 46 q 575 -66 585 -76 l 514 -8 q 514 12 503 1 q 713 207 627 114 q 871 399 800 300 q 999 611 941 498 q 1112 867 1057 724 q 1130 875 1118 879 m 1274 930 l 1222 898 q 1202 902 1211 888 q 1135 1002 1171 954 q 1059 1096 1099 1050 q 1063 1118 1050 1111 l 1116 1147 q 1124 1149 1119 1150 q 1133 1146 1130 1149 q 1208 1052 1175 1101 q 1276 949 1242 1002 q 1274 930 1284 941 m 1407 1012 l 1355 981 q 1336 986 1344 974 q 1271 1084 1306 1038 q 1198 1173 1236 1130 q 1200 1198 1183 1188 l 1252 1227 q 1268 1225 1261 1234 q 1342 1133 1308 1181 q 1411 1034 1377 1084 q 1407 1012 1417 1023 z "},"タ":{"ha":1423,"x_min":122,"x_max":1268,"o":"m 1265 891 l 1257 868 q 1240 825 1256 864 q 1194 722 1225 787 q 1117 569 1164 656 q 1008 380 1070 481 q 1067 351 1038 365 q 1124 321 1096 336 q 1131 301 1137 315 l 1096 237 q 1077 231 1089 225 q 1017 263 1046 245 q 958 296 987 281 q 652 -104 821 90 q 633 -106 646 -113 l 570 -53 q 564 -43 564 -49 q 568 -33 563 -37 q 722 151 647 58 q 864 343 798 243 q 696 420 781 384 q 525 496 610 457 q 517 505 518 499 q 519 518 515 511 l 559 581 q 576 585 564 591 q 746 507 662 547 q 914 427 830 468 q 987 553 955 492 q 1046 666 1020 613 q 1092 762 1073 719 q 1124 837 1111 806 l 490 837 q 435 755 467 802 q 370 663 404 709 q 302 574 336 616 q 240 503 269 532 l 212 473 q 203 469 209 469 q 193 472 197 468 l 132 524 q 130 544 122 533 q 352 829 252 682 q 530 1138 452 975 q 548 1145 537 1149 l 625 1109 q 632 1092 637 1104 l 616 1057 l 616 1054 q 595 1019 612 1048 q 551 941 578 989 l 1202 941 q 1207 940 1206 941 l 1260 907 q 1265 891 1268 903 z "},"ダ":{"ha":1423,"x_min":122,"x_max":1428,"o":"m 1196 890 l 1188 868 q 1171 825 1185 864 q 1125 720 1156 785 q 1049 568 1095 655 q 941 378 1004 480 q 1001 350 971 363 q 1059 321 1031 336 q 1067 313 1066 319 q 1065 301 1067 307 l 1029 236 q 1009 231 1023 224 q 950 264 979 247 q 890 296 921 281 q 745 91 821 190 q 586 -106 670 -8 q 567 -107 579 -114 l 503 -54 q 502 -34 491 -45 q 655 149 579 57 q 799 342 731 241 q 629 419 715 382 q 458 495 544 456 q 450 504 452 498 q 453 517 449 510 l 494 579 q 510 585 499 589 q 680 506 595 547 q 848 425 764 465 q 979 665 928 556 q 1058 837 1031 774 l 486 837 q 377 676 438 764 q 241 503 316 589 l 216 472 q 195 471 206 463 l 133 524 q 132 544 122 532 q 353 828 252 681 q 530 1137 453 975 q 548 1143 537 1147 l 624 1108 q 631 1089 637 1104 l 614 1054 q 594 1021 613 1051 q 547 940 575 990 l 1135 940 q 1141 939 1139 940 l 1191 906 q 1196 899 1195 903 q 1196 890 1198 894 m 1297 930 l 1248 898 q 1226 902 1236 888 q 1162 995 1198 947 q 1084 1095 1127 1043 q 1088 1116 1074 1109 l 1139 1147 q 1156 1146 1149 1153 q 1301 949 1218 1080 q 1297 930 1309 939 m 1420 1006 l 1367 975 q 1347 981 1355 968 q 1210 1169 1299 1067 q 1214 1194 1198 1184 l 1265 1222 q 1282 1219 1276 1227 q 1357 1124 1322 1172 q 1424 1028 1392 1077 q 1427 1017 1428 1023 q 1420 1006 1426 1010 z "},"チ":{"ha":1423,"x_min":126,"x_max":1301,"o":"m 1301 591 l 1301 517 q 1287 503 1301 503 l 817 503 q 815 481 815 492 q 814 460 815 471 q 768 179 800 316 q 678 -92 736 42 q 659 -99 670 -104 l 585 -69 q 576 -50 571 -65 q 665 222 635 81 q 708 503 696 362 l 140 503 q 126 517 126 503 l 126 591 q 140 605 126 605 l 715 605 q 719 758 718 681 q 720 911 720 836 q 542 878 631 892 q 363 852 453 864 q 347 864 349 852 l 338 935 q 349 949 335 949 q 722 1013 537 977 q 1088 1107 906 1050 q 1104 1099 1099 1111 l 1127 1029 q 1119 1010 1134 1015 q 975 970 1047 989 q 829 935 902 952 q 828 770 829 853 q 823 605 827 686 l 1287 605 q 1301 591 1301 605 z "},"ヂ":{"ha":1423,"x_min":126,"x_max":1331,"o":"m 1301 591 l 1301 517 q 1287 503 1301 503 l 817 503 q 815 481 815 492 q 814 460 815 471 q 768 179 800 316 q 678 -92 736 42 q 659 -100 671 -104 l 583 -69 q 576 -50 570 -65 q 666 222 636 81 q 708 503 696 362 l 140 503 q 126 517 126 503 l 126 591 q 140 605 126 605 l 715 605 q 719 758 718 681 q 720 911 720 836 q 542 878 631 892 q 363 852 453 864 q 347 864 349 852 l 336 935 q 347 949 334 949 q 721 1013 537 977 q 1086 1107 905 1050 q 1103 1099 1097 1111 l 1126 1029 q 1118 1010 1133 1015 q 974 970 1046 989 q 829 935 902 952 q 827 770 829 853 q 823 605 826 686 l 1287 605 q 1301 591 1301 605 m 1169 677 l 1114 656 q 1096 667 1100 652 q 1057 772 1080 718 q 1006 883 1035 826 q 1006 897 1004 890 q 1016 906 1008 903 l 1073 922 q 1088 916 1081 925 q 1177 694 1131 836 q 1169 677 1181 682 m 1317 724 l 1260 704 q 1241 715 1246 700 q 1207 815 1229 762 q 1156 928 1185 868 q 1155 941 1152 935 q 1165 949 1158 947 l 1219 966 q 1236 959 1229 967 q 1284 848 1263 902 q 1325 741 1306 795 q 1317 724 1331 727 z "},"ッ":{"ha":1423,"x_min":254,"x_max":1221,"o":"m 269 772 l 335 796 q 353 789 347 802 q 412 648 384 719 q 468 506 441 578 q 460 487 473 491 l 392 465 q 373 473 382 461 q 318 614 346 545 q 259 753 290 684 q 269 772 254 766 m 1099 817 l 1108 852 q 1126 861 1112 864 l 1207 842 q 1217 823 1221 837 q 1012 349 1139 574 q 703 -65 884 123 q 684 -65 693 -75 l 621 -15 q 620 4 610 -5 q 909 381 784 175 q 1099 817 1034 587 m 551 871 l 625 903 q 643 895 639 909 q 779 591 719 746 q 770 572 785 578 l 693 547 q 675 556 681 544 q 614 705 646 631 q 544 852 582 779 q 551 871 538 865 z "},"ツ":{"ha":1423,"x_min":129,"x_max":1322,"o":"m 1199 979 l 1210 1017 q 1227 1027 1214 1029 l 1308 1004 q 1317 986 1322 1001 q 1075 422 1222 684 q 705 -69 928 160 q 686 -69 696 -79 l 627 -14 q 625 7 616 -5 q 748 144 692 76 q 854 283 804 212 q 949 431 905 354 q 1036 591 993 507 q 1126 783 1084 686 q 1199 979 1169 879 m 381 629 l 392 597 q 384 579 399 585 l 315 555 q 297 563 302 549 l 285 595 q 273 627 283 600 q 243 698 262 654 q 201 800 225 742 q 148 921 176 857 l 133 951 q 141 971 129 964 l 209 998 q 227 991 221 1004 l 241 960 q 299 834 274 894 q 342 729 324 774 q 371 656 361 684 q 381 629 381 629 m 765 742 l 779 704 q 770 685 784 692 l 693 656 q 675 665 682 652 l 661 703 q 618 808 640 757 q 576 899 595 860 q 543 962 556 939 q 530 986 530 986 l 513 1023 q 518 1042 506 1035 l 593 1078 q 612 1072 606 1084 l 631 1035 q 646 1008 632 1032 q 679 943 659 983 q 722 850 699 902 q 765 742 745 798 z "},"ヅ":{"ha":1423,"x_min":127,"x_max":1428,"o":"m 380 628 l 392 595 q 384 576 397 581 l 313 553 q 297 562 302 549 l 285 594 q 274 621 285 594 q 245 691 263 647 q 202 794 227 735 q 148 920 178 853 l 133 949 q 140 970 127 963 l 208 997 q 225 990 220 1002 l 240 959 q 298 833 273 892 q 341 728 323 773 q 370 655 359 682 q 380 628 380 628 m 1169 872 l 1249 850 q 1259 831 1264 846 q 1157 566 1207 682 q 1046 347 1107 449 q 906 147 985 245 q 718 -64 827 49 q 699 -64 708 -73 l 639 -8 q 637 12 628 0 q 763 147 707 83 q 865 275 819 212 q 949 402 911 338 q 1022 538 987 467 q 1088 689 1057 609 q 1153 864 1119 769 q 1169 872 1158 876 m 764 742 l 779 703 q 770 684 785 689 l 692 654 q 674 662 681 650 l 659 701 q 617 807 640 755 q 575 898 594 859 q 543 961 556 937 q 529 985 529 985 l 510 1020 q 517 1040 502 1032 l 591 1077 q 612 1072 605 1082 l 631 1034 q 644 1006 632 1031 q 676 941 656 982 q 719 849 696 901 q 764 742 742 798 m 1286 925 l 1236 891 q 1215 895 1223 884 q 1147 995 1183 947 q 1073 1089 1111 1043 q 1069 1102 1067 1096 q 1077 1111 1070 1108 l 1127 1142 q 1145 1139 1138 1147 q 1222 1046 1187 1096 q 1290 944 1257 996 q 1286 925 1298 933 m 1420 1006 l 1367 975 q 1347 981 1355 967 q 1283 1078 1318 1031 q 1210 1168 1248 1124 q 1213 1192 1198 1183 l 1265 1222 q 1282 1219 1276 1227 q 1356 1126 1320 1173 q 1424 1028 1392 1078 q 1427 1017 1428 1023 q 1420 1006 1426 1010 z "},"テ":{"ha":1423,"x_min":156,"x_max":1280,"o":"m 170 682 l 1267 682 q 1280 669 1280 682 l 1280 593 q 1267 579 1280 579 l 829 579 q 814 408 826 494 q 777 240 802 321 q 710 71 751 149 q 610 -80 669 -7 q 590 -83 602 -92 l 525 -33 q 522 -12 515 -24 q 599 100 566 43 q 655 225 632 156 q 698 399 684 309 q 715 579 712 490 l 170 579 q 156 593 156 579 l 156 669 q 170 682 156 682 m 1124 1021 l 1124 947 q 1111 933 1124 933 l 316 933 q 302 947 302 933 l 302 1021 q 316 1035 302 1035 l 1111 1035 q 1124 1021 1124 1035 z "},"デ":{"ha":1423,"x_min":155,"x_max":1415,"o":"m 168 681 l 1265 681 q 1279 667 1279 681 l 1279 591 q 1265 578 1279 578 l 827 578 q 812 406 825 492 q 776 239 799 320 q 708 70 750 148 q 609 -81 666 -8 q 589 -84 601 -94 l 524 -35 q 518 -26 518 -33 q 521 -15 518 -20 q 598 98 564 41 q 654 222 632 155 q 696 398 682 308 q 713 578 711 488 l 168 578 q 155 591 155 578 l 155 667 q 168 681 155 681 m 1078 1020 l 1078 944 q 1063 930 1078 930 l 315 930 q 301 944 301 930 l 301 1020 q 315 1034 301 1034 l 1063 1034 q 1078 1020 1078 1034 m 1274 917 l 1222 883 q 1202 887 1210 876 q 1059 1081 1143 979 q 1063 1103 1051 1093 l 1114 1134 q 1131 1133 1124 1139 q 1199 1050 1162 1099 q 1276 937 1236 1001 q 1274 917 1284 928 m 1407 998 l 1355 967 q 1336 971 1343 960 q 1276 1063 1310 1015 q 1198 1161 1242 1111 q 1202 1184 1184 1175 l 1252 1214 q 1268 1211 1263 1219 q 1344 1116 1309 1164 q 1411 1020 1379 1067 q 1413 1008 1415 1015 q 1407 998 1412 1002 z "},"ト":{"ha":1423,"x_min":419,"x_max":1190,"o":"m 1139 457 l 1176 444 q 1184 425 1190 437 l 1158 351 q 1139 343 1152 339 q 838 452 987 399 q 532 553 688 506 l 532 -56 q 518 -69 532 -69 l 433 -69 q 419 -56 419 -69 l 419 1105 q 433 1119 419 1119 l 518 1119 q 532 1105 532 1119 l 532 656 q 766 584 655 620 q 959 520 876 548 q 1090 475 1042 492 q 1139 457 1138 457 z "},"ド":{"ha":1423,"x_min":419,"x_max":1190,"o":"m 1139 457 l 1176 444 q 1184 425 1190 437 l 1158 351 q 1139 343 1152 339 q 838 452 987 399 q 532 553 688 506 l 532 -56 q 518 -69 532 -69 l 433 -69 q 419 -56 419 -69 l 419 1105 q 433 1119 419 1119 l 518 1119 q 532 1105 532 1119 l 532 656 q 766 584 655 620 q 959 520 876 548 q 1090 475 1042 492 q 1139 457 1138 457 m 1025 773 l 975 741 q 954 745 966 732 q 891 838 926 791 q 812 937 856 886 q 817 960 803 951 l 867 990 q 883 989 876 996 q 951 905 916 954 q 1029 793 987 857 q 1025 773 1036 781 m 1158 856 l 1107 823 q 1088 827 1095 817 q 948 1019 1035 917 q 951 1042 937 1032 l 1002 1072 q 1020 1067 1012 1076 q 1162 876 1099 974 q 1158 856 1171 865 z "},"ナ":{"ha":1423,"x_min":133,"x_max":1305,"o":"m 1305 753 l 1305 681 q 1290 667 1305 667 l 842 667 q 818 419 836 544 q 758 179 800 294 q 714 81 739 127 q 654 -9 689 34 q 614 -53 635 -33 q 570 -94 593 -73 q 551 -92 559 -102 l 495 -34 q 496 -12 484 -24 q 534 23 515 5 q 570 61 553 41 q 620 139 600 98 q 655 224 640 180 q 709 442 693 330 q 731 667 724 555 l 148 667 q 133 681 133 667 l 133 753 q 148 766 133 766 l 735 766 q 738 904 738 836 q 738 1036 738 972 l 738 1118 q 751 1133 738 1133 l 834 1133 q 849 1118 849 1133 l 849 1036 q 849 903 849 971 q 846 766 849 836 l 1290 766 q 1305 753 1305 766 z "},"ニ":{"ha":1423,"x_min":127,"x_max":1294,"o":"m 1294 155 l 1294 73 q 1280 60 1294 60 l 141 60 q 127 73 127 60 l 127 155 q 141 168 127 168 l 1280 168 q 1294 155 1294 168 m 1137 892 l 1137 814 q 1122 800 1137 800 l 300 800 q 286 814 286 800 l 286 892 q 300 907 286 907 l 1122 907 q 1137 892 1137 907 z "},"ヌ":{"ha":1423,"x_min":256,"x_max":1219,"o":"m 845 399 q 1009 275 929 338 q 1169 142 1089 212 q 1171 122 1181 133 l 1118 65 q 1099 64 1108 56 q 941 195 1020 130 q 779 321 861 260 q 592 120 692 220 q 382 -65 492 20 l 350 -91 q 331 -88 338 -99 l 281 -26 q 282 -5 273 -15 l 313 18 q 518 191 422 98 q 696 380 614 283 q 547 476 623 431 q 395 563 472 521 q 389 582 382 570 l 427 650 q 436 656 430 655 q 448 655 442 658 q 606 561 529 610 q 761 457 684 511 q 857 581 812 519 q 937 699 901 643 q 1003 801 974 754 q 1053 880 1032 848 l 273 880 q 261 884 266 880 q 256 894 256 887 l 256 966 q 271 979 256 979 l 1154 979 q 1160 978 1158 979 l 1208 944 q 1213 941 1211 941 q 1217 939 1215 940 q 1219 937 1218 937 q 1187 882 1215 929 q 1109 762 1158 836 q 994 594 1061 688 q 845 399 926 500 z "},"ネ":{"ha":1423,"x_min":170,"x_max":1286,"o":"m 1242 251 l 1274 229 q 1276 209 1286 221 l 1229 149 q 1210 146 1222 137 l 1179 170 q 1145 192 1177 170 q 1059 252 1114 214 q 932 340 1005 290 q 776 444 859 389 l 783 -76 q 768 -91 783 -91 l 689 -91 q 675 -76 675 -91 l 681 415 q 460 264 571 338 q 231 123 349 190 q 213 127 220 115 l 174 193 q 171 204 170 198 q 178 213 172 210 q 593 478 387 331 q 985 774 800 625 l 281 774 q 266 789 266 774 l 266 854 q 279 868 266 868 l 1103 868 q 1114 863 1108 868 l 1157 791 q 1154 772 1164 779 q 1109 739 1141 762 q 1034 682 1078 715 q 936 609 990 650 q 825 526 882 568 q 983 424 907 473 q 1116 336 1058 374 q 1208 274 1173 297 q 1242 251 1242 251 m 845 924 l 812 940 q 657 1017 741 978 q 500 1085 574 1055 q 491 1104 486 1089 l 519 1171 q 537 1177 525 1183 q 718 1099 624 1143 q 894 1012 812 1055 q 902 1004 901 1009 q 901 993 903 998 l 864 929 q 845 924 857 917 z "},"ノ":{"ha":1423,"x_min":239,"x_max":1225,"o":"m 1097 1057 l 1112 1096 q 1131 1103 1116 1108 l 1210 1073 q 1218 1053 1225 1066 q 1058 724 1147 883 q 853 420 968 566 q 600 151 735 274 q 313 -83 465 27 q 294 -80 301 -92 l 243 -14 q 239 -3 239 -9 q 245 5 240 3 q 498 210 377 103 q 726 444 618 316 q 936 735 841 582 q 1097 1057 1031 888 z "},"ハ":{"ha":1423,"x_min":49,"x_max":1390,"o":"m 442 925 l 452 966 q 468 977 454 979 l 552 958 q 563 940 566 954 q 397 438 500 681 q 148 -33 293 195 q 129 -37 140 -43 l 57 5 q 50 14 52 8 q 53 24 49 19 q 284 460 184 235 q 442 925 384 686 m 1367 88 l 1383 52 q 1377 33 1390 37 l 1294 0 q 1276 7 1282 -5 l 1261 46 q 1117 372 1191 224 q 982 627 1043 519 q 842 853 910 751 l 819 887 q 818 899 817 892 q 825 907 819 905 l 901 951 q 918 947 911 958 l 941 911 q 979 848 943 910 q 1074 675 1015 785 q 1209 415 1133 566 q 1367 88 1286 264 z "},"バ":{"ha":1423,"x_min":49,"x_max":1390,"o":"m 442 924 l 452 963 q 468 974 454 977 l 552 956 q 563 939 566 952 q 148 -35 438 422 q 129 -39 138 -46 l 57 5 q 50 14 52 8 q 53 24 49 19 q 283 458 184 232 q 442 924 382 685 m 1367 85 l 1383 49 q 1377 30 1390 34 l 1294 -1 q 1276 5 1282 -8 l 1261 45 q 1116 372 1191 222 q 979 629 1040 521 q 876 798 917 736 q 834 860 836 859 l 814 894 q 818 914 806 906 l 892 958 q 911 952 903 963 l 935 917 q 974 852 936 916 q 1073 677 1012 788 q 1211 415 1134 567 q 1367 85 1287 263 m 1203 882 l 1152 850 q 1141 848 1146 846 q 1133 854 1135 849 q 996 1053 1078 947 q 1000 1076 986 1066 l 1051 1103 q 1067 1100 1061 1109 q 1133 1017 1099 1066 q 1207 902 1168 967 q 1203 882 1214 890 m 1339 960 l 1287 929 q 1268 935 1275 920 q 1135 1127 1221 1024 q 1131 1141 1128 1134 q 1139 1150 1133 1147 l 1192 1179 q 1208 1175 1200 1185 q 1281 1078 1248 1127 q 1344 979 1314 1029 q 1339 960 1351 967 z "},"パ":{"ha":1423,"x_min":49,"x_max":1390,"o":"m 442 924 l 452 963 q 468 974 454 977 l 552 956 q 563 939 566 952 q 148 -34 438 420 q 129 -38 140 -45 l 57 5 q 50 14 52 8 q 53 24 49 19 q 283 458 184 232 q 442 924 382 685 m 1367 85 l 1383 49 q 1377 30 1390 34 l 1294 -1 q 1276 5 1282 -8 l 1261 45 q 1116 372 1191 222 q 980 629 1042 521 q 878 799 918 738 q 837 861 838 860 l 817 895 q 821 916 808 907 l 895 959 q 914 954 907 964 l 937 918 q 976 854 939 917 q 1074 679 1013 791 q 1211 415 1134 567 q 1367 85 1287 263 m 1275 1017 q 1248 1079 1275 1054 q 1184 1104 1221 1104 q 1124 1079 1149 1104 q 1099 1017 1099 1054 q 1124 955 1099 981 q 1185 929 1149 929 q 1249 955 1222 929 q 1275 1017 1275 981 m 1336 1017 q 1324 959 1336 986 q 1291 911 1312 932 q 1244 879 1271 891 q 1185 867 1217 867 q 1127 878 1154 867 q 1080 910 1100 890 q 1048 958 1059 930 q 1036 1017 1036 986 q 1048 1076 1036 1048 q 1081 1123 1061 1103 q 1129 1155 1101 1143 q 1190 1166 1157 1166 q 1246 1154 1219 1166 q 1293 1122 1272 1142 q 1324 1074 1313 1101 q 1336 1017 1336 1047 z "},"ヒ":{"ha":1423,"x_min":271,"x_max":1200,"o":"m 1179 750 l 1199 677 q 1190 659 1200 663 q 787 581 987 614 q 384 528 587 548 l 384 263 q 570 50 384 61 q 768 44 671 45 q 939 45 864 43 q 1061 48 1015 46 q 1108 50 1107 50 l 1156 53 q 1171 38 1171 53 l 1171 -39 q 1158 -53 1171 -50 q 861 -61 1010 -60 q 564 -54 712 -62 q 349 36 426 -47 q 271 263 271 119 l 271 1067 q 285 1082 271 1082 l 369 1082 q 384 1067 384 1082 l 384 632 q 504 644 427 636 q 679 667 581 652 q 890 702 777 681 q 1122 751 1004 723 l 1162 761 q 1179 750 1176 765 z "},"ビ":{"ha":1423,"x_min":270,"x_max":1303,"o":"m 1177 749 l 1198 677 q 1188 659 1199 663 q 787 581 987 614 q 382 526 586 547 l 382 262 q 568 49 382 60 q 766 43 670 43 q 938 43 863 42 q 1059 47 1013 45 q 1107 49 1105 49 l 1154 52 q 1169 37 1169 52 l 1169 -41 q 1157 -54 1169 -52 q 861 -62 1009 -61 q 564 -56 712 -64 q 347 35 425 -49 q 270 262 270 119 l 270 1066 q 283 1081 270 1081 l 368 1081 q 382 1066 382 1081 l 382 631 q 503 644 426 635 q 678 667 581 652 q 890 701 776 681 q 1120 750 1004 722 l 1161 760 q 1177 749 1175 764 m 1161 873 l 1109 841 q 1089 845 1099 831 q 1025 938 1061 890 q 947 1038 989 986 q 943 1050 941 1044 q 951 1059 944 1057 l 1001 1092 q 1019 1089 1012 1097 q 1086 1006 1050 1054 q 1165 894 1123 959 q 1161 873 1172 882 m 1294 956 l 1242 924 q 1223 928 1230 917 q 1164 1019 1198 971 q 1085 1118 1130 1066 q 1088 1142 1070 1133 l 1139 1171 q 1156 1168 1150 1176 q 1298 977 1237 1074 q 1301 966 1303 971 q 1294 956 1299 960 z "},"ピ":{"ha":1423,"x_min":270,"x_max":1322,"o":"m 1177 749 l 1198 677 q 1188 659 1199 663 q 787 581 987 614 q 382 526 586 548 l 382 263 q 568 49 382 60 q 766 43 670 43 q 938 43 863 42 q 1059 47 1013 45 q 1107 49 1105 49 l 1154 52 q 1165 49 1161 53 q 1169 38 1169 45 l 1169 -39 q 1157 -53 1169 -50 q 861 -62 1009 -61 q 564 -56 712 -64 q 347 36 425 -47 q 270 263 270 119 l 270 1066 q 283 1081 270 1081 l 368 1081 q 382 1066 382 1081 l 382 632 q 503 644 426 636 q 677 667 579 652 q 890 701 776 681 q 1120 750 1004 722 l 1161 760 q 1177 749 1175 764 m 1260 985 q 1234 1048 1260 1023 q 1171 1073 1208 1073 q 1111 1048 1135 1073 q 1086 985 1086 1023 q 1111 923 1086 948 q 1172 898 1135 898 q 1235 923 1210 898 q 1260 985 1260 948 m 1322 985 q 1310 926 1322 954 q 1278 879 1298 899 q 1230 846 1257 859 q 1172 834 1203 834 q 1114 846 1141 834 q 1066 879 1086 859 q 1034 926 1046 899 q 1023 985 1023 954 q 1035 1043 1023 1016 q 1067 1090 1047 1070 q 1116 1123 1088 1111 q 1175 1135 1143 1135 q 1232 1123 1204 1135 q 1279 1090 1259 1111 q 1311 1042 1299 1070 q 1322 985 1322 1015 z "},"フ":{"ha":1423,"x_min":189,"x_max":1261,"o":"m 203 981 l 1192 981 q 1198 979 1196 981 l 1253 944 q 1257 929 1261 939 q 1152 664 1211 798 q 1021 401 1092 530 q 867 150 949 271 q 694 -77 785 28 q 675 -79 688 -85 l 613 -26 q 612 -5 601 -16 q 765 196 693 90 q 900 415 837 302 q 1017 644 963 528 q 1116 876 1070 761 l 205 876 q 189 890 189 876 l 189 967 q 203 981 189 981 z "},"ブ":{"ha":1423,"x_min":187,"x_max":1430,"o":"m 201 913 l 1191 913 q 1196 911 1195 913 l 1251 876 q 1256 861 1259 872 q 1020 366 1162 600 q 693 -80 878 132 q 674 -81 686 -88 l 612 -27 q 610 -7 600 -18 q 899 379 773 179 q 1118 810 1025 579 l 203 810 q 187 823 187 810 l 187 899 q 201 913 187 913 m 1272 954 l 1218 935 q 1200 944 1204 930 q 1163 1040 1183 991 q 1115 1145 1143 1088 q 1123 1166 1108 1161 l 1179 1181 q 1195 1176 1188 1185 q 1236 1088 1215 1137 q 1280 972 1257 1040 q 1272 954 1284 959 m 1415 998 l 1362 981 q 1341 991 1347 977 q 1311 1084 1331 1036 q 1261 1188 1291 1131 q 1271 1210 1255 1204 l 1325 1225 q 1340 1217 1335 1229 q 1385 1117 1363 1165 q 1426 1017 1407 1069 q 1415 998 1430 1002 z "},"プ":{"ha":1423,"x_min":216,"x_max":1419,"o":"m 229 940 l 1162 940 q 1168 939 1166 940 l 1222 905 q 1227 897 1226 902 q 1227 888 1229 892 q 1135 629 1185 755 q 1022 381 1085 502 q 881 145 959 260 q 707 -80 803 30 q 688 -81 700 -88 l 625 -27 q 624 -7 613 -18 q 901 393 787 179 q 1099 837 1016 608 l 231 837 q 216 852 216 837 l 216 929 q 229 940 216 940 m 1356 1067 q 1331 1130 1356 1104 q 1268 1156 1305 1156 q 1207 1130 1233 1156 q 1181 1067 1181 1104 q 1207 1006 1181 1031 q 1270 981 1233 981 q 1331 1006 1306 981 q 1356 1067 1356 1031 m 1419 1067 q 1407 1009 1419 1036 q 1374 962 1394 982 q 1326 930 1354 941 q 1270 918 1299 918 q 1211 930 1238 918 q 1164 962 1184 941 q 1131 1009 1143 982 q 1119 1067 1119 1036 q 1131 1126 1119 1099 q 1164 1175 1143 1154 q 1213 1206 1185 1195 q 1272 1218 1241 1218 q 1329 1206 1302 1218 q 1375 1173 1355 1194 q 1407 1126 1396 1153 q 1419 1067 1419 1099 z "},"ヘ":{"ha":1423,"x_min":28,"x_max":1401,"o":"m 746 701 l 1390 237 q 1393 218 1401 229 l 1343 152 q 1324 149 1335 140 l 678 613 q 610 656 639 642 q 557 671 582 670 q 505 658 532 671 q 444 617 479 644 q 318 511 378 567 q 197 401 258 456 l 117 330 q 98 331 107 321 l 39 389 q 39 410 28 400 l 118 480 q 242 594 180 536 q 373 704 304 652 q 477 765 430 747 q 569 780 525 783 q 656 756 613 777 q 746 701 699 735 z "},"ベ":{"ha":1423,"x_min":28,"x_max":1401,"o":"m 746 699 l 1390 235 q 1393 216 1401 227 l 1343 149 q 1324 146 1335 137 l 678 610 q 610 653 639 639 q 557 668 582 667 q 505 655 532 669 q 444 614 479 642 q 318 509 378 564 q 197 400 258 454 l 117 327 q 98 328 107 319 l 39 387 q 39 407 28 397 l 118 477 q 242 592 180 534 q 373 701 304 650 q 477 762 430 745 q 569 777 525 780 q 656 753 613 774 q 746 699 699 732 m 1185 749 l 1137 716 q 1125 713 1131 712 q 1115 720 1119 715 q 1052 813 1088 765 q 972 913 1016 861 q 977 936 963 926 l 1027 967 q 1043 966 1036 972 q 1113 882 1077 930 q 1190 769 1149 833 q 1185 749 1198 758 m 1320 831 l 1268 800 q 1257 798 1263 796 q 1249 804 1252 799 q 1109 993 1198 892 q 1112 1017 1097 1008 l 1165 1047 q 1181 1044 1175 1051 q 1324 852 1263 947 q 1320 831 1332 841 z "},"ペ":{"ha":1423,"x_min":28,"x_max":1401,"o":"m 746 700 l 1390 235 q 1393 216 1401 227 l 1343 149 q 1324 146 1335 137 l 678 612 q 610 654 639 640 q 557 669 582 669 q 505 656 532 670 q 444 616 479 643 q 318 510 378 566 q 197 400 258 454 l 117 327 q 98 328 107 319 l 39 387 q 39 407 28 397 l 118 477 q 242 592 180 534 q 373 701 304 650 q 477 763 430 745 q 569 779 525 781 q 656 755 613 776 q 746 700 699 734 m 1225 861 q 1198 923 1225 898 q 1137 948 1172 948 q 1076 923 1101 948 q 1050 861 1050 898 q 1076 799 1050 825 q 1138 773 1101 773 q 1199 799 1173 773 q 1225 861 1225 825 m 1287 861 q 1275 803 1287 830 q 1242 755 1263 776 q 1195 723 1222 735 q 1138 711 1168 711 q 1080 722 1107 711 q 1032 754 1053 734 q 1000 802 1012 774 q 987 861 987 830 q 1000 920 987 892 q 1032 967 1012 947 q 1080 999 1053 987 q 1141 1010 1108 1010 q 1197 998 1171 1010 q 1244 966 1223 986 q 1276 918 1264 945 q 1287 861 1287 891 z "},"ホ":{"ha":1423,"x_min":106,"x_max":1313,"o":"m 370 514 l 393 544 q 412 548 401 556 l 476 506 q 480 484 490 496 q 345 300 415 391 q 195 123 274 210 q 176 122 186 114 l 117 174 q 115 194 106 182 q 247 351 184 271 q 370 514 309 430 m 943 494 l 998 548 q 1019 548 1008 559 q 1175 374 1103 467 q 1309 183 1246 281 q 1312 172 1313 178 q 1305 164 1310 167 l 1237 122 q 1226 119 1232 118 q 1218 126 1221 121 q 943 473 1101 317 q 943 494 933 483 m 1221 815 l 1221 746 q 1207 732 1221 732 l 765 732 l 765 -60 q 751 -73 765 -73 l 670 -73 q 655 -60 655 -73 l 655 732 l 214 732 q 199 746 199 732 l 199 815 q 214 829 199 829 l 655 829 l 655 1122 q 670 1137 655 1137 l 751 1137 q 765 1122 765 1137 l 765 829 l 1207 829 q 1221 815 1221 829 z "},"ボ":{"ha":1423,"x_min":104,"x_max":1423,"o":"m 370 513 l 392 544 q 411 548 400 556 l 476 506 q 483 496 481 502 q 480 484 484 490 q 343 300 414 391 q 194 123 273 209 q 175 122 184 114 l 115 172 q 114 193 104 180 q 248 347 183 270 q 370 513 313 425 m 943 494 l 997 547 q 1017 547 1005 556 q 1174 373 1101 465 q 1309 182 1246 281 q 1312 171 1313 176 q 1305 163 1310 165 l 1237 121 q 1218 126 1225 114 q 1090 307 1158 220 q 943 473 1023 393 q 943 494 932 483 m 1221 815 l 1221 745 q 1207 731 1221 731 l 764 731 l 764 -61 q 750 -75 764 -75 l 669 -75 q 654 -61 654 -75 l 654 731 l 213 731 q 198 745 198 731 l 198 815 q 213 829 198 829 l 654 829 l 654 1122 q 669 1137 654 1137 l 750 1137 q 764 1122 764 1137 l 764 829 l 1207 829 q 1221 815 1221 829 m 1282 916 l 1232 883 q 1211 887 1221 875 q 1067 1080 1154 977 q 1073 1103 1058 1095 l 1123 1134 q 1141 1133 1134 1139 q 1208 1050 1172 1099 q 1284 936 1244 1001 q 1282 916 1293 926 m 1415 997 l 1363 967 q 1343 971 1351 959 q 1206 1160 1293 1061 q 1201 1173 1200 1166 q 1208 1183 1202 1180 l 1261 1214 q 1278 1211 1271 1218 q 1352 1116 1317 1164 q 1420 1019 1388 1067 q 1422 1007 1423 1013 q 1415 997 1421 1001 z "},"ポ":{"ha":1423,"x_min":111,"x_max":1371,"o":"m 370 513 l 393 544 q 412 548 401 556 l 476 506 q 480 484 490 496 q 343 300 414 391 q 194 123 273 210 q 175 123 184 114 l 117 174 q 111 184 111 178 q 115 194 111 190 q 248 349 184 270 q 370 513 311 427 m 943 494 l 998 547 q 1019 547 1008 556 q 1175 373 1103 465 q 1309 182 1246 281 q 1312 171 1313 176 q 1305 163 1310 165 l 1237 121 q 1218 126 1225 114 q 1090 307 1158 220 q 943 473 1023 395 q 943 494 932 483 m 1221 815 l 1221 745 q 1207 731 1221 731 l 764 731 l 764 -61 q 750 -75 764 -75 l 669 -75 q 654 -61 654 -75 l 654 731 l 214 731 q 199 745 199 731 l 199 815 q 214 829 199 829 l 654 829 l 654 1122 q 669 1137 654 1137 l 750 1137 q 764 1122 764 1137 l 764 829 l 1207 829 q 1221 815 1221 829 m 1310 1043 q 1284 1105 1310 1080 q 1221 1131 1257 1131 q 1160 1105 1185 1131 q 1135 1043 1135 1080 q 1160 981 1135 1005 q 1222 956 1185 956 q 1284 981 1259 956 q 1310 1043 1310 1005 m 1371 1043 q 1360 985 1371 1012 q 1328 937 1348 958 q 1280 905 1308 917 q 1222 892 1253 892 q 1164 905 1191 892 q 1116 937 1137 917 q 1084 985 1096 958 q 1073 1043 1073 1012 q 1085 1101 1073 1074 q 1118 1149 1097 1128 q 1166 1181 1138 1169 q 1225 1194 1194 1194 q 1282 1181 1255 1194 q 1329 1149 1309 1169 q 1360 1101 1348 1128 q 1371 1043 1371 1073 z "},"マ":{"ha":1423,"x_min":141,"x_max":1322,"o":"m 783 245 q 886 149 836 198 q 986 49 937 100 q 985 30 996 39 l 926 -24 q 917 -29 922 -28 q 907 -24 911 -30 q 765 113 838 47 q 614 244 692 179 q 489 345 552 296 q 357 437 426 393 q 351 456 345 444 l 396 525 q 415 529 404 536 q 561 427 491 481 q 700 313 631 372 q 777 396 728 343 q 886 518 826 449 q 1012 667 945 587 q 1142 830 1078 747 l 157 830 q 146 834 151 830 q 141 845 141 838 l 141 920 q 156 933 141 933 l 1248 933 q 1255 930 1252 933 l 1312 890 q 1305 857 1322 882 q 1157 670 1234 764 q 1008 494 1080 576 q 878 347 937 412 q 783 245 818 282 z "},"ミ":{"ha":1423,"x_min":264,"x_max":1176,"o":"m 269 151 l 300 221 q 317 228 305 233 q 732 90 518 142 q 1164 7 947 38 q 1176 -8 1176 7 l 1165 -85 q 1149 -99 1164 -99 q 704 -11 925 -66 q 277 130 483 45 q 269 151 264 136 m 286 604 l 316 677 q 324 684 319 682 q 335 684 330 686 q 731 557 526 609 q 1142 477 936 506 q 1154 463 1154 477 l 1143 387 q 1127 373 1143 373 q 705 454 916 400 q 294 585 494 507 q 286 604 279 590 m 311 1010 l 342 1085 q 359 1092 347 1099 q 751 973 549 1019 q 1157 907 954 928 q 1169 891 1171 905 l 1162 810 q 1147 798 1162 795 q 726 868 936 821 q 320 991 517 916 q 311 1010 305 996 z "},"ム":{"ha":1423,"x_min":117,"x_max":1309,"o":"m 1303 -9 q 1293 -31 1309 -27 l 1227 -56 q 1206 -46 1213 -61 l 1194 -14 q 1181 20 1188 3 q 1167 56 1175 35 q 1149 99 1160 76 l 151 -60 q 130 -46 136 -64 l 119 20 q 134 41 117 38 l 206 52 q 222 105 209 61 q 256 220 235 149 q 304 385 277 292 q 361 584 331 477 q 422 808 391 690 q 486 1043 454 925 l 494 1076 q 514 1088 499 1092 l 591 1072 q 604 1051 606 1069 l 594 1019 q 513 719 555 867 q 434 444 472 571 q 366 218 396 316 q 320 68 336 119 l 1109 187 q 1039 336 1078 255 q 955 503 1000 418 l 939 534 q 945 556 932 549 l 1013 587 q 1036 581 1029 594 l 1053 551 q 1147 359 1104 453 q 1223 190 1191 264 q 1273 69 1255 115 q 1291 22 1291 23 l 1303 -9 l 1303 -9 z "},"メ":{"ha":1423,"x_min":206,"x_max":1230,"o":"m 1188 250 l 1219 225 q 1221 205 1230 217 l 1169 142 q 1149 140 1161 133 q 977 280 1063 213 q 798 411 890 347 q 554 150 682 271 q 279 -79 426 28 q 259 -76 269 -88 l 210 -11 q 207 -1 206 -7 q 213 8 208 5 q 475 224 351 110 q 708 471 598 338 q 529 582 618 529 q 346 684 439 635 q 339 703 332 690 l 380 773 q 399 779 387 787 q 587 671 495 727 q 772 553 678 614 q 947 828 871 686 q 1086 1122 1023 970 q 1104 1130 1092 1135 l 1181 1097 q 1191 1078 1195 1092 q 1044 777 1126 922 q 861 494 963 632 q 987 403 929 446 q 1089 327 1046 359 q 1158 273 1133 294 q 1188 250 1184 252 z "},"モ":{"ha":1423,"x_min":159,"x_max":1234,"o":"m 1234 585 l 1234 514 q 1221 500 1234 500 l 582 500 l 582 496 l 581 263 q 595 159 581 199 q 633 97 610 119 q 685 65 656 75 q 738 54 713 56 q 873 48 807 49 q 990 49 939 47 q 1074 52 1042 50 q 1105 54 1105 54 l 1147 57 q 1162 45 1162 60 l 1168 -26 q 1156 -42 1169 -39 l 1114 -46 q 1078 -48 1111 -46 q 991 -52 1044 -50 q 870 -52 939 -53 q 730 -46 802 -52 q 648 -30 693 -43 q 562 17 602 -16 q 496 109 522 50 q 469 263 469 168 l 471 498 l 471 500 l 172 500 q 159 514 159 500 l 159 585 q 172 598 159 598 l 471 598 l 472 917 l 271 917 q 256 930 256 917 l 256 1002 q 271 1017 256 1017 l 1097 1017 q 1111 1002 1111 1017 l 1111 930 q 1097 917 1111 917 l 585 917 l 583 598 l 1221 598 q 1234 585 1234 598 z "},"ャ":{"ha":1423,"x_min":216,"x_max":1240,"o":"m 1198 652 l 1234 589 q 1234 575 1240 581 q 1112 416 1175 494 q 979 264 1048 339 q 960 264 971 254 l 903 312 q 902 334 891 323 q 1008 444 954 387 q 1107 559 1062 500 q 1019 552 1074 556 q 897 543 964 548 q 752 530 829 537 q 600 518 675 524 l 701 -42 q 690 -58 704 -56 l 616 -69 q 598 -58 601 -72 l 499 510 q 414 503 458 507 q 329 496 376 500 q 239 488 282 492 q 222 502 225 488 l 218 576 q 231 591 216 589 l 481 610 l 435 880 q 436 892 433 887 q 446 898 439 897 l 521 909 q 537 898 534 911 l 583 617 l 1184 659 q 1198 652 1192 661 z "},"ヤ":{"ha":1423,"x_min":81,"x_max":1360,"o":"m 1297 798 l 1351 750 q 1354 732 1360 742 q 1192 524 1276 624 q 1019 327 1108 423 q 998 326 1009 315 l 937 380 q 936 400 926 388 q 1061 544 1001 471 q 1180 693 1120 617 q 1075 686 1143 690 q 920 674 1006 681 q 736 661 834 667 q 544 647 639 654 l 667 -57 q 655 -73 670 -71 l 574 -88 q 557 -76 560 -91 l 431 640 q 324 632 378 637 q 219 623 277 628 q 106 612 161 618 q 94 615 99 612 q 90 625 90 618 l 83 699 q 85 709 81 705 q 96 713 90 712 l 414 738 l 354 1077 q 365 1093 351 1090 l 448 1105 q 464 1095 461 1108 l 525 745 l 1289 800 q 1297 798 1291 800 z "},"ュ":{"ha":1423,"x_min":194,"x_max":1227,"o":"m 1227 75 l 1227 3 q 1214 -11 1227 -11 l 209 -11 q 194 3 194 -11 l 194 75 q 209 90 194 90 l 821 90 q 843 245 833 168 q 861 392 853 323 q 873 517 868 461 q 880 610 878 574 l 391 610 q 380 616 384 610 q 377 628 377 621 l 377 696 q 391 709 377 709 l 937 709 q 945 705 943 709 l 990 659 q 994 650 994 655 q 988 582 993 635 q 976 452 983 529 q 957 281 968 374 q 929 90 945 187 l 1214 90 q 1227 75 1227 90 z "},"ユ":{"ha":1423,"x_min":76,"x_max":1348,"o":"m 1348 123 l 1348 49 q 1335 35 1348 35 l 91 35 q 76 49 76 35 l 76 123 q 91 137 76 137 l 864 137 q 893 343 880 237 q 916 545 906 449 q 931 717 925 640 q 941 837 937 793 l 317 837 q 304 852 304 837 l 304 926 q 317 940 304 940 l 1047 940 q 1059 936 1054 940 q 1062 925 1063 932 l 1061 902 q 1057 864 1059 898 q 1049 774 1054 830 q 1038 644 1044 718 q 1022 486 1031 570 q 1002 313 1013 401 q 977 137 990 224 l 1335 137 q 1348 123 1348 137 z "},"ョ":{"ha":1423,"x_min":339,"x_max":1082,"o":"m 1082 758 l 1082 14 q 1067 0 1082 0 l 359 0 q 346 14 346 0 l 346 81 q 359 96 346 96 l 981 96 l 981 351 l 419 351 q 406 365 406 351 l 406 433 q 419 448 406 448 l 981 448 l 981 677 l 353 677 q 339 690 339 677 l 339 758 q 353 772 339 772 l 1067 772 q 1082 758 1082 772 z "},"ヨ":{"ha":1423,"x_min":244,"x_max":1183,"o":"m 1183 952 l 1183 16 q 1169 3 1183 3 l 269 3 q 254 16 254 3 l 254 91 q 269 104 254 104 l 1073 104 l 1073 452 l 340 452 q 327 465 327 452 l 327 537 q 340 552 327 552 l 1073 552 l 1073 865 l 258 865 q 244 879 244 865 l 244 952 q 258 967 244 967 l 1169 967 q 1183 952 1183 967 z "},"ラ":{"ha":1423,"x_min":191,"x_max":1253,"o":"m 206 731 l 1184 731 q 1191 730 1190 731 l 1242 693 q 1249 677 1253 686 q 1189 555 1226 631 q 1094 380 1152 479 q 954 161 1036 281 q 758 -91 872 42 q 738 -94 750 -100 l 675 -42 q 670 -32 671 -38 q 674 -20 669 -26 q 909 294 800 127 q 1107 632 1019 461 l 208 632 q 191 646 191 632 l 191 716 q 206 731 191 731 m 1135 1036 l 1135 966 q 1120 951 1135 951 l 330 951 q 315 966 315 951 l 315 1036 q 330 1050 315 1050 l 1120 1050 q 1135 1036 1135 1050 z "},"リ":{"ha":1423,"x_min":302,"x_max":1145,"o":"m 408 1089 l 408 416 q 395 403 408 403 l 316 403 q 302 416 302 403 l 302 1089 q 316 1103 302 1103 l 395 1103 q 408 1089 408 1103 m 1141 1105 l 1143 903 q 1140 607 1145 753 q 1105 333 1135 461 q 1013 99 1076 205 q 837 -79 949 -7 l 803 -102 q 784 -99 792 -109 l 736 -35 q 741 -14 730 -22 l 774 9 q 920 164 867 72 q 998 372 972 256 q 1029 621 1024 487 q 1032 902 1034 755 l 1029 1105 q 1043 1119 1029 1119 l 1126 1119 q 1141 1105 1141 1119 z "},"ル":{"ha":1423,"x_min":118,"x_max":1371,"o":"m 684 1101 l 768 1101 q 783 1086 783 1101 l 783 66 q 1046 243 924 144 q 1279 460 1169 342 q 1289 464 1283 464 q 1298 461 1295 464 l 1359 408 q 1362 388 1371 399 q 1229 256 1301 321 q 1080 132 1157 191 q 920 23 1002 73 q 755 -65 838 -27 q 743 -64 747 -68 l 675 -14 q 670 -4 670 -9 l 670 1088 q 684 1101 670 1101 m 433 1031 l 433 990 q 429 887 433 951 q 417 743 426 823 q 394 571 408 663 q 358 382 380 479 q 308 190 336 286 q 241 4 279 94 l 227 -33 q 209 -39 221 -45 l 132 -8 q 125 11 118 -4 l 140 46 q 204 223 176 130 q 252 409 232 316 q 286 591 273 502 q 308 758 300 681 q 319 895 316 834 q 323 990 323 955 l 323 1031 q 336 1044 323 1044 l 419 1044 q 433 1031 433 1044 z "},"レ":{"ha":1423,"x_min":254,"x_max":1203,"o":"m 269 1101 l 354 1101 q 368 1086 368 1101 l 368 58 q 565 144 465 96 q 761 247 665 191 q 947 365 857 302 q 1115 496 1038 427 q 1135 496 1127 505 l 1194 437 q 1192 415 1203 423 q 1002 269 1104 339 q 788 136 899 198 q 562 22 677 73 q 332 -68 446 -30 q 320 -66 326 -71 l 258 -14 q 254 -4 254 -9 l 254 1088 q 269 1101 254 1101 z "},"ロ":{"ha":1423,"x_min":198,"x_max":1226,"o":"m 309 111 l 1116 111 l 1116 873 l 309 873 l 309 111 m 1226 956 l 1226 24 q 1213 11 1226 11 l 213 11 q 198 24 198 11 l 198 956 q 213 970 198 970 l 1213 970 q 1226 956 1226 970 z "},"ワ":{"ha":1423,"x_min":218,"x_max":1214,"o":"m 233 983 l 1199 983 q 1210 979 1206 983 q 1213 968 1214 975 q 1190 781 1206 873 q 1147 595 1173 689 q 1007 239 1095 407 q 800 -84 920 71 q 780 -88 793 -98 l 718 -39 q 711 -30 712 -37 q 713 -19 711 -23 q 963 407 865 179 q 1096 880 1061 635 l 331 880 q 332 818 331 856 q 335 732 334 784 q 339 602 336 680 q 326 587 339 587 l 244 583 q 231 597 231 583 l 218 968 q 233 983 218 983 z "},"ヲ":{"ha":1423,"x_min":206,"x_max":1256,"o":"m 1194 1017 l 1245 983 q 1251 968 1256 978 q 1221 893 1242 948 q 1166 760 1200 838 q 1084 585 1131 682 q 977 383 1036 488 q 847 171 918 278 q 693 -37 776 64 l 667 -68 q 647 -71 659 -77 l 583 -20 q 581 0 571 -9 l 606 31 q 781 270 704 144 q 920 511 857 396 l 324 511 q 309 525 309 511 l 309 593 q 324 606 309 606 l 974 606 q 1056 786 1021 704 q 1109 918 1090 868 l 220 918 q 206 932 206 918 l 206 1004 q 220 1019 206 1019 l 1188 1019 q 1194 1017 1192 1019 z "},"ン":{"ha":1423,"x_min":252,"x_max":1287,"o":"m 1199 841 l 1275 803 q 1280 784 1287 796 l 1263 747 q 888 242 1111 445 q 374 -38 665 39 l 334 -49 q 316 -41 321 -54 l 290 38 q 298 56 283 50 l 339 68 q 812 333 605 151 q 1161 798 1020 515 l 1179 833 q 1199 841 1185 846 m 671 803 l 701 780 q 707 770 707 777 q 704 760 708 764 l 654 699 q 633 697 646 688 l 602 722 q 576 740 602 722 q 506 789 549 758 q 408 857 463 819 q 294 933 353 894 l 262 956 q 254 964 256 959 q 256 975 252 970 l 298 1040 q 316 1044 305 1051 l 353 1025 q 473 952 416 990 q 573 882 530 914 q 642 827 616 849 q 671 803 669 804 z "},"ヴ":{"ha":1423,"x_min":218,"x_max":1427,"o":"m 765 913 l 1211 913 q 1225 895 1227 913 q 1103 378 1187 629 q 890 -109 1020 127 q 882 -115 887 -114 q 871 -114 876 -117 l 799 -76 q 792 -68 793 -73 q 793 -57 791 -62 q 981 365 903 148 q 1099 811 1058 582 l 330 811 l 330 473 q 315 458 330 458 l 232 458 q 218 472 218 458 l 218 899 q 232 913 218 913 l 651 913 l 651 1118 q 665 1133 651 1133 l 751 1133 q 765 1118 765 1133 l 765 913 m 1267 951 l 1210 930 q 1192 940 1196 926 q 1154 1040 1175 990 q 1105 1147 1133 1090 q 1114 1169 1099 1165 l 1171 1185 q 1185 1180 1177 1188 q 1229 1090 1207 1141 q 1275 970 1251 1039 q 1267 951 1279 956 m 1412 997 l 1355 978 q 1337 989 1343 974 q 1305 1084 1325 1035 q 1255 1192 1286 1133 q 1263 1214 1245 1208 l 1318 1229 q 1333 1222 1328 1233 q 1382 1118 1360 1168 q 1423 1016 1404 1069 q 1412 997 1427 1001 z "},"ー":{"ha":1423,"x_min":130,"x_max":1290,"o":"m 1276 458 l 144 458 q 130 472 130 458 l 130 553 q 144 567 130 567 l 1276 567 q 1290 553 1290 567 l 1290 472 q 1276 458 1290 458 z "},"！":{"ha":1423,"x_min":644,"x_max":779,"o":"m 644 1025 q 658 1039 644 1039 l 764 1039 q 774 1036 770 1039 q 777 1025 779 1032 l 764 302 q 750 289 764 289 l 673 289 q 658 302 658 289 l 644 1025 m 663 0 q 650 14 650 0 l 650 161 q 663 175 650 175 l 758 175 q 772 161 772 175 l 772 14 q 758 0 772 0 l 663 0 z "},"？":{"ha":1423,"x_min":351,"x_max":1092,"o":"m 354 990 q 363 1006 351 1002 q 718 1053 536 1053 q 996 991 899 1053 q 1092 821 1092 930 q 1078 730 1092 769 q 1031 658 1063 690 q 1000 630 1015 643 q 974 606 986 617 q 943 585 962 597 q 901 559 924 574 q 857 532 876 544 q 826 511 838 521 q 802 489 815 502 q 769 460 788 476 q 724 391 738 429 q 707 308 709 354 q 693 294 707 294 l 606 294 q 593 309 593 294 q 613 413 595 368 q 665 495 631 458 q 699 528 684 514 q 730 553 715 543 q 764 576 743 563 q 810 605 785 590 l 892 659 q 948 720 922 678 q 974 811 974 762 q 704 956 974 956 q 389 910 549 956 q 370 921 376 906 l 354 990 m 601 0 q 587 14 587 0 l 587 161 q 601 175 587 175 l 697 175 q 711 161 711 175 l 711 14 q 697 0 711 0 l 601 0 z "}}}
